{
.appVersion = "3110";
.formatVersion = 3;
axes = (
{
name = Weight;
tag = wght;
}
);
classes = (
{
automatic = 1;

glyphs = (
{
color = 6;
glyphname = A;
kernLeft = A;
kernRight = A;
layers = (
{
anchors = (
{
name = bottom;
pos = (287,0);
},
{
name = ogonek;
pos = (521,-4);
},
{
name = top;
pos = (280,688);
}
);
layerId = "60CFBDE8-BC08-4808-BF41-F011F3E03A54";
shapes = (
{
closed = 1;
nodes = (
(275,700,o),
(268,698,o),
(260,692,c),
(33,34,ls),
(31,27,o),
(27,17,o),
(27,10,cs),
(26,-1,o),
(34,-8,o),
(45,-8,cs),
(51,-8,o),
(55,-8,o),
(61,-6,c),
(59,-2,o),
(59,4,o),
(59,8,cs),
(59,14,o),
(62,24,o),
(64,29,cs),
(287,686,l),
(275,686,l),
(508,6,ls),
(511,-3,o),
(520,-8,o),
(530,-8,cs),
(536,-8,o),
(541,-6,o),
(547,1,c),
(542,7,o),
(536,18,o),
(531,31,cs),
(307,683,ls),
(303,694,o),
(294,700,o),
(282,700,cs)
);
},
{
closed = 1;
nodes = (
(130,234,l),
(435,234,l),
(435,260,l),
(130,260,l)
);
}
);
width = 562;
},
{
anchors = (
{
name = bottom;
pos = (335,0);
},
{
name = ogonek;
pos = (571,-13);
},
{
name = top;
pos = (340,698);
}
);
layerId = "EBFFFCD3-BAE4-48A5-9442-B72A90AD34A8";
shapes = (
{
closed = 1;
nodes = (
(324,713,o),
(285,707,o),
(245,694,c),
(51,115,ls),
(42,87,o),
(37,61,o),
(37,44,cs),
(37,3,o),
(61,-14,o),
(115,-14,cs),
(150,-14,o),
(171,-7,o),
(191,1,c),
(184,8,o),
(180,18,o),
(180,34,cs),
(180,49,o),
(183,64,o),
(187,80,cs),
(331,657,l),
(317,660,l),
(479,40,ls),
(487,4,o),
(520,-14,o),
(563,-14,cs),
(609,-14,o),
(633,3,o),
(645,17,c),
(628,35,o),
(617,65,o),
(612,82,cs),
(438,668,ls),
(428,704,o),
(396,713,o),
(363,713,cs)
);
},
{
closed = 1;
nodes = (
(181,203,l),
(513,203,l),
(513,277,l),
(181,277,l)
);
}
);
width = 648;
}
);
unicode = 65;
},
{
color = 6;
glyphname = AE;
kernLeft = AE;
kernRight = E;
layers = (
{
anchors = (
{
name = bottom;
pos = (194,0);
},
{
name = ogonek;
pos = (403,-4);
},
{
name = top;
pos = (194,688);
},
{
name = topleft;
pos = (464,688);
}
);
layerId = "60CFBDE8-BC08-4808-BF41-F011F3E03A54";
shapes = (
{
closed = 1;
nodes = (
(50,-8,o),
(54,-8,o),
(59,-6,c),
(57,-2,o),
(57,4,o),
(57,8,cs),
(57,14,o),
(59,24,o),
(62,29,c),
(386,634,l),
(387,624,o),
(387,613,o),
(387,600,cs),
(389,22,ls),
(389,8,o),
(395,0,o),
(406,0,cs),
(723,0,ls),
(735,0,o),
(733,22,o),
(723,26,c),
(621,26,o),
(520,25,o),
(418,25,c),
(416,662,l),
(514,662,o),
(612,662,o),
(710,662,c),
(721,665,o),
(727,688,o),
(713,688,cs),
(435,688,l),
(419,688,o),
(403,688,o),
(387,688,c),
(33,34,ls),
(29,27,o),
(27,17,o),
(27,10,c),
(26,-1,o),
(34,-8,o),
(45,-8,cs)
);
},
{
closed = 1;
nodes = (
(399,234,l),
(399,260,l),
(166,260,l),
(166,234,l)
);
},
{
closed = 1;
nodes = (
(691,354,l),
(694,363,o),
(694,371,o),
(691,380,c),
(411,380,l),
(411,354,l)
);
}
);
width = 803;
},
{
anchors = (
{
name = bottom;
pos = (67,0);
},
{
name = ogonek;
pos = (316,-13);
},
{
name = top;
pos = (67,698);
},
{
name = topleft;
pos = (390,698);
}
);
layerId = "EBFFFCD3-BAE4-48A5-9442-B72A90AD34A8";
shapes = (
{
closed = 1;
nodes = (
(155,-14,o),
(175,-7,o),
(195,1,c),
(189,8,o),
(185,18,o),
(185,34,cs),
(185,49,o),
(185,64,o),
(192,80,c),
(419,603,l),
(424,577,o),
(424,554,o),
(424,533,cs),
(425,71,ls),
(425,26,o),
(459,0,o),
(504,0,cs),
(822,0,ls),
(867,0,o),
(865,103,o),
(830,125,c),
(777,98,o),
(653,69,o),
(564,66,c),
(564,632,l),
(649,629,o),
(737,608,o),
(805,576,c),
(842,593,o),
(858,698,o),
(820,698,cs),
(538,698,l),
(486,698,o),
(392,688,o),
(348,675,c),
(56,115,ls),
(43,90,o),
(37,71,o),
(37,53,c),
(37,12,o),
(66,-14,o),
(120,-14,cs)
);
},
{
closed = 1;
nodes = (
(459,203,l),
(459,277,l),
(230,277,l),
(230,203,l)
);
},
{
closed = 1;
nodes = (
(775,324,l),
(780,345,o),
(782,373,o),
(775,398,c),
(538,398,l),
(538,324,l)
);
}
);
width = 895;
}
);
metricLeft = A;
metricRight = E;
unicode = 198;
},
{
color = 6;
glyphname = B;
kernLeft = H;
kernRight = B;
layers = (
{
anchors = (
{
name = bottom;
pos = (275,0);
},
{
name = top;
pos = (275,688);
}
);
layerId = "60CFBDE8-BC08-4808-BF41-F011F3E03A54";
shapes = (
{
closed = 1;
nodes = (
(209,0,ls),
(385,0,o),
(484,31,o),
(484,178,cs),
(484,281,o),
(435,340,o),
(329,358,c),
(410,385,o),
(449,447,o),
(449,530,cs),
(449,651,o),
(369,700,o),
(205,700,cs),
(124,700,o),
(104,689,o),
(101,687,c),
(106,670,o),
(108,609,o),
(108,600,cs),
(108,22,l),
(109,8,o),
(115,0,o),
(127,0,cs)
);
},
{
closed = 1;
nodes = (
(138,672,l),
(148,675,o),
(168,676,o),
(195,676,cs),
(350,676,o),
(417,639,o),
(417,531,cs),
(417,415,o),
(335,370,o),
(254,370,cs),
(123,370,l),
(130,344,l),
(219,344,ls),
(363,344,o),
(452,308,o),
(452,180,cs),
(452,48,o),
(359,28,o),
(220,28,cs),
(138,28,l)
);
}
);
width = 549;
},
{
anchors = (
{
name = bottom;
pos = (301,0);
},
{
name = top;
pos = (301,698);
}
);
layerId = "EBFFFCD3-BAE4-48A5-9442-B72A90AD34A8";
shapes = (
{
closed = 1;
nodes = (
(276,0,ls),
(457,0,o),
(562,66,o),
(562,199,cs),
(562,303,o),
(495,364,o),
(400,377,c),
(480,398,o),
(528,462,o),
(528,544,cs),
(528,665,o),
(424,712,o),
(251,712,cs),
(165,712,o),
(105,701,o),
(63,681,c),
(80,636,o),
(83,583,o),
(83,551,cs),
(83,71,l),
(83,26,o),
(117,0,o),
(163,0,cs)
);
},
{
closed = 1;
nodes = (
(223,664,l),
(232,664,o),
(242,664,o),
(253,664,cs),
(349,664,o),
(380,610,o),
(380,532,cs),
(380,451,o),
(349,393,o),
(269,395,cs),
(200,395,l),
(207,347,l),
(272,347,ls),
(351,347,o),
(410,317,o),
(410,196,cs),
(410,113,o),
(373,48,o),
(270,48,cs),
(223,48,l)
);
}
);
width = 603;
}
);
metricLeft = H;
unicode = 66;
},
{
color = 6;
glyphname = C;
kernLeft = O;
kernRight = C;
layers = (
{
anchors = (
{
name = bottom;
pos = (316,0);
},
{
name = top;
pos = (319,688);
}
);
layerId = "60CFBDE8-BC08-4808-BF41-F011F3E03A54";
shapes = (
{
closed = 1;
nodes = (
(516,55,o),
(516,99,cs),
(516,112,o),
(505,114,o),
(492,114,c),
(474,53,o),
(392,16,o),
(319,16,cs),
(183,16,o),
(102,128,o),
(102,344,cs),
(102,560,o),
(183,672,o),
(319,672,cs),
(402,672,o),
(458,643,o),
(470,603,c),
(482,598,o),
(495,606,o),
(495,617,cs),
(495,654,o),
(425,700,o),
(319,700,cs),
(162,700,o),
(70,578,o),
(70,344,cs),
(70,110,o),
(162,-12,o),
(319,-12,cs),
(429,-12,o)
);
}
);
width = 576;
},
{
anchors = (
{
name = bottom;
pos = (314,0);
},
{
name = top;
pos = (337,698);
}
);
layerId = "EBFFFCD3-BAE4-48A5-9442-B72A90AD34A8";
shapes = (
{
closed = 1;
nodes = (
(584,33,o),
(584,129,cs),
(584,184,o),
(522,207,o),
(467,199,c),
(453,86,o),
(408,33,o),
(338,33,cs),
(243,33,o),
(201,138,o),
(201,349,cs),
(201,560,o),
(244,665,o),
(342,665,cs),
(407,665,o),
(445,617,o),
(455,511,c),
(529,510,o),
(567,551,o),
(567,591,cs),
(567,670,o),
(448,712,o),
(340,712,cs),
(156,712,o),
(47,580,o),
(47,349,cs),
(47,118,o),
(152,-14,o),
(330,-14,cs),
(453,-14,o)
);
}
);
width = 619;
}
);
metricLeft = O;
unicode = 67;
},
{
color = 6;
glyphname = D;
kernLeft = H;
kernRight = O;
layers = (
{
anchors = (
{
name = bottom;
pos = (285,0);
},
{
name = center;
pos = (310,344);
},
{
name = top;
pos = (303,688);
}
);
layerId = "60CFBDE8-BC08-4808-BF41-F011F3E03A54";
shapes = (
{
closed = 1;
nodes = (
(295,0,l),
(463,0,o),
(559,100,o),
(559,344,cs),
(559,588,o),
(463,700,o),
(295,700,cs),
(247,700,o),
(153,698,o),
(101,695,c),
(105,679,o),
(107,640,o),
(107,600,cs),
(109,22,ls),
(109,8,o),
(115,0,o),
(126,0,c)
);
},
{
closed = 1;
nodes = (
(136,672,l),
(295,672,ls),
(440,672,o),
(527,570,o),
(527,344,cs),
(527,118,o),
(440,28,o),
(295,28,cs),
(138,28,l)
);
}
);
width = 629;
},
{
anchors = (
{
name = bottom;
pos = (293,0);
},
{
name = center;
pos = (323,349);
},
{
name = top;
pos = (316,698);
}
);
layerId = "EBFFFCD3-BAE4-48A5-9442-B72A90AD34A8";
shapes = (
{
closed = 1;
nodes = (
(295,0,l),
(491,0,o),
(607,108,o),
(607,359,cs),
(607,590,o),
(491,708,o),
(287,708,cs),
(218,708,o),
(118,707,o),
(63,699,c),
(80,654,o),
(77,589,o),
(77,551,cs),
(78,70,ls),
(78,27,o),
(109,0,o),
(159,0,c)
);
},
{
closed = 1;
nodes = (
(217,660,l),
(287,660,ls),
(402,660,o),
(453,566,o),
(453,349,cs),
(453,128,o),
(402,48,o),
(287,48,cs),
(217,48,l)
);
}
);
width = 654;
}
);
metricLeft = H;
metricRight = O;
unicode = 68;
},
{
color = 6;
glyphname = Eth;
kernLeft = Eth;
kernRight = O;
layers = (
{
anchors = (
{
name = bottom;
pos = (285,0);
},
{
name = top;
pos = (303,688);
}
);
layerId = "60CFBDE8-BC08-4808-BF41-F011F3E03A54";
shapes = (
{
closed = 1;
nodes = (
(23,353,o),
(23,344,o),
(27,336,c),
(310,336,l),
(314,344,o),
(314,353,o),
(310,361,c),
(27,361,l)
);
},
{
closed = 1;
nodes = (
(295,0,l),
(463,0,o),
(559,100,o),
(559,344,cs),
(559,588,o),
(463,700,o),
(295,700,cs),
(247,700,o),
(153,698,o),
(101,695,c),
(105,679,o),
(107,640,o),
(107,600,cs),
(109,22,ls),
(109,8,o),
(115,0,o),
(126,0,c)
);
},
{
closed = 1;
nodes = (
(136,672,l),
(295,672,ls),
(440,672,o),
(527,570,o),
(527,344,cs),
(527,118,o),
(440,28,o),
(295,28,cs),
(138,28,l)
);
}
);
width = 619;
},
{
anchors = (
{
name = bottom;
pos = (293,0);
},
{
name = top;
pos = (316,698);
}
);
layerId = "EBFFFCD3-BAE4-48A5-9442-B72A90AD34A8";
shapes = (
{
closed = 1;
nodes = (
(15,358,o),
(15,342,o),
(21,324,c),
(341,324,l),
(346,342,o),
(346,358,o),
(341,375,c),
(21,375,l)
);
},
{
closed = 1;
nodes = (
(295,0,l),
(491,0,o),
(607,108,o),
(607,359,cs),
(607,590,o),
(491,708,o),
(287,708,cs),
(218,708,o),
(118,707,o),
(63,699,c),
(80,654,o),
(77,589,o),
(77,551,cs),
(78,70,ls),
(78,27,o),
(109,0,o),
(159,0,c)
);
},
{
closed = 1;
nodes = (
(217,660,l),
(287,660,ls),
(402,660,o),
(453,566,o),
(453,349,cs),
(453,128,o),
(402,48,o),
(287,48,cs),
(217,48,l)
);
}
);
width = 658;
}
);
unicode = 208;
},
{
color = 6;
glyphname = E;
kernLeft = H;
kernRight = E;
layers = (
{
anchors = (
{
name = bottom;
pos = (262,0);
},
{
name = ogonek;
pos = (378,2);
},
{
name = top;
pos = (276,688);
},
{
name = topleft;
pos = (20,688);
}
);
layerId = "60CFBDE8-BC08-4808-BF41-F011F3E03A54";
shapes = (
{
closed = 1;
nodes = (
(443,0,l),
(455,0,o),
(453,22,o),
(443,26,c),
(341,26,o),
(240,25,o),
(138,25,c),
(136,662,l),
(238,662,o),
(328,662,o),
(430,662,c),
(441,665,o),
(447,688,o),
(433,688,c),
(119,688,ls),
(110,688,o),
(105,685,o),
(101,680,c),
(105,664,o),
(107,640,o),
(107,600,cs),
(109,22,ls),
(109,8,o),
(115,0,o),
(126,0,cs)
);
},
{
closed = 1;
nodes = (
(411,354,l),
(414,363,o),
(414,371,o),
(411,380,c),
(131,380,l),
(131,354,l)
);
}
);
width = 523;
},
{
anchors = (
{
name = bottom;
pos = (278,0);
},
{
name = ogonek;
pos = (423,-10);
},
{
name = top;
pos = (280,698);
},
{
name = topleft;
pos = (20,698);
}
);
layerId = "EBFFFCD3-BAE4-48A5-9442-B72A90AD34A8";
shapes = (
{
closed = 1;
nodes = (
(481,0,l),
(526,0,o),
(524,103,o),
(489,125,c),
(436,98,o),
(311,69,o),
(223,66,c),
(222,632,l),
(309,629,o),
(395,608,o),
(464,576,c),
(501,593,o),
(517,698,o),
(479,698,c),
(190,698,ls),
(127,698,o),
(98,693,o),
(63,663,c),
(80,618,o),
(83,572,o),
(83,533,cs),
(83,71,ls),
(83,26,o),
(117,0,o),
(163,0,cs)
);
},
{
closed = 1;
nodes = (
(434,324,l),
(439,345,o),
(441,373,o),
(434,398,c),
(197,398,l),
(197,324,l)
);
}
);
width = 554;
}
);
metricLeft = H;
unicode = 69;
},
{
color = 6;
glyphname = Schwa;
kernRight = O;
layers = (
{
layerId = "60CFBDE8-BC08-4808-BF41-F011F3E03A54";
shapes = (
{
closed = 1;
nodes = (
(184,700,o),
(104,667,o),
(74,596,cs),
(62,568,o),
(70,558,o),
(82,553,c),
(104,637,o),
(189,671,o),
(273,671,cs),
(391,671,o),
(504,594,o),
(504,343,cs),
(504,120,o),
(407,15,o),
(270,15,cs),
(185,15,o),
(93,50,o),
(93,170,cs),
(93,284,o),
(161,341,o),
(286,341,cs),
(356,341,o),
(461,336,o),
(522,328,c),
(522,353,l),
(460,359,o),
(393,366,o),
(298,366,cs),
(145,366,o),
(61,301,o),
(61,170,cs),
(61,53,o),
(141,-12,o),
(268,-12,cs),
(443,-12,o),
(536,127,o),
(536,347,cs),
(536,582,o),
(438,700,o),
(276,700,cs)
);
}
);
width = 596;
},
{
layerId = "EBFFFCD3-BAE4-48A5-9442-B72A90AD34A8";
shapes = (
{
closed = 1;
nodes = (
(179,712,o),
(91,674,o),
(61,607,cs),
(45,570,o),
(58,553,o),
(70,548,c),
(98,595,o),
(161,627,o),
(241,627,cs),
(359,627,o),
(424,556,o),
(424,335,cs),
(424,146,o),
(375,31,o),
(285,31,cs),
(240,31,o),
(191,58,o),
(191,158,cs),
(191,309,o),
(313,338,o),
(389,338,cs),
(427,338,o),
(472,328,o),
(503,313,c),
(508,354,l),
(441,388,o),
(350,389,o),
(283,389,cs),
(143,389,o),
(44,315,o),
(44,184,cs),
(44,51,o),
(148,-14,o),
(281,-14,cs),
(470,-14,o),
(571,123,o),
(571,346,cs),
(571,580,o),
(461,712,o),
(278,712,cs)
);
}
);
width = 616;
}
);
unicode = 399;
},
{
color = 6;
glyphname = F;
kernLeft = H;
kernRight = F;
layers = (
{
anchors = (
{
name = bottom;
pos = (253,0);
},
{
name = top;
pos = (253,688);
}
);
layerId = "60CFBDE8-BC08-4808-BF41-F011F3E03A54";
shapes = (
{
closed = 1;
nodes = (
(135,-8,o),
(140,-4,o),
(144,0,c),
(140,16,o),
(138,47,o),
(138,87,cs),
(136,662,l),
(238,662,o),
(328,662,o),
(430,662,c),
(441,665,o),
(447,688,o),
(433,688,c),
(119,688,ls),
(110,688,o),
(105,685,o),
(101,680,c),
(105,664,o),
(107,640,o),
(107,600,cs),
(109,14,ls),
(109,0,o),
(115,-8,o),
(126,-8,cs)
);
},
{
closed = 1;
nodes = (
(409,346,l),
(412,355,o),
(412,363,o),
(409,372,c),
(131,372,l),
(131,346,l)
);
}
);
width = 505;
},
{
anchors = (
{
name = bottom;
pos = (267,0);
},
{
name = top;
pos = (267,698);
}
);
layerId = "EBFFFCD3-BAE4-48A5-9442-B72A90AD34A8";
shapes = (
{
closed = 1;
nodes = (
(202,-15,o),
(231,5,o),
(243,16,c),
(225,60,o),
(223,108,o),
(223,146,cs),
(222,632,l),
(309,629,o),
(395,608,o),
(464,576,c),
(501,593,o),
(517,698,o),
(479,698,c),
(190,698,ls),
(127,698,o),
(98,693,o),
(63,663,c),
(80,618,o),
(83,572,o),
(83,533,cs),
(83,56,ls),
(83,12,o),
(117,-15,o),
(163,-15,cs)
);
},
{
closed = 1;
nodes = (
(434,322,l),
(438,343,o),
(441,371,o),
(434,397,c),
(197,397,l),
(197,322,l)
);
}
);
width = 534;
}
);
metricLeft = H;
unicode = 70;
},
{
color = 6;
glyphname = G;
kernLeft = O;
kernRight = G;
layers = (
{
anchors = (
{
name = bottom;
pos = (322,0);
},
{
name = top;
pos = (322,688);
}
);
layerId = "60CFBDE8-BC08-4808-BF41-F011F3E03A54";
shapes = (
{
closed = 1;
nodes = (
(517,-12,o),
(534,144,o),
(534,218,cs),
(534,345,o),
(484,380,o),
(443,380,cs),
(425,380,o),
(415,373,o),
(416,359,c),
(467,359,o),
(503,321,o),
(503,220,cs),
(503,146,o),
(484,16,o),
(326,16,cs),
(180,16,o),
(102,128,o),
(102,344,cs),
(102,560,o),
(180,672,o),
(324,672,cs),
(398,672,o),
(459,643,o),
(470,603,c),
(484,598,o),
(495,606,o),
(495,619,cs),
(495,653,o),
(423,700,o),
(322,700,cs),
(160,700,o),
(70,578,o),
(70,343,cs),
(70,110,o),
(159,-12,o),
(327,-12,cs)
);
}
);
width = 599;
},
{
anchors = (
{
name = bottom;
pos = (345,0);
},
{
name = top;
pos = (344,698);
}
);
layerId = "EBFFFCD3-BAE4-48A5-9442-B72A90AD34A8";
shapes = (
{
closed = 1;
nodes = (
(483,-14,o),
(610,70,o),
(610,257,cs),
(610,352,o),
(561,398,o),
(492,398,cs),
(457,398,o),
(422,385,o),
(409,357,c),
(460,332,o),
(468,273,o),
(468,222,cs),
(468,144,o),
(449,33,o),
(354,33,cs),
(247,33,o),
(201,138,o),
(201,349,cs),
(201,560,o),
(248,665,o),
(358,665,cs),
(419,665,o),
(455,617,o),
(465,511,c),
(539,510,o),
(577,551,o),
(577,592,cs),
(577,669,o),
(460,712,o),
(356,712,cs),
(162,712,o),
(47,580,o),
(47,349,cs),
(47,118,o),
(157,-14,o),
(346,-14,cs)
);
}
);
width = 656;
}
);
metricLeft = O;
unicode = 71;
},
{
color = 6;
glyphname = H;
kernLeft = H;
kernRight = H;
layers = (
{
anchors = (
{
name = bottom;
pos = (342,0);
},
{
name = center;
pos = (331,344);
},
{
name = top;
pos = (331,688);
},
{
name = topleft;
pos = (20,688);
}
);
layerId = "60CFBDE8-BC08-4808-BF41-F011F3E03A54";
shapes = (
{
closed = 1;
nodes = (
(138,673,ls),
(138,687,o),
(130,695,o),
(119,695,cs),
(110,695,o),
(105,691,o),
(101,687,c),
(105,671,o),
(107,640,o),
(107,600,cs),
(109,14,ls),
(109,0,o),
(115,-8,o),
(126,-8,cs),
(135,-8,o),
(140,-4,o),
(144,0,c),
(140,16,o),
(138,47,o),
(138,87,cs)
);
},
{
closed = 1;
nodes = (
(555,673,ls),
(555,687,o),
(547,695,o),
(536,695,cs),
(527,695,o),
(522,691,o),
(518,687,c),
(522,671,o),
(524,640,o),
(524,600,cs),
(526,14,ls),
(526,0,o),
(532,-8,o),
(543,-8,cs),
(552,-8,o),
(557,-4,o),
(561,0,c),
(557,16,o),
(555,47,o),
(555,87,cs)
);
},
{
closed = 1;
nodes = (
(130,354,l),
(541,354,l),
(541,380,l),
(130,380,l)
);
}
);
width = 662;
},
{
anchors = (
{
name = bottom;
pos = (351,0);
},
{
name = center;
pos = (351,349);
},
{
name = top;
pos = (351,698);
},
{
name = topleft;
pos = (20,698);
}
);
layerId = "EBFFFCD3-BAE4-48A5-9442-B72A90AD34A8";
shapes = (
{
closed = 1;
nodes = (
(223,641,ls),
(223,685,o),
(188,711,o),
(143,711,cs),
(104,711,o),
(75,692,o),
(63,681,c),
(80,636,o),
(83,589,o),
(83,551,cs),
(83,56,ls),
(83,12,o),
(117,-15,o),
(163,-15,cs),
(202,-15,o),
(231,5,o),
(243,16,c),
(225,60,o),
(223,108,o),
(223,146,cs)
);
},
{
closed = 1;
nodes = (
(618,641,ls),
(618,685,o),
(583,711,o),
(538,711,cs),
(499,711,o),
(470,692,o),
(458,681,c),
(475,636,o),
(478,589,o),
(478,551,cs),
(478,56,ls),
(478,12,o),
(512,-15,o),
(558,-15,cs),
(597,-15,o),
(626,5,o),
(638,16,c),
(620,60,o),
(618,108,o),
(618,146,cs)
);
},
{
closed = 1;
nodes = (
(169,327,l),
(520,327,l),
(520,401,l),
(169,401,l)
);
}
);
width = 701;
}
);
unicode = 72;
},
{
color = 3;
glyphname = Hbar;
kernLeft = H;
kernRight = H;
layers = (
{
layerId = "60CFBDE8-BC08-4808-BF41-F011F3E03A54";
shapes = (
{
closed = 1;
nodes = (
(52,570,o),
(52,561,o),
(56,553,c),
(605,553,l),
(609,561,o),
(609,570,o),
(605,578,c),
(56,578,l)
);
},
{
ref = H;
}
);
width = 662;
},
{
layerId = "EBFFFCD3-BAE4-48A5-9442-B72A90AD34A8";
shapes = (
{
closed = 1;
nodes = (
(26,549,o),
(26,532,o),
(32,515,c),
(661,515,l),
(667,532,o),
(667,549,o),
(661,566,c),
(32,566,l)
);
},
{
ref = H;
}
);
width = 701;
}
);
unicode = 294;
},
{
color = 6;
glyphname = I;
kernLeft = H;
kernRight = H;
layers = (
{
anchors = (
{
name = bottom;
pos = (123,0);
},
{
name = ogonek;
pos = (124,-1);
},
{
name = top;
pos = (119,688);
},
{
name = topleft;
pos = (20,688);
}
);
layerId = "60CFBDE8-BC08-4808-BF41-F011F3E03A54";
shapes = (
{
closed = 1;
nodes = (
(135,-8,o),
(140,-4,o),
(144,0,c),
(140,16,o),
(138,47,o),
(138,87,cs),
(138,673,ls),
(138,687,o),
(130,695,o),
(119,695,cs),
(110,695,o),
(105,691,o),
(101,687,c),
(105,671,o),
(107,640,o),
(107,600,cs),
(109,14,ls),
(109,0,o),
(115,-8,o),
(126,-8,cs)
);
}
);
width = 245;
},
{
anchors = (
{
name = bottom;
pos = (167,0);
},
{
name = ogonek;
pos = (173,-8);
},
{
name = top;
pos = (139,698);
},
{
name = topleft;
pos = (20,698);
}
);
layerId = "EBFFFCD3-BAE4-48A5-9442-B72A90AD34A8";
shapes = (
{
closed = 1;
nodes = (
(202,-15,o),
(231,5,o),
(243,16,c),
(225,60,o),
(223,108,o),
(223,146,cs),
(223,641,ls),
(223,685,o),
(188,711,o),
(143,711,cs),
(104,711,o),
(75,692,o),
(63,681,c),
(80,636,o),
(83,589,o),
(83,551,cs),
(83,56,ls),
(83,12,o),
(117,-15,o),
(163,-15,cs)
);
}
);
width = 306;
}
);
metricLeft = H;
metricRight = H;
unicode = 73;
},
{
color = 6;
glyphname = J;
kernLeft = J;
kernRight = J;
layers = (
{
anchors = (
{
name = bottom;
pos = (212,0);
},
{
name = top;
pos = (212,688);
}
);
layerId = "60CFBDE8-BC08-4808-BF41-F011F3E03A54";
shapes = (
{
closed = 1;
nodes = (
(303,-12,o),
(317,91,o),
(317,161,cs),
(317,631,ls),
(317,653,o),
(317,676,o),
(320,698,c),
(305,696,o),
(287,693,o),
(258,694,cs),
(223,695,o),
(162,700,o),
(145,700,cs),
(104,700,o),
(84,672,o),
(84,646,cs),
(84,615,o),
(102,594,o),
(121,594,cs),
(125,594,o),
(133,594,o),
(139,599,c),
(122,607,o),
(112,618,o),
(112,640,cs),
(112,676,o),
(142,679,o),
(163,677,cs),
(213,674,o),
(246,671,o),
(287,672,c),
(287,659,o),
(287,646,o),
(287,633,c),
(287,164,ls),
(287,72,o),
(265,16,o),
(172,16,cs),
(135,16,o),
(80,35,o),
(80,100,cs),
(80,107,o),
(80,114,o),
(82,122,c),
(81,122,o),
(80,122,o),
(79,122,cs),
(60,122,o),
(53,104,o),
(53,90,cs),
(53,37,o),
(95,-12,o),
(174,-12,cs)
);
}
);
width = 419;
},
{
anchors = (
{
name = bottom;
pos = (252,0);
},
{
name = top;
pos = (252,698);
}
);
layerId = "EBFFFCD3-BAE4-48A5-9442-B72A90AD34A8";
shapes = (
{
closed = 1;
nodes = (
(368,-14,o),
(420,76,o),
(420,199,cs),
(420,633,ls),
(420,677,o),
(423,697,o),
(426,712,c),
(398,709,o),
(360,706,o),
(321,706,cs),
(259,707,o),
(211,712,o),
(172,712,cs),
(95,712,o),
(54,679,o),
(54,625,cs),
(54,570,o),
(96,542,o),
(136,542,cs),
(158,542,o),
(178,547,o),
(192,558,c),
(176,568,o),
(160,587,o),
(160,618,cs),
(160,650,o),
(186,659,o),
(210,659,cs),
(227,658,o),
(268,657,o),
(289,656,c),
(280,642,o),
(280,618,o),
(280,591,c),
(280,182,ls),
(280,103,o),
(272,33,o),
(214,33,cs),
(181,33,o),
(159,65,o),
(159,99,cs),
(159,121,o),
(164,141,o),
(175,162,c),
(163,183,o),
(145,192,o),
(116,192,cs),
(61,192,o),
(37,148,o),
(37,103,cs),
(37,45,o),
(82,-14,o),
(214,-14,cs)
);
}
);
width = 499;
}
);
unicode = 74;
},
{
color = 6;
glyphname = K;
kernLeft = H;
kernRight = K;
layers = (
{
anchors = (
{
name = bottom;
pos = (281,0);
},
{
name = top;
pos = (281,688);
}
);
layerId = "60CFBDE8-BC08-4808-BF41-F011F3E03A54";
shapes = (
{
closed = 1;
nodes = (
(509,-8,o),
(536,1,o),
(536,22,cs),
(536,27,o),
(535,32,o),
(531,37,c),
(522,22,o),
(505,20,o),
(498,20,cs),
(483,20,o),
(470,29,o),
(460,61,cs),
(410,223,ls),
(388,292,o),
(347,345,o),
(247,355,c),
(241,344,l),
(394,387,o),
(452,516,o),
(452,621,cs),
(452,677,o),
(437,699,o),
(422,699,cs),
(415,699,o),
(408,694,o),
(402,687,c),
(409,676,o),
(420,655,o),
(420,614,cs),
(420,503,o),
(332,361,o),
(171,361,cs),
(159,361,o),
(142,361,o),
(130,361,c),
(131,335,l),
(171,335,ls),
(331,335,o),
(355,283,o),
(379,221,cs),
(434,45,ls),
(444,12,o),
(471,-8,o),
(494,-8,cs)
);
},
{
closed = 1;
nodes = (
(135,-8,o),
(140,-4,o),
(144,0,c),
(140,16,o),
(138,47,o),
(138,87,c),
(136,673,l),
(136,687,o),
(130,695,o),
(119,695,cs),
(110,695,o),
(105,691,o),
(101,687,c),
(105,671,o),
(107,640,o),
(107,600,cs),
(109,14,ls),
(109,0,o),
(115,-8,o),
(126,-8,cs)
);
}
);
width = 554;
},
{
anchors = (
{
name = bottom;
pos = (335,0);
},
{
name = top;
pos = (312,698);
}
);
layerId = "EBFFFCD3-BAE4-48A5-9442-B72A90AD34A8";
shapes = (
{
closed = 1;
nodes = (
(571,-16,o),
(605,18,o),
(605,60,cs),
(605,71,o),
(602,84,o),
(597,98,c),
(588,92,o),
(581,90,o),
(573,91,cs),
(550,93,o),
(539,109,o),
(515,156,cs),
(471,258,ls),
(445,317,o),
(404,349,o),
(309,353,c),
(307,342,l),
(475,397,o),
(544,509,o),
(544,605,cs),
(544,691,o),
(490,706,o),
(448,706,cs),
(426,706,o),
(411,702,o),
(391,694,c),
(398,683,o),
(409,655,o),
(409,614,cs),
(409,531,o),
(357,405,o),
(245,370,cs),
(234,366,o),
(221,363,o),
(208,361,c),
(209,313,l),
(238,313,ls),
(308,313,o),
(333,257,o),
(348,214,cs),
(375,132,ls),
(399,68,o),
(430,-16,o),
(516,-16,cs)
);
},
{
closed = 1;
nodes = (
(202,-15,o),
(231,5,o),
(243,16,c),
(225,60,o),
(223,108,o),
(223,146,c),
(222,641,l),
(222,685,o),
(188,711,o),
(143,711,cs),
(104,711,o),
(75,692,o),
(63,681,c),
(80,636,o),
(83,589,o),
(83,551,cs),
(83,56,ls),
(83,12,o),
(117,-15,o),
(163,-15,cs)
);
}
);
width = 621;
}
);
metricLeft = H;
unicode = 75;
},
{
color = 6;
glyphname = L;
kernLeft = H;
kernRight = L;
layers = (
{
anchors = (
{
name = bottom;
pos = (261,0);
},
{
name = center;
pos = (228,344);
},
{
name = top;
pos = (136,687);
},
{
name = topright;
pos = (436,688);
}
);
layerId = "60CFBDE8-BC08-4808-BF41-F011F3E03A54";
shapes = (
{
closed = 1;
nodes = (
(136,687,o),
(130,695,o),
(119,695,cs),
(110,695,o),
(105,691,o),
(101,687,c),
(105,671,o),
(107,640,o),
(107,600,cs),
(109,22,ls),
(109,8,o),
(115,0,o),
(126,0,cs),
(413,0,l),
(425,0,o),
(423,22,o),
(413,26,c),
(321,26,o),
(230,25,o),
(138,25,c),
(136,673,ls)
);
}
);
width = 456;
},
{
anchors = (
{
name = bottom;
pos = (282,0);
},
{
name = center;
pos = (254,349);
},
{
name = top;
pos = (165,698);
},
{
name = topright;
pos = (297,698);
}
);
layerId = "EBFFFCD3-BAE4-48A5-9442-B72A90AD34A8";
shapes = (
{
closed = 1;
nodes = (
(222,685,o),
(188,711,o),
(143,711,cs),
(104,711,o),
(75,692,o),
(63,681,c),
(80,636,o),
(83,589,o),
(83,551,cs),
(83,71,ls),
(83,26,o),
(117,0,o),
(163,0,cs),
(459,0,l),
(504,0,o),
(502,110,o),
(467,133,c),
(416,103,o),
(310,76,o),
(223,74,c),
(222,641,ls)
);
}
);
width = 508;
}
);
metricLeft = H;
unicode = 76;
},
{
color = 3;
glyphname = Lslash;
kernLeft = H;
kernRight = L;
layers = (
{
layerId = "60CFBDE8-BC08-4808-BF41-F011F3E03A54";
shapes = (
{
closed = 1;
nodes = (
(39,176,o),
(45,171,o),
(55,169,c),
(277,389,l),
(274,398,o),
(268,404,o),
(259,407,c),
(37,186,l)
);
},
{
ref = L;
}
);
width = 456;
},
{
layerId = "EBFFFCD3-BAE4-48A5-9442-B72A90AD34A8";
shapes = (
{
closed = 1;
nodes = (
(5,146,o),
(17,133,o),
(34,129,c),
(354,450,l),
(350,468,o),
(337,481,o),
(318,486,c),
(-1,165,l)
);
},
{
ref = L;
}
);
width = 508;
}
);
unicode = 321;
},
{
color = 6;
glyphname = M;
kernLeft = H;
kernRight = H;
layers = (
{
anchors = (
{
name = bottom;
pos = (425,0);
},
{
name = top;
pos = (425,688);
}
);
layerId = "60CFBDE8-BC08-4808-BF41-F011F3E03A54";
shapes = (
{
closed = 1;
nodes = (
(741,673,l),
(741,687,o),
(735,695,o),
(724,695,cs),
(719,695,o),
(713,694,o),
(709,691,c),
(615,515,o),
(520,332,o),
(426,156,c),
(434,161,l),
(334,336,o),
(232,511,o),
(132,686,c),
(129,692,o),
(124,695,o),
(117,695,cs),
(109,695,o),
(105,691,o),
(101,687,c),
(105,671,o),
(107,640,o),
(107,600,cs),
(109,14,ls),
(109,0,o),
(114,-8,o),
(124,-8,cs),
(133,-8,o),
(138,-4,o),
(142,0,c),
(138,16,o),
(136,47,o),
(136,87,c),
(134,635,l),
(130,629,l),
(225,466,o),
(320,299,o),
(415,136,c),
(425,129,o),
(436,129,o),
(446,136,c),
(718,645,l),
(712,647,l),
(714,14,ls),
(714,0,o),
(720,-8,o),
(731,-8,cs),
(740,-8,o),
(745,-4,o),
(749,0,c),
(745,16,o),
(743,47,o),
(743,87,cs)
);
}
);
width = 850;
},
{
anchors = (
{
name = bottom;
pos = (426,0);
},
{
name = top;
pos = (426,698);
}
);
layerId = "EBFFFCD3-BAE4-48A5-9442-B72A90AD34A8";
shapes = (
{
closed = 1;
nodes = (
(768,683,l),
(763,697,o),
(723,711,o),
(681,711,cs),
(662,711,o),
(626,710,o),
(592,698,c),
(548,554,o),
(467,319,o),
(415,168,c),
(436,165,l),
(373,330,o),
(309,508,o),
(244,686,c),
(227,703,o),
(206,711,o),
(171,711,cs),
(116,711,o),
(86,705,o),
(74,694,c),
(80,653,o),
(81,614,o),
(81,554,cs),
(81,40,ls),
(81,7,o),
(93,-15,o),
(127,-15,cs),
(145,-15,o),
(164,-9,o),
(176,2,c),
(159,47,o),
(156,108,o),
(156,145,c),
(155,573,l),
(138,601,l),
(191,425,o),
(270,220,o),
(339,73,c),
(378,58,o),
(416,61,o),
(467,78,c),
(653,601,l),
(632,552,l),
(633,56,ls),
(633,12,o),
(665,-15,o),
(708,-15,cs),
(747,-15,o),
(776,5,o),
(788,16,c),
(771,60,o),
(768,108,o),
(768,146,cs)
);
}
);
width = 851;
}
);
metricRight = H;
unicode = 77;
},
{
color = 6;
glyphname = N;
kernLeft = H;
kernRight = H;
layers = (
{
anchors = (
{
name = bottom;
pos = (334,0);
},
{
name = top;
pos = (332,688);
}
);
layerId = "60CFBDE8-BC08-4808-BF41-F011F3E03A54";
shapes = (
{
closed = 1;
nodes = (
(132,-8,o),
(138,0,o),
(138,14,cs),
(136,629,l),
(243,460,o),
(473,90,o),
(542,-5,c),
(548,-7,o),
(561,-6,o),
(566,0,c),
(564,16,o),
(564,47,o),
(564,87,cs),
(562,673,ls),
(562,687,o),
(556,695,o),
(545,695,cs),
(536,695,o),
(531,691,o),
(527,687,c),
(531,671,o),
(533,640,o),
(533,600,cs),
(535,53,l),
(423,221,o),
(228,547,o),
(133,688,c),
(130,691,o),
(113,696,o),
(101,687,c),
(105,671,o),
(107,630,o),
(107,590,cs),
(109,87,ls),
(109,47,o),
(107,16,o),
(103,0,c),
(107,-4,o),
(112,-8,o),
(121,-8,cs)
);
}
);
width = 667;
},
{
anchors = (
{
name = bottom;
pos = (352,0);
},
{
name = top;
pos = (352,698);
}
);
layerId = "EBFFFCD3-BAE4-48A5-9442-B72A90AD34A8";
shapes = (
{
closed = 1;
nodes = (
(154,-15,o),
(193,17,o),
(189,65,cs),
(159,497,l),
(208,401,o),
(296,267,o),
(532,-8,c),
(555,-20,o),
(612,-13,o),
(626,3,c),
(620,44,o),
(619,83,o),
(619,143,cs),
(620,564,ls),
(620,596,o),
(621,653,o),
(636,695,cs),
(620,706,o),
(598,711,o),
(579,710,c),
(531,707,o),
(508,671,o),
(513,619,cs),
(549,179,l),
(504,284,o),
(293,533,o),
(172,704,c),
(160,716,o),
(91,712,o),
(76,694,c),
(81,653,o),
(83,612,o),
(83,552,cs),
(83,146,ls),
(83,109,o),
(80,48,o),
(63,3,c),
(79,-8,o),
(100,-15,o),
(120,-15,cs)
);
}
);
width = 699;
}
);
metricLeft = H;
metricRight = H;
unicode = 78;
},
{
color = 6;
glyphname = O;
kernLeft = O;
kernRight = O;
layers = (
{
anchors = (
{
name = bottom;
pos = (319,0);
},
{
name = center;
pos = (319,344);
},
{
name = ogonek;
pos = (566,10);
},
{
name = top;
pos = (319,688);
},
{
name = topleft;
pos = (30,688);
},
{
name = topright;
pos = (513,623);
}
);
layerId = "60CFBDE8-BC08-4808-BF41-F011F3E03A54";
shapes = (
{
closed = 1;
nodes = (
(476,-12,o),
(568,100,o),
(568,344,cs),
(568,588,o),
(476,700,o),
(319,700,cs),
(162,700,o),
(70,588,o),
(70,344,cs),
(70,100,o),
(162,-12,o),
(319,-12,cs)
);
},
{
closed = 1;
nodes = (
(183,16,o),
(102,118,o),
(102,344,cs),
(102,570,o),
(183,672,o),
(319,672,cs),
(455,672,o),
(536,570,o),
(536,344,cs),
(536,118,o),
(455,16,o),
(319,16,cs)
);
}
);
width = 638;
},
{
anchors = (
{
name = bottom;
pos = (333,0);
},
{
name = center;
pos = (333,349);
},
{
name = ogonek;
pos = (598,10);
},
{
name = top;
pos = (333,698);
},
{
name = topleft;
pos = (22,698);
},
{
name = topright;
pos = (511,653);
}
);
layerId = "EBFFFCD3-BAE4-48A5-9442-B72A90AD34A8";
shapes = (
{
closed = 1;
nodes = (
(521,-14,o),
(619,108,o),
(619,349,cs),
(619,590,o),
(521,712,o),
(333,712,cs),
(145,712,o),
(47,590,o),
(47,349,cs),
(47,108,o),
(145,-14,o),
(333,-14,cs)
);
},
{
closed = 1;
nodes = (
(241,33,o),
(201,128,o),
(201,349,cs),
(201,570,o),
(241,665,o),
(333,665,cs),
(426,665,o),
(465,570,o),
(465,349,cs),
(465,128,o),
(426,33,o),
(333,33,cs)
);
}
);
width = 666;
}
);
unicode = 79;
},
{
color = 6;
glyphname = Ohorn;
kernLeft = O;
kernRight = O;
layers = (
{
anchors = (
{
name = bottom;
pos = (300,0);
},
{
name = center;
pos = (319,344);
},
{
name = ogonek;
pos = (566,10);
},
{
name = top;
pos = (300,688);
},
{
name = topleft;
pos = (30,688);
},
{
name = topright;
pos = (512,623);
}
);
layerId = "60CFBDE8-BC08-4808-BF41-F011F3E03A54";
shapes = (
{
closed = 1;
nodes = (
(476,-12,o),
(568,100,o),
(568,344,cs),
(568,588,o),
(476,700,o),
(319,700,cs),
(162,700,o),
(70,588,o),
(70,344,cs),
(70,100,o),
(162,-12,o),
(319,-12,cs)
);
},
{
closed = 1;
nodes = (
(183,16,o),
(102,118,o),
(102,344,cs),
(102,570,o),
(183,672,o),
(319,672,cs),
(455,672,o),
(536,570,o),
(536,344,cs),
(536,118,o),
(455,16,o),
(319,16,cs)
);
},
{
closed = 1;
nodes = (
(545,618,o),
(574,643,o),
(574,686,cs),
(574,703,o),
(568,728,o),
(551,746,c),
(538,741,o),
(526,732,o),
(518,725,c),
(534,706,o),
(536,689,o),
(536,680,cs),
(536,655,o),
(521,639,o),
(485,626,c),
(494,603,l)
);
}
);
width = 638;
},
{
anchors = (
{
name = bottom;
pos = (328,0);
},
{
name = center;
pos = (333,349);
},
{
name = ogonek;
pos = (598,10);
},
{
name = top;
pos = (331,698);
},
{
name = topleft;
pos = (22,698);
},
{
name = topright;
pos = (516,653);
}
);
layerId = "EBFFFCD3-BAE4-48A5-9442-B72A90AD34A8";
shapes = (
{
closed = 1;
nodes = (
(521,-14,o),
(619,108,o),
(619,349,cs),
(619,590,o),
(521,712,o),
(333,712,cs),
(145,712,o),
(47,590,o),
(47,349,cs),
(47,108,o),
(145,-14,o),
(333,-14,cs)
);
},
{
closed = 1;
nodes = (
(241,33,o),
(201,128,o),
(201,349,cs),
(201,570,o),
(241,665,o),
(333,665,cs),
(426,665,o),
(465,570,o),
(465,349,cs),
(465,128,o),
(426,33,o),
(333,33,cs)
);
},
{
closed = 1;
nodes = (
(567,645,o),
(632,687,o),
(632,742,cs),
(632,776,o),
(616,812,o),
(604,825,c),
(579,822,o),
(530,800,o),
(512,787,c),
(523,775,o),
(535,752,o),
(535,729,cs),
(535,704,o),
(522,679,o),
(477,663,c),
(494,620,l)
);
}
);
width = 666;
}
);
unicode = 416;
},
{
color = 6;
glyphname = Oslash;
kernLeft = O;
kernRight = O;
layers = (
{
anchors = (
{
name = bottom;
pos = (309,0);
},
{
name = center;
pos = (319,344);
},
{
name = ogonek;
pos = (566,10);
},
{
name = top;
pos = (309,688);
},
{
name = topleft;
pos = (30,688);
},
{
name = topright;
pos = (513,623);
}
);
layerId = "60CFBDE8-BC08-4808-BF41-F011F3E03A54";
shapes = (
{
closed = 1;
nodes = (
(92,-9,o),
(100,-13,o),
(110,-13,c),
(517,688,l),
(513,696,o),
(506,701,o),
(496,701,c),
(88,-1,l)
);
},
{
closed = 1;
nodes = (
(476,-12,o),
(568,100,o),
(568,344,cs),
(568,588,o),
(476,700,o),
(319,700,cs),
(162,700,o),
(70,588,o),
(70,344,cs),
(70,100,o),
(162,-12,o),
(319,-12,cs)
);
},
{
closed = 1;
nodes = (
(183,16,o),
(102,118,o),
(102,344,cs),
(102,570,o),
(183,672,o),
(319,672,cs),
(455,672,o),
(536,570,o),
(536,344,cs),
(536,118,o),
(455,16,o),
(319,16,cs)
);
}
);
width = 618;
},
{
anchors = (
{
name = bottom;
pos = (331,0);
},
{
name = center;
pos = (333,349);
},
{
name = ogonek;
pos = (598,10);
},
{
name = top;
pos = (331,698);
},
{
name = topleft;
pos = (22,698);
},
{
name = topright;
pos = (511,653);
}
);
layerId = "EBFFFCD3-BAE4-48A5-9442-B72A90AD34A8";
shapes = (
{
closed = 1;
nodes = (
(92,-7,o),
(106,-15,o),
(125,-15,c),
(558,706,l),
(549,723,o),
(535,732,o),
(515,731,c),
(82,10,l)
);
},
{
closed = 1;
nodes = (
(521,-14,o),
(619,108,o),
(619,349,cs),
(619,590,o),
(521,712,o),
(333,712,cs),
(145,712,o),
(47,590,o),
(47,349,cs),
(47,108,o),
(145,-14,o),
(333,-14,cs)
);
},
{
closed = 1;
nodes = (
(241,33,o),
(201,128,o),
(201,349,cs),
(201,570,o),
(241,665,o),
(333,665,cs),
(426,665,o),
(465,570,o),
(465,349,cs),
(465,128,o),
(426,33,o),
(333,33,cs)
);
}
);
width = 662;
}
);
unicode = 216;
},
{
color = 6;
glyphname = OE;
kernLeft = O;
kernRight = E;
layers = (
{
anchors = (
{
name = top;
pos = (435,688);
}
);
layerId = "60CFBDE8-BC08-4808-BF41-F011F3E03A54";
shapes = (
{
closed = 1;
nodes = (
(471,85,l),
(434,38,o),
(383,16,o),
(319,16,cs),
(183,16,o),
(102,118,o),
(102,344,cs),
(102,570,o),
(183,672,o),
(319,672,cs),
(380,672,o),
(430,651,o),
(467,608,c),
(470,649,l),
(431,683,o),
(380,700,o),
(319,700,cs),
(162,700,o),
(70,588,o),
(70,344,cs),
(70,100,o),
(162,-12,o),
(319,-12,cs),
(382,-12,o),
(435,6,o),
(475,44,c)
);
},
{
closed = 1;
nodes = (
(789,0,l),
(801,0,o),
(799,22,o),
(789,26,c),
(687,26,o),
(586,25,o),
(484,25,c),
(482,662,l),
(584,662,o),
(674,662,o),
(776,662,c),
(787,665,o),
(793,688,o),
(779,688,c),
(465,688,ls),
(456,688,o),
(451,685,o),
(447,680,c),
(451,664,o),
(453,640,o),
(453,600,cs),
(455,22,ls),
(455,8,o),
(461,0,o),
(472,0,cs)
);
},
{
closed = 1;
nodes = (
(757,354,l),
(760,363,o),
(760,371,o),
(757,380,c),
(477,380,l),
(477,354,l)
);
}
);
width = 869;
},
{
anchors = (
{
name = top;
pos = (459,698);
}
);
layerId = "EBFFFCD3-BAE4-48A5-9442-B72A90AD34A8";
shapes = (
{
closed = 1;
nodes = (
(467,279,l),
(459,101,o),
(411,33,o),
(333,33,cs),
(241,33,o),
(201,128,o),
(201,349,cs),
(201,570,o),
(241,665,o),
(333,665,cs),
(409,665,o),
(445,618,o),
(453,461,c),
(545,456,l),
(522,619,o),
(486,712,o),
(333,712,cs),
(145,712,o),
(47,590,o),
(47,349,cs),
(47,108,o),
(145,-14,o),
(333,-14,cs),
(492,-14,o),
(526,106,o),
(546,280,c)
);
},
{
closed = 1;
nodes = (
(848,0,l),
(893,0,o),
(891,103,o),
(856,125,c),
(803,98,o),
(678,69,o),
(590,66,c),
(589,632,l),
(676,629,o),
(762,608,o),
(831,576,c),
(868,593,o),
(884,698,o),
(846,698,c),
(557,698,ls),
(494,698,o),
(465,693,o),
(430,663,c),
(447,618,o),
(450,572,o),
(450,533,cs),
(450,71,ls),
(450,26,o),
(484,0,o),
(530,0,cs)
);
},
{
closed = 1;
nodes = (
(801,324,l),
(806,345,o),
(808,373,o),
(801,398,c),
(564,398,l),
(564,324,l)
);
}
);
width = 921;
}
);
metricLeft = O;
metricRight = E;
unicode = 338;
},
{
color = 6;
glyphname = P;
kernLeft = H;
layers = (
{
anchors = (
{
name = bottom;
pos = (267,0);
},
{
name = top;
pos = (267,688);
}
);
layerId = "60CFBDE8-BC08-4808-BF41-F011F3E03A54";
shapes = (
{
closed = 1;
nodes = (
(136,-8,o),
(141,-4,o),
(145,0,c),
(140,17,o),
(138,78,o),
(138,87,cs),
(138,670,l),
(148,673,o),
(169,674,o),
(194,674,cs),
(367,674,o),
(442,624,o),
(442,498,cs),
(442,364,o),
(356,307,o),
(180,307,cs),
(141,307,o),
(129,307,o),
(116,309,c),
(123,283,l),
(137,282,o),
(150,282,o),
(169,282,cs),
(376,282,o),
(474,348,o),
(474,499,cs),
(474,632,o),
(397,700,o),
(203,700,cs),
(125,700,o),
(104,689,o),
(101,687,c),
(106,670,o),
(108,609,o),
(108,600,cs),
(108,14,ls),
(109,0,o),
(115,-8,o),
(127,-8,cs)
);
}
);
width = 535;
},
{
anchors = (
{
name = bottom;
pos = (293,0);
},
{
name = top;
pos = (293,698);
}
);
layerId = "EBFFFCD3-BAE4-48A5-9442-B72A90AD34A8";
shapes = (
{
closed = 1;
nodes = (
(202,-15,o),
(231,5,o),
(243,16,c),
(225,57,o),
(223,105,o),
(223,138,cs),
(223,663,l),
(231,664,o),
(241,664,o),
(252,664,cs),
(364,664,o),
(401,594,o),
(401,495,cs),
(401,391,o),
(362,317,o),
(239,317,cs),
(223,317,o),
(211,317,o),
(198,319,c),
(205,271,l),
(219,270,o),
(232,270,o),
(246,270,cs),
(443,270,o),
(554,355,o),
(554,505,cs),
(554,653,o),
(444,712,o),
(249,712,cs),
(166,712,o),
(105,701,o),
(63,681,c),
(80,636,o),
(83,583,o),
(83,551,cs),
(83,56,ls),
(83,12,o),
(117,-15,o),
(163,-15,cs)
);
}
);
width = 586;
}
);
metricLeft = H;
unicode = 80;
},
{
color = 6;
glyphname = Thorn;
kernLeft = H;
layers = (
{
anchors = (
{
name = bottom;
pos = (300,0);
},
{
name = top;
pos = (300,688);
}
);
layerId = "60CFBDE8-BC08-4808-BF41-F011F3E03A54";
shapes = (
{
closed = 1;
nodes = (
(376,152,o),
(474,218,o),
(474,369,cs),
(474,502,o),
(397,570,o),
(203,570,cs),
(183,570,o),
(137,569,o),
(123,568,c),
(122,542,l),
(133,544,o),
(178,544,o),
(194,544,cs),
(367,544,o),
(442,494,o),
(442,368,cs),
(442,234,o),
(356,177,o),
(180,177,cs),
(141,177,o),
(129,177,o),
(116,179,c),
(123,153,l),
(137,152,o),
(150,152,o),
(169,152,cs)
);
},
{
closed = 1;
nodes = (
(135,-8,o),
(140,-4,o),
(144,0,c),
(140,16,o),
(138,47,o),
(138,87,cs),
(136,673,ls),
(136,687,o),
(130,695,o),
(119,695,cs),
(110,695,o),
(105,691,o),
(101,687,c),
(105,671,o),
(107,640,o),
(107,600,cs),
(109,14,ls),
(109,0,o),
(115,-8,o),
(126,-8,cs)
);
}
);
width = 534;
},
{
anchors = (
{
name = bottom;
pos = (300,0);
},
{
name = top;
pos = (300,698);
}
);
layerId = "EBFFFCD3-BAE4-48A5-9442-B72A90AD34A8";
shapes = (
{
closed = 1;
nodes = (
(442,140,o),
(553,225,o),
(553,375,cs),
(553,523,o),
(443,582,o),
(249,582,cs),
(238,582,o),
(204,582,o),
(194,582,c),
(194,535,l),
(203,536,o),
(243,534,o),
(252,534,cs),
(363,534,o),
(400,464,o),
(400,365,cs),
(400,261,o),
(362,187,o),
(239,187,cs),
(223,187,o),
(211,187,o),
(198,189,c),
(205,141,l),
(219,140,o),
(232,140,o),
(246,140,cs)
);
},
{
closed = 1;
nodes = (
(202,-15,o),
(231,5,o),
(243,16,c),
(225,60,o),
(223,108,o),
(223,146,cs),
(222,641,ls),
(222,685,o),
(188,711,o),
(143,711,cs),
(104,711,o),
(75,692,o),
(63,681,c),
(80,636,o),
(83,589,o),
(83,551,cs),
(83,56,ls),
(83,12,o),
(117,-15,o),
(163,-15,cs)
);
}
);
width = 586;
}
);
unicode = 222;
},
{
color = 6;
glyphname = Q;
kernLeft = O;
kernRight = O;
layers = (
{
anchors = (
{
name = bottom;
pos = (316,0);
},
{
name = top;
pos = (316,688);
}
);
layerId = "60CFBDE8-BC08-4808-BF41-F011F3E03A54";
shapes = (
{
closed = 1;
nodes = (
(557,-134,o),
(603,-102,o),
(603,-46,cs),
(603,-33,o),
(592,-18,o),
(574,-22,c),
(582,-74,o),
(539,-106,o),
(481,-106,cs),
(407,-108,o),
(334,-53,o),
(271,-7,c),
(283,-10,o),
(306,-12,o),
(319,-12,cs),
(476,-12,o),
(568,100,o),
(568,344,cs),
(568,588,o),
(476,700,o),
(319,700,cs),
(162,700,o),
(70,588,o),
(70,344,cs),
(70,184,o),
(113,81,o),
(192,21,cs),
(268,-37,o),
(370,-137,o),
(484,-134,cs)
);
},
{
closed = 1;
nodes = (
(183,16,o),
(102,118,o),
(102,344,cs),
(102,570,o),
(183,672,o),
(319,672,cs),
(455,672,o),
(536,570,o),
(536,344,cs),
(536,118,o),
(455,16,o),
(319,16,cs)
);
}
);
width = 638;
},
{
anchors = (
{
name = bottom;
pos = (335,0);
},
{
name = top;
pos = (335,698);
}
);
layerId = "EBFFFCD3-BAE4-48A5-9442-B72A90AD34A8";
shapes = (
{
closed = 1;
nodes = (
(621,-167,o),
(661,-125,o),
(661,-79,cs),
(661,-35,o),
(633,-9,o),
(589,-2,c),
(574,-42,o),
(515,-61,o),
(449,-61,cs),
(390,-61,o),
(323,-44,o),
(279,-7,c),
(299,-13,o),
(315,-14,o),
(336,-14,cs),
(511,-14,o),
(627,120,o),
(627,349,cs),
(627,590,o),
(520,712,o),
(337,712,cs),
(155,712,o),
(47,590,o),
(47,348,cs),
(47,144,o),
(133,37,o),
(249,-46,cs),
(340,-112,o),
(464,-167,o),
(550,-167,cs)
);
},
{
closed = 1;
nodes = (
(230,33,o),
(208,158,o),
(208,325,cs),
(208,550,o),
(238,665,o),
(336,665,cs),
(426,665,o),
(466,570,o),
(466,350,cs),
(466,126,o),
(425,33,o),
(334,33,cs)
);
}
);
width = 676;
}
);
metricLeft = O;
unicode = 81;
},
{
color = 6;
glyphname = R;
kernLeft = H;
kernRight = R;
layers = (
{
anchors = (
{
name = bottom;
pos = (286,0);
},
{
name = top;
pos = (252,688);
}
);
layerId = "60CFBDE8-BC08-4808-BF41-F011F3E03A54";
shapes = (
{
closed = 1;
nodes = (
(136,-8,o),
(141,-4,o),
(145,0,c),
(140,17,o),
(138,78,o),
(138,87,cs),
(138,670,l),
(150,673,o),
(173,674,o),
(206,674,cs),
(370,674,o),
(442,632,o),
(442,500,cs),
(442,388,o),
(349,328,o),
(249,328,cs),
(193,328,o),
(154,328,o),
(124,329,c),
(131,302,l),
(249,302,ls),
(355,302,o),
(371,250,o),
(391,200,cs),
(453,45,ls),
(466,12,o),
(490,-8,o),
(513,-8,cs),
(528,-8,o),
(555,1,o),
(555,22,cs),
(555,27,o),
(554,32,o),
(550,37,c),
(541,22,o),
(524,20,o),
(517,20,cs),
(502,20,o),
(492,29,o),
(479,61,cs),
(422,202,ls),
(398,262,o),
(372,321,o),
(307,321,c),
(312,312,l),
(406,329,o),
(474,401,o),
(474,505,cs),
(474,644,o),
(396,700,o),
(209,700,cs),
(130,700,o),
(104,689,o),
(101,687,c),
(106,670,o),
(108,609,o),
(108,600,cs),
(108,14,l),
(109,0,o),
(115,-8,o),
(127,-8,cs)
);
}
);
width = 572;
},
{
anchors = (
{
name = bottom;
pos = (343,0);
},
{
name = top;
pos = (309,698);
}
);
layerId = "EBFFFCD3-BAE4-48A5-9442-B72A90AD34A8";
shapes = (
{
closed = 1;
nodes = (
(202,-15,o),
(231,5,o),
(243,16,c),
(225,57,o),
(223,105,o),
(223,138,cs),
(223,664,l),
(235,665,o),
(249,665,o),
(266,665,cs),
(362,665,o),
(397,602,o),
(397,522,cs),
(397,432,o),
(354,360,o),
(261,357,cs),
(239,356,o),
(218,358,o),
(197,360,c),
(208,310,l),
(254,309,ls),
(321,308,o),
(340,264,o),
(360,214,cs),
(388,138,ls),
(426,43,o),
(449,-14,o),
(536,-14,cs),
(567,-14,o),
(618,9,o),
(618,62,cs),
(618,73,o),
(616,85,o),
(610,100,c),
(602,94,o),
(593,92,o),
(586,92,cs),
(566,93,o),
(549,114,o),
(529,162,cs),
(488,255,ls),
(456,311,o),
(418,348,o),
(315,346,c),
(296,327,l),
(447,325,o),
(550,403,o),
(550,531,cs),
(550,661,o),
(444,712,o),
(254,712,cs),
(165,712,o),
(105,701,o),
(63,681,c),
(80,636,o),
(83,583,o),
(83,551,cs),
(83,56,l),
(83,12,o),
(117,-15,o),
(163,-15,cs)
);
}
);
width = 630;
}
);
metricLeft = H;
unicode = 82;
},
{
color = 6;
glyphname = S;
kernLeft = S;
kernRight = S;
layers = (
{
anchors = (
{
name = bottom;
pos = (272,0);
},
{
name = top;
pos = (272,688);
}
);
layerId = "60CFBDE8-BC08-4808-BF41-F011F3E03A54";
shapes = (
{
closed = 1;
nodes = (
(444,-12,o),
(484,80,o),
(484,155,cs),
(484,257,o),
(409,313,o),
(288,377,cs),
(212,418,o),
(122,458,o),
(122,554,cs),
(122,643,o),
(200,672,o),
(278,672,cs),
(361,672,o),
(434,639,o),
(434,564,cs),
(434,556,o),
(433,547,o),
(428,538,c),
(438,535,o),
(445,535,o),
(452,539,cs),
(462,545,o),
(465,554,o),
(465,570,cs),
(465,649,o),
(390,700,o),
(280,700,cs),
(177,700,o),
(90,655,o),
(90,550,cs),
(90,451,o),
(167,408,o),
(271,351,cs),
(386,288,o),
(452,245,o),
(452,155,cs),
(452,63,o),
(382,16,o),
(274,16,cs),
(172,16,o),
(99,58,o),
(99,153,cs),
(99,169,o),
(101,176,o),
(104,186,c),
(75,189,o),
(66,174,o),
(66,142,cs),
(66,61,o),
(126,-12,o),
(276,-12,cs)
);
}
);
width = 543;
},
{
anchors = (
{
name = bottom;
pos = (284,0);
},
{
name = top;
pos = (289,698);
}
);
layerId = "EBFFFCD3-BAE4-48A5-9442-B72A90AD34A8";
shapes = (
{
closed = 1;
nodes = (
(450,-15,o),
(536,75,o),
(536,184,cs),
(536,305,o),
(435,366,o),
(342,417,cs),
(220,485,o),
(188,521,o),
(188,582,cs),
(188,647,o),
(241,665,o),
(282,665,cs),
(350,665,o),
(383,632,o),
(394,594,cs),
(401,576,o),
(404,555,o),
(403,534,c),
(415,532,o),
(430,531,o),
(441,532,cs),
(496,533,o),
(513,563,o),
(513,596,cs),
(513,674,o),
(424,712,o),
(298,712,cs),
(170,712,o),
(59,662,o),
(59,533,cs),
(59,416,o),
(137,361,o),
(265,288,cs),
(355,237,o),
(401,203,o),
(401,135,cs),
(401,66,o),
(352,34,o),
(293,34,cs),
(200,34,o),
(158,93,o),
(149,146,cs),
(146,163,o),
(145,183,o),
(149,199,c),
(61,212,o),
(34,172,o),
(34,126,cs),
(34,46,o),
(110,-15,o),
(273,-15,cs)
);
}
);
width = 568;
}
);
unicode = 83;
},
{
color = 6;
glyphname = Germandbls;
kernLeft = Germandbls;
layers = (
{
layerId = "60CFBDE8-BC08-4808-BF41-F011F3E03A54";
shapes = (
{
closed = 1;
nodes = (
(458,-12,o),
(517,62,o),
(517,172,cs),
(517,304,o),
(432,363,o),
(337,386,c),
(418,458,o),
(458,535,o),
(489,643,c),
(448,682,o),
(378,700,o),
(288,700,cs),
(155,700,o),
(85,636,o),
(85,428,cs),
(85,14,ls),
(85,-1,o),
(86,-8,o),
(98,-8,cs),
(110,-8,o),
(117,-2,o),
(119,0,c),
(115,25,o),
(114,42,o),
(114,418,cs),
(114,604,o),
(167,672,o),
(283,672,cs),
(366,672,o),
(420,660,o),
(458,636,c),
(438,552,o),
(388,463,o),
(307,392,c),
(307,367,l),
(385,344,o),
(485,313,o),
(485,172,cs),
(485,92,o),
(454,14,o),
(347,14,cs),
(279,14,o),
(251,45,o),
(245,77,c),
(232,85,o),
(215,81,o),
(215,66,cs),
(215,47,o),
(243,-12,o),
(344,-12,cs)
);
}
);
width = 571;
},
{
layerId = "EBFFFCD3-BAE4-48A5-9442-B72A90AD34A8";
shapes = (
{
closed = 1;
nodes = (
(532,-14,o),
(614,60,o),
(614,175,cs),
(614,297,o),
(527,350,o),
(445,374,c),
(515,444,o),
(554,548,o),
(577,667,c),
(516,712,o),
(408,728,o),
(333,728,cs),
(161,728,o),
(61,638,o),
(63,394,cs),
(64,67,ls),
(64,17,o),
(102,-11,o),
(142,-11,cs),
(178,-11,o),
(212,10,o),
(223,19,c),
(201,69,o),
(200,82,o),
(199,271,cs),
(197,583,o),
(202,683,o),
(330,683,cs),
(368,683,o),
(407,676,o),
(433,650,c),
(422,569,o),
(395,472,o),
(322,385,c),
(322,355,l),
(415,324,o),
(467,286,o),
(467,156,cs),
(467,101,o),
(457,30,o),
(400,30,cs),
(361,30,o),
(337,57,o),
(341,137,c),
(296,145,o),
(266,121,o),
(266,79,cs),
(266,34,o),
(309,-14,o),
(406,-14,cs)
);
}
);
width = 648;
}
);
unicode = 7838;
},
{
color = 6;
glyphname = T;
kernLeft = T;
kernRight = T;
layers = (
{
anchors = (
{
name = bottom;
pos = (259,0);
},
{
name = center;
pos = (252,344);
},
{
name = top;
pos = (252,688);
}
);
layerId = "60CFBDE8-BC08-4808-BF41-F011F3E03A54";
shapes = (
{
closed = 1;
nodes = (
(265,-8,o),
(270,-4,o),
(274,0,c),
(270,16,o),
(268,46,o),
(268,87,cs),
(267,677,l),
(237,675,l),
(239,14,ls),
(239,0,o),
(245,-8,o),
(256,-8,cs)
);
},
{
closed = 1;
nodes = (
(103,662,o),
(176,662,o),
(248,662,cs),
(322,662,o),
(397,662,o),
(472,662,c),
(483,665,o),
(489,688,o),
(475,688,c),
(29,688,l),
(15,688,o),
(21,665,o),
(32,662,c)
);
}
);
width = 503;
},
{
anchors = (
{
name = bottom;
pos = (294,0);
},
{
name = center;
pos = (279,349);
},
{
name = top;
pos = (279,698);
}
);
layerId = "EBFFFCD3-BAE4-48A5-9442-B72A90AD34A8";
shapes = (
{
closed = 1;
nodes = (
(328,-15,o),
(357,5,o),
(369,16,c),
(351,60,o),
(349,108,o),
(349,146,cs),
(348,665,l),
(209,677,l),
(209,56,ls),
(209,12,o),
(243,-15,o),
(289,-15,cs)
);
},
{
closed = 1;
nodes = (
(110,608,o),
(202,651,o),
(279,651,cs),
(355,651,o),
(449,608,o),
(508,576,c),
(546,593,o),
(562,698,o),
(524,698,c),
(34,698,l),
(-4,698,o),
(12,593,o),
(49,576,c)
);
}
);
width = 557;
}
);
unicode = 84;
},
{
color = 6;
glyphname = U;
kernLeft = U;
kernRight = U;
layers = (
{
anchors = (
{
name = bottom;
pos = (321,0);
},
{
name = ogonek;
pos = (391,6);
},
{
name = top;
pos = (321,688);
},
{
name = topright;
pos = (547,690);
}
);
layerId = "60CFBDE8-BC08-4808-BF41-F011F3E03A54";
shapes = (
{
closed = 1;
nodes = (
(547,687,o),
(541,695,o),
(530,695,cs),
(521,695,o),
(516,691,o),
(512,687,c),
(516,671,o),
(518,640,o),
(518,600,cs),
(518,304,ls),
(518,115,o),
(450,16,o),
(320,16,cs),
(190,16,o),
(130,107,o),
(130,304,cs),
(130,673,ls),
(130,687,o),
(124,695,o),
(113,695,cs),
(104,695,o),
(99,691,o),
(95,687,c),
(99,671,o),
(101,640,o),
(101,600,cs),
(101,304,ls),
(101,87,o),
(170,-12,o),
(320,-12,cs),
(469,-12,o),
(547,96,o),
(547,304,cs),
(547,673,ls)
);
}
);
width = 642;
},
{
anchors = (
{
name = bottom;
pos = (338,0);
},
{
name = ogonek;
pos = (398,-9);
},
{
name = top;
pos = (338,698);
},
{
name = topright;
pos = (533,697);
}
);
layerId = "EBFFFCD3-BAE4-48A5-9442-B72A90AD34A8";
shapes = (
{
closed = 1;
nodes = (
(603,685,o),
(568,711,o),
(524,711,cs),
(485,711,o),
(457,692,o),
(445,681,c),
(462,636,o),
(465,589,o),
(465,551,cs),
(465,300,ls),
(465,126,o),
(427,33,o),
(338,33,cs),
(255,33,o),
(219,111,o),
(219,300,cs),
(219,641,ls),
(219,685,o),
(184,711,o),
(140,711,cs),
(101,711,o),
(72,692,o),
(60,681,c),
(77,636,o),
(80,589,o),
(80,551,cs),
(80,307,ls),
(80,84,o),
(169,-14,o),
(338,-14,cs),
(515,-14,o),
(603,94,o),
(603,307,cs),
(603,641,ls)
);
}
);
width = 676;
}
);
unicode = 85;
},
{
color = 6;
glyphname = Uhorn;
kernLeft = U;
kernRight = U;
layers = (
{
anchors = (
{
name = bottom;
pos = (318,0);
},
{
name = ogonek;
pos = (391,6);
},
{
name = top;
pos = (326,688);
},
{
name = topright;
pos = (546,690);
}
);
layerId = "60CFBDE8-BC08-4808-BF41-F011F3E03A54";
shapes = (
{
closed = 1;
nodes = (
(547,687,o),
(541,695,o),
(530,695,cs),
(521,695,o),
(516,691,o),
(512,687,c),
(516,671,o),
(518,640,o),
(518,600,cs),
(518,304,ls),
(518,115,o),
(450,16,o),
(320,16,cs),
(190,16,o),
(130,107,o),
(130,304,cs),
(130,673,ls),
(130,687,o),
(124,695,o),
(113,695,cs),
(104,695,o),
(99,691,o),
(95,687,c),
(99,671,o),
(101,640,o),
(101,600,cs),
(101,304,ls),
(101,87,o),
(170,-12,o),
(320,-12,cs),
(469,-12,o),
(547,96,o),
(547,304,cs),
(547,673,ls)
);
},
{
closed = 1;
nodes = (
(579,685,o),
(608,710,o),
(608,753,cs),
(608,770,o),
(602,795,o),
(585,813,c),
(572,808,o),
(560,799,o),
(552,792,c),
(568,773,o),
(570,756,o),
(570,747,cs),
(570,722,o),
(555,706,o),
(519,692,c),
(528,670,l)
);
}
);
width = 642;
},
{
anchors = (
{
name = bottom;
pos = (347,0);
},
{
name = ogonek;
pos = (398,-9);
},
{
name = top;
pos = (342,698);
},
{
name = topright;
pos = (538,697);
}
);
layerId = "EBFFFCD3-BAE4-48A5-9442-B72A90AD34A8";
shapes = (
{
closed = 1;
nodes = (
(603,685,o),
(568,711,o),
(524,711,cs),
(485,711,o),
(457,692,o),
(445,681,c),
(462,636,o),
(465,589,o),
(465,551,cs),
(465,300,ls),
(465,126,o),
(427,33,o),
(338,33,cs),
(255,33,o),
(219,111,o),
(219,300,cs),
(219,641,ls),
(219,685,o),
(184,711,o),
(140,711,cs),
(101,711,o),
(72,692,o),
(60,681,c),
(77,636,o),
(80,589,o),
(80,551,cs),
(80,307,ls),
(80,84,o),
(169,-14,o),
(338,-14,cs),
(515,-14,o),
(603,94,o),
(603,307,cs),
(603,641,ls)
);
},
{
closed = 1;
nodes = (
(589,689,o),
(654,731,o),
(654,786,cs),
(654,820,o),
(638,856,o),
(626,869,c),
(601,866,o),
(552,844,o),
(534,831,c),
(545,819,o),
(557,796,o),
(557,773,cs),
(557,748,o),
(544,723,o),
(499,707,c),
(516,664,l)
);
}
);
width = 676;
}
);
unicode = 431;
},
{
color = 6;
glyphname = V;
layers = (
{
anchors = (
{
name = bottom;
pos = (270,0);
},
{
name = top;
pos = (270,688);
}
);
layerId = "60CFBDE8-BC08-4808-BF41-F011F3E03A54";
shapes = (
{
closed = 1;
nodes = (
(282,-8,o),
(289,-6,o),
(297,0,c),
(519,658,ls),
(521,665,o),
(525,675,o),
(525,682,cs),
(526,693,o),
(517,700,o),
(504,700,cs),
(499,700,o),
(495,700,o),
(490,698,c),
(492,694,o),
(492,688,o),
(492,684,cs),
(492,678,o),
(489,668,o),
(487,663,cs),
(269,6,l),
(283,6,l),
(55,686,ls),
(52,695,o),
(44,700,o),
(35,700,cs),
(28,700,o),
(22,698,o),
(15,691,c),
(20,685,o),
(27,674,o),
(31,661,cs),
(250,9,ls),
(254,-2,o),
(263,-8,o),
(275,-8,cs)
);
}
);
width = 553;
},
{
anchors = (
{
name = bottom;
pos = (305,0);
},
{
name = top;
pos = (305,698);
}
);
layerId = "EBFFFCD3-BAE4-48A5-9442-B72A90AD34A8";
shapes = (
{
closed = 1;
nodes = (
(321,-15,o),
(354,-10,o),
(391,4,c),
(581,584,ls),
(590,612,o),
(595,637,o),
(595,655,cs),
(595,695,o),
(572,712,o),
(517,712,cs),
(482,712,o),
(462,706,o),
(442,698,c),
(448,691,o),
(452,681,o),
(452,664,cs),
(452,649,o),
(449,634,o),
(445,619,cs),
(298,7,l),
(337,7,l),
(175,659,ls),
(166,695,o),
(136,712,o),
(86,712,cs),
(40,712,o),
(16,696,o),
(3,682,c),
(20,664,o),
(31,634,o),
(36,617,cs),
(212,23,ls),
(220,-4,o),
(249,-15,o),
(298,-15,cs)
);
}
);
width = 612;
}
);
unicode = 86;
},
{
color = 6;
glyphname = W;
kernLeft = W;
kernRight = W;
layers = (
{
anchors = (
{
name = bottom;
pos = (446,0);
},
{
name = top;
pos = (446,688);
}
);
layerId = "60CFBDE8-BC08-4808-BF41-F011F3E03A54";
shapes = (
{
closed = 1;
nodes = (
(840,700,o),
(836,700,o),
(831,698,c),
(833,694,o),
(833,688,o),
(833,684,cs),
(833,678,o),
(830,668,o),
(828,663,c),
(653,24,l),
(464,629,l),
(460,630,o),
(455,630,o),
(451,630,cs),
(445,630,o),
(437,628,o),
(432,625,c),
(433,621,o),
(435,614,o),
(431,602,cs),
(251,24,l),
(65,686,ls),
(62,695,o),
(54,700,o),
(45,700,cs),
(38,700,o),
(32,698,o),
(25,691,c),
(30,685,o),
(37,674,o),
(41,661,cs),
(225,9,l),
(228,-2,o),
(238,-8,o),
(250,-8,cs),
(257,-8,o),
(264,-6,o),
(272,0,c),
(451,574,l),
(627,9,l),
(630,-2,o),
(640,-8,o),
(652,-8,cs),
(659,-8,o),
(666,-6,o),
(673,0,c),
(860,658,ls),
(862,665,o),
(866,675,o),
(866,682,c),
(867,693,o),
(858,700,o),
(845,700,cs)
);
}
);
width = 887;
},
{
anchors = (
{
name = bottom;
pos = (481,0);
},
{
name = top;
pos = (489,698);
}
);
layerId = "EBFFFCD3-BAE4-48A5-9442-B72A90AD34A8";
shapes = (
{
closed = 1;
nodes = (
(823,709,o),
(803,702,o),
(783,695,c),
(789,687,o),
(793,677,o),
(793,661,cs),
(793,646,o),
(789,631,o),
(787,615,c),
(691,99,l),
(568,602,l),
(562,628,o),
(533,640,o),
(497,640,cs),
(468,640,o),
(426,632,o),
(398,618,c),
(406,601,o),
(412,576,o),
(404,539,cs),
(298,98,l),
(186,659,ls),
(179,695,o),
(147,712,o),
(97,712,cs),
(51,712,o),
(27,696,o),
(14,682,c),
(31,664,o),
(43,634,o),
(47,617,cs),
(192,23,l),
(198,-4,o),
(229,-15,o),
(278,-15,cs),
(298,-15,o),
(331,-10,o),
(368,4,c),
(484,465,l),
(591,23,l),
(598,-4,o),
(629,-15,o),
(670,-15,cs),
(693,-15,o),
(727,-10,o),
(763,4,c),
(922,581,ls),
(930,608,o),
(936,634,o),
(936,652,c),
(937,692,o),
(913,709,o),
(858,709,cs)
);
}
);
width = 962;
}
);
unicode = 87;
},
{
color = 6;
glyphname = X;
layers = (
{
anchors = (
{
name = bottom;
pos = (287,0);
},
{
name = top;
pos = (287,688);
}
);
layerId = "60CFBDE8-BC08-4808-BF41-F011F3E03A54";
shapes = (
{
closed = 1;
nodes = (
(541,-7,o),
(560,12,o),
(560,31,cs),
(560,44,o),
(552,54,o),
(537,55,c),
(540,42,o),
(533,23,o),
(510,23,cs),
(488,23,o),
(474,42,o),
(461,65,cs),
(299,364,l),
(152,637,ls),
(138,663,o),
(113,695,o),
(75,695,cs),
(44,695,o),
(25,676,o),
(25,657,cs),
(25,644,o),
(33,634,o),
(48,633,c),
(45,649,o),
(52,665,o),
(75,665,cs),
(95,665,o),
(109,651,o),
(124,623,cs),
(272,349,l),
(432,51,ls),
(447,22,o),
(472,-7,o),
(510,-7,cs)
);
},
{
closed = 1;
nodes = (
(57,-5,o),
(63,-1,o),
(68,6,cs),
(302,354,l),
(284,379,l),
(82,81,ls),
(55,42,o),
(39,23,o),
(31,16,c),
(33,0,o),
(41,-5,o),
(50,-5,cs)
);
},
{
closed = 1;
nodes = (
(472,613,ls),
(493,645,o),
(512,668,o),
(525,679,c),
(522,694,o),
(516,700,o),
(506,700,cs),
(499,700,o),
(493,696,o),
(488,689,cs),
(284,370,l),
(301,348,l)
);
}
);
width = 574;
},
{
anchors = (
{
name = bottom;
pos = (320,0);
},
{
name = top;
pos = (320,698);
}
);
layerId = "EBFFFCD3-BAE4-48A5-9442-B72A90AD34A8";
shapes = (
{
closed = 1;
nodes = (
(581,-14,o),
(623,29,o),
(623,73,cs),
(623,102,o),
(604,125,o),
(583,135,c),
(580,121,o),
(566,108,o),
(554,108,cs),
(541,108,o),
(525,119,o),
(513,142,cs),
(362,422,l),
(279,587,ls),
(239,666,o),
(205,707,o),
(132,707,cs),
(56,707,o),
(29,664,o),
(29,622,cs),
(29,591,o),
(46,569,o),
(68,558,c),
(71,572,o),
(85,585,o),
(100,585,cs),
(114,585,o),
(125,574,o),
(138,551,cs),
(272,300,l),
(373,106,ls),
(412,32,o),
(443,-14,o),
(514,-14,cs)
);
},
{
closed = 1;
nodes = (
(131,-14,o),
(149,3,o),
(164,27,cs),
(341,316,l),
(283,372,l),
(127,153,ls),
(99,114,o),
(71,83,o),
(23,70,c),
(28,13,o),
(49,-14,o),
(95,-14,cs)
);
},
{
closed = 1;
nodes = (
(504,541,ls),
(530,578,o),
(559,610,o),
(608,623,c),
(602,682,o),
(580,707,o),
(535,707,cs),
(497,707,o),
(479,688,o),
(467,666,cs),
(305,382,l),
(350,327,l)
);
}
);
width = 640;
}
);
unicode = 88;
},
{
color = 6;
glyphname = Y;
kernLeft = Y;
kernRight = Y;
layers = (
{
anchors = (
{
name = bottom;
pos = (254,0);
},
{
name = top;
pos = (270,688);
},
{
name = topleft;
pos = (20,688);
}
);
layerId = "60CFBDE8-BC08-4808-BF41-F011F3E03A54";
shapes = (
{
closed = 1;
nodes = (
(272,236,l),
(480,655,ls),
(485,665,o),
(488,673,o),
(488,678,cs),
(488,692,o),
(480,700,o),
(468,700,cs),
(463,700,o),
(459,700,o),
(454,698,c),
(456,694,o),
(456,688,o),
(456,683,cs),
(456,678,o),
(453,670,o),
(446,655,cs),
(251,253,l),
(266,253,l),
(63,686,ls),
(59,695,o),
(52,700,o),
(43,700,cs),
(34,700,o),
(26,696,o),
(20,689,c),
(25,683,o),
(36,672,o),
(41,661,cs),
(244,236,ls),
(246,232,o),
(252,228,o),
(260,227,c)
);
},
{
closed = 1;
nodes = (
(243,250,l),
(244,14,ls),
(244,0,o),
(250,-8,o),
(261,-8,cs),
(270,-8,o),
(275,-4,o),
(279,0,c),
(275,16,o),
(273,45,o),
(273,87,cs),
(272,249,l)
);
}
);
width = 512;
},
{
anchors = (
{
name = bottom;
pos = (318,0);
},
{
name = top;
pos = (321,698);
},
{
name = topleft;
pos = (20,698);
}
);
layerId = "EBFFFCD3-BAE4-48A5-9442-B72A90AD34A8";
shapes = (
{
closed = 1;
nodes = (
(361,249,l),
(550,564,ls),
(568,592,o),
(583,626,o),
(583,649,cs),
(582,680,o),
(564,708,o),
(519,708,cs),
(481,708,o),
(460,702,o),
(440,694,c),
(448,685,o),
(454,671,o),
(454,657,cs),
(454,643,o),
(451,630,o),
(443,613,cs),
(292,277,l),
(348,308,l),
(200,630,ls),
(179,676,o),
(159,708,o),
(103,708,cs),
(54,708,o),
(17,679,o),
(4,665,c),
(28,642,o),
(46,612,o),
(55,595,cs),
(206,304,ls),
(223,273,o),
(242,230,o),
(288,230,c)
);
},
{
closed = 1;
nodes = (
(230,284,l),
(230,56,ls),
(230,12,o),
(264,-15,o),
(310,-15,cs),
(348,-15,o),
(378,5,o),
(389,16,c),
(372,60,o),
(369,108,o),
(369,146,cs),
(369,310,l)
);
}
);
width = 600;
}
);
unicode = 89;
},
{
color = 6;
glyphname = Z;
kernLeft = Z;
kernRight = Z;
layers = (
{
anchors = (
{
name = bottom;
pos = (283,0);
},
{
name = top;
pos = (283,688);
}
);
layerId = "60CFBDE8-BC08-4808-BF41-F011F3E03A54";
shapes = (
{
closed = 1;
nodes = (
(103,0,o),
(147,0,o),
(187,0,cs),
(394,0,ls),
(482,0,o),
(520,44,o),
(520,97,cs),
(520,131,o),
(502,189,o),
(463,189,cs),
(455,189,o),
(453,186,o),
(444,181,c),
(468,167,o),
(491,136,o),
(490,95,cs),
(489,58,o),
(466,26,o),
(383,26,cs),
(78,26,l),
(78,13,l),
(477,633,ls),
(485,646,o),
(492,663,o),
(492,685,c),
(475,694,l),
(453,689,o),
(416,689,o),
(347,689,cs),
(173,689,ls),
(100,689,o),
(59,649,o),
(59,603,cs),
(59,564,o),
(82,519,o),
(116,519,cs),
(126,519,o),
(133,523,o),
(136,529,c),
(104,548,o),
(87,568,o),
(87,602,cs),
(87,635,o),
(111,663,o),
(176,663,cs),
(475,663,l),
(463,665,l),
(71,53,ls),
(61,38,o),
(52,21,o),
(52,9,c),
(63,-5,l)
);
}
);
width = 553;
},
{
anchors = (
{
name = bottom;
pos = (299,0);
},
{
name = top;
pos = (299,698);
}
);
layerId = "EBFFFCD3-BAE4-48A5-9442-B72A90AD34A8";
shapes = (
{
closed = 1;
nodes = (
(98,5,o),
(116,6,o),
(153,5,cs),
(417,-2,ls),
(524,-4,o),
(574,43,o),
(574,109,cs),
(574,156,o),
(548,190,o),
(508,206,cs),
(500,210,o),
(493,214,o),
(475,217,c),
(479,200,o),
(478,181,o),
(465,162,cs),
(454,144,o),
(426,125,o),
(381,122,cs),
(119,103,l),
(137,67,l),
(516,557,ls),
(545,593,o),
(551,619,o),
(551,664,c),
(534,705,l),
(501,694,o),
(458,693,o),
(419,694,cs),
(216,701,ls),
(92,705,o),
(40,653,o),
(40,587,cs),
(40,554,o),
(56,526,o),
(79,511,cs),
(96,498,o),
(119,489,o),
(142,485,c),
(136,503,o),
(138,519,o),
(150,542,cs),
(163,565,o),
(196,575,o),
(228,577,cs),
(465,596,l),
(453,635,l),
(78,135,ls),
(49,100,o),
(44,72,o),
(44,26,c),
(62,-7,l)
);
}
);
width = 597;
}
);
unicode = 90;
},
{
color = 6;
glyphname = a;
kernLeft = a;
kernRight = a;
layers = (
{
anchors = (
{
name = bottom;
pos = (267,0);
},
{
name = ogonek;
pos = (479,-3);
},
{
name = top;
pos = (253,500);
}
);
layerId = "60CFBDE8-BC08-4808-BF41-F011F3E03A54";
shapes = (
{
closed = 1;
nodes = (
(495,-10,o),
(521,2,o),
(521,24,cs),
(521,30,o),
(519,37,o),
(512,45,c),
(504,28,o),
(487,18,o),
(474,18,cs),
(450,18,o),
(436,34,o),
(436,71,cs),
(436,298,ls),
(436,437,o),
(376,512,o),
(247,512,cs),
(143,512,o),
(76,474,o),
(76,395,cs),
(76,357,o),
(98,312,o),
(128,312,cs),
(134,312,o),
(147,315,o),
(155,328,c),
(121,336,o),
(105,371,o),
(105,397,cs),
(105,468,o),
(182,484,o),
(241,484,cs),
(357,484,o),
(406,422,o),
(406,298,cs),
(406,272,l),
(344,279,o),
(270,274,o),
(212,259,cs),
(106,230,o),
(55,173,o),
(55,102,cs),
(55,38,o),
(93,-12,o),
(173,-12,cs),
(271,-12,o),
(373,63,o),
(420,194,c),
(406,206,l),
(406,73,ls),
(406,23,o),
(426,-10,o),
(473,-10,cs)
);
},
{
closed = 1;
nodes = (
(111,15,o),
(87,58,o),
(87,104,cs),
(87,166,o),
(133,208,o),
(214,232,cs),
(264,247,o),
(352,256,o),
(406,251,c),
(403,136,o),
(281,15,o),
(179,15,cs)
);
}
);
width = 534;
},
{
anchors = (
{
name = bottom;
pos = (284,0);
},
{
name = ogonek;
pos = (471,-10);
},
{
name = top;
pos = (274,516);
}
);
layerId = "EBFFFCD3-BAE4-48A5-9442-B72A90AD34A8";
shapes = (
{
closed = 1;
nodes = (
(526,-10,o),
(562,23,o),
(562,62,cs),
(562,74,o),
(558,91,o),
(549,105,c),
(542,95,o),
(529,92,o),
(522,92,cs),
(500,92,o),
(489,110,o),
(489,145,cs),
(489,314,ls),
(489,470,o),
(422,531,o),
(273,531,cs),
(142,531,o),
(58,487,o),
(58,407,cs),
(58,355,o),
(95,314,o),
(160,314,cs),
(189,314,o),
(217,322,o),
(233,338,c),
(205,354,o),
(198,385,o),
(198,412,cs),
(198,465,o),
(226,486,o),
(265,486,cs),
(328,486,o),
(348,431,o),
(348,323,cs),
(348,298,l),
(310,296,o),
(262,292,o),
(209,277,cs),
(126,253,o),
(34,204,o),
(34,108,cs),
(34,31,o),
(90,-10,o),
(166,-10,cs),
(285,-10,o),
(360,84,o),
(380,194,c),
(356,199,l),
(356,161,ls),
(356,33,o),
(398,-10,o),
(467,-10,cs)
);
},
{
closed = 1;
nodes = (
(200,75,o),
(185,108,o),
(185,142,cs),
(185,182,o),
(208,214,o),
(240,232,cs),
(271,250,o),
(313,254,o),
(352,254,c),
(352,156,o),
(289,84,o),
(238,79,cs)
);
}
);
width = 568;
}
);
unicode = 97;
},
{
color = 6;
glyphname = ae;
kernLeft = a;
kernRight = e;
layers = (
{
anchors = (
{
name = top;
pos = (429,500);
}
);
layerId = "60CFBDE8-BC08-4808-BF41-F011F3E03A54";
shapes = (
{
closed = 1;
nodes = (
(267,-12,o),
(366,57,o),
(415,177,c),
(409,178,l),
(429,52,o),
(505,-12,o),
(620,-12,cs),
(696,-12,o),
(762,15,o),
(787,72,cs),
(799,100,o),
(791,110,o),
(779,115,c),
(761,45,o),
(692,17,o),
(623,17,cs),
(530,17,o),
(442,68,o),
(437,234,c),
(469,229,o),
(505,224,o),
(553,224,cs),
(706,224,o),
(790,274,o),
(790,375,cs),
(790,463,o),
(727,512,o),
(628,512,cs),
(525,512,o),
(455,460,o),
(425,370,c),
(430,369,l),
(411,463,o),
(352,512,o),
(247,512,cs),
(143,512,o),
(76,474,o),
(76,395,cs),
(76,357,o),
(98,312,o),
(128,312,cs),
(134,312,o),
(147,315,o),
(155,328,c),
(121,336,o),
(105,371,o),
(105,397,cs),
(105,468,o),
(182,484,o),
(241,484,cs),
(357,484,o),
(406,422,o),
(406,298,cs),
(406,272,l),
(344,279,o),
(270,274,o),
(212,259,cs),
(106,230,o),
(55,173,o),
(55,102,cs),
(55,38,o),
(93,-12,o),
(173,-12,cs)
);
},
{
closed = 1;
nodes = (
(111,15,o),
(87,58,o),
(87,104,cs),
(87,166,o),
(133,208,o),
(214,232,cs),
(266,248,o),
(359,257,o),
(412,250,c),
(405,261,l),
(405,249,o),
(405,257,o),
(405,237,c),
(393,126,o),
(277,15,o),
(179,15,cs)
);
},
{
closed = 1;
nodes = (
(528,249,o),
(475,253,o),
(437,259,c),
(441,413,o),
(518,485,o),
(626,485,cs),
(690,485,o),
(759,460,o),
(759,375,cs),
(759,291,o),
(691,249,o),
(565,249,cs)
);
}
);
width = 849;
},
{
anchors = (
{
name = top;
pos = (432,516);
}
);
layerId = "EBFFFCD3-BAE4-48A5-9442-B72A90AD34A8";
shapes = (
{
closed = 1;
nodes = (
(275,-10,o),
(348,69,o),
(378,167,c),
(367,168,l),
(396,51,o),
(485,-14,o),
(611,-14,cs),
(706,-14,o),
(776,23,o),
(802,88,cs),
(817,125,o),
(807,140,o),
(793,146,c),
(771,104,o),
(724,71,o),
(650,71,cs),
(567,71,o),
(515,112,o),
(505,230,c),
(540,226,o),
(572,226,o),
(603,226,cs),
(730,226,o),
(818,280,o),
(818,379,cs),
(818,480,o),
(727,531,o),
(612,531,cs),
(528,531,o),
(463,505,o),
(420,456,c),
(441,455,l),
(408,504,o),
(355,531,o),
(277,531,cs),
(142,531,o),
(58,487,o),
(58,407,cs),
(58,355,o),
(95,314,o),
(160,314,cs),
(189,314,o),
(217,322,o),
(233,338,c),
(205,354,o),
(198,385,o),
(198,412,cs),
(198,465,o),
(226,486,o),
(269,486,cs),
(332,486,o),
(352,431,o),
(352,323,cs),
(352,298,l),
(310,296,o),
(262,292,o),
(209,277,cs),
(126,253,o),
(34,204,o),
(34,108,cs),
(34,31,o),
(90,-10,o),
(166,-10,cs)
);
},
{
closed = 1;
nodes = (
(200,75,o),
(185,108,o),
(185,142,cs),
(185,182,o),
(208,214,o),
(240,232,cs),
(276,253,o),
(326,255,o),
(375,254,c),
(355,278,l),
(356,270,o),
(356,262,o),
(356,254,cs),
(356,156,o),
(289,84,o),
(238,79,cs)
);
},
{
closed = 1;
nodes = (
(515,276,o),
(509,276,o),
(503,277,c),
(503,407,o),
(541,485,o),
(607,485,cs),
(639,485,o),
(670,469,o),
(670,402,cs),
(670,284,o),
(581,275,o),
(522,276,cs)
);
}
);
width = 849;
}
);
metricLeft = a;
metricRight = e;
unicode = 230;
},
{
color = 6;
glyphname = b;
kernLeft = h;
kernRight = o;
layers = (
{
anchors = (
{
name = bottom;
pos = (265,0);
},
{
name = top;
pos = (265,500);
}
);
layerId = "60CFBDE8-BC08-4808-BF41-F011F3E03A54";
shapes = (
{
closed = 1;
nodes = (
(419,-12,o),
(476,126,o),
(476,275,cs),
(476,438,o),
(417,512,o),
(306,512,cs),
(214,512,o),
(145,443,o),
(119,365,c),
(120,635,ls),
(120,654,o),
(122,710,o),
(125,720,c),
(121,724,o),
(116,728,o),
(107,728,cs),
(95,728,o),
(88,720,o),
(88,706,c),
(88,56,l),
(135,-2,o),
(220,-12,o),
(267,-12,cs)
);
},
{
closed = 1;
nodes = (
(208,14,o),
(138,39,o),
(118,70,c),
(118,220,ls),
(118,314,o),
(162,484,o),
(308,484,cs),
(393,484,o),
(445,421,o),
(445,276,cs),
(445,170,o),
(419,20,o),
(270,16,cs)
);
}
);
width = 529;
},
{
anchors = (
{
name = bottom;
pos = (278,0);
},
{
name = top;
pos = (278,516);
}
);
layerId = "EBFFFCD3-BAE4-48A5-9442-B72A90AD34A8";
shapes = (
{
closed = 1;
nodes = (
(450,-14,o),
(522,97,o),
(522,277,cs),
(522,460,o),
(449,531,o),
(344,531,cs),
(269,531,o),
(216,493,o),
(194,431,c),
(194,485,ls),
(194,534,o),
(197,625,o),
(216,703,c),
(203,713,o),
(172,733,o),
(131,733,cs),
(90,733,o),
(58,707,o),
(58,662,c),
(58,52,l),
(105,11,o),
(188,-14,o),
(277,-14,cs)
);
},
{
closed = 1;
nodes = (
(240,40,o),
(213,49,o),
(195,61,c),
(195,248,ls),
(195,363,o),
(233,460,o),
(311,460,cs),
(357,460,o),
(375,405,o),
(375,277,cs),
(375,149,o),
(359,41,o),
(267,40,cs)
);
}
);
width = 556;
}
);
metricRight = o;
unicode = 98;
},
{
color = 6;
glyphname = c;
kernLeft = o;
kernRight = c;
layers = (
{
anchors = (
{
name = bottom;
pos = (268,0);
},
{
name = top;
pos = (271,500);
}
);
layerId = "60CFBDE8-BC08-4808-BF41-F011F3E03A54";
shapes = (
{
closed = 1;
nodes = (
(346,-12,o),
(410,21,o),
(435,92,cs),
(447,121,o),
(439,130,o),
(427,135,c),
(408,48,o),
(339,17,o),
(268,17,cs),
(177,17,o),
(85,70,o),
(85,247,cs),
(85,408,o),
(165,486,o),
(272,486,cs),
(339,486,o),
(402,455,o),
(402,387,cs),
(402,359,o),
(391,335,o),
(365,335,c),
(373,321,o),
(382,319,o),
(391,319,cs),
(417,319,o),
(434,347,o),
(434,387,cs),
(434,464,o),
(373,512,o),
(277,512,cs),
(135,512,o),
(53,409,o),
(53,243,cs),
(53,73,o),
(136,-12,o),
(265,-12,cs)
);
}
);
width = 499;
},
{
anchors = (
{
name = bottom;
pos = (280,0);
},
{
name = top;
pos = (278,516);
}
);
layerId = "EBFFFCD3-BAE4-48A5-9442-B72A90AD34A8";
shapes = (
{
closed = 1;
nodes = (
(385,-14,o),
(458,28,o),
(477,99,cs),
(486,137,o),
(478,155,o),
(464,161,c),
(450,110,o),
(401,71,o),
(330,71,cs),
(235,71,o),
(181,134,o),
(181,282,cs),
(181,411,o),
(218,485,o),
(280,485,cs),
(315,485,o),
(339,467,o),
(339,415,cs),
(339,380,o),
(330,356,o),
(311,338,c),
(326,322,o),
(355,314,o),
(382,314,cs),
(437,314,o),
(476,348,o),
(476,403,cs),
(476,472,o),
(417,531,o),
(291,531,cs),
(125,531,o),
(34,428,o),
(34,260,cs),
(34,85,o),
(125,-14,o),
(288,-14,cs)
);
}
);
width = 513;
}
);
metricLeft = o;
unicode = 99;
},
{
color = 6;
glyphname = d;
kernLeft = o;
kernRight = d;
layers = (
{
anchors = (
{
name = bottom;
pos = (274,0);
},
{
name = center;
pos = (274,250);
},
{
name = top;
pos = (274,500);
},
{
name = topright;
pos = (528,500);
}
);
layerId = "60CFBDE8-BC08-4808-BF41-F011F3E03A54";
shapes = (
{
closed = 1;
nodes = (
(355,-12,o),
(417,112,o),
(434,229,c),
(411,200,l),
(411,73,ls),
(411,20,o),
(430,-7,o),
(468,-7,cs),
(492,-7,o),
(508,2,o),
(508,17,cs),
(508,24,o),
(505,31,o),
(498,39,c),
(491,23,o),
(479,21,o),
(471,21,cs),
(453,21,o),
(441,34,o),
(441,71,cs),
(442,706,ls),
(442,720,o),
(435,728,o),
(423,728,cs),
(414,728,o),
(409,724,o),
(405,720,c),
(408,708,o),
(410,682,o),
(410,628,cs),
(411,414,l),
(389,476,o),
(335,512,o),
(259,512,cs),
(124,512,o),
(53,400,o),
(53,222,cs),
(53,144,o),
(67,-12,o),
(219,-12,cs)
);
},
{
closed = 1;
nodes = (
(97,16,o),
(85,150,o),
(85,224,cs),
(85,401,o),
(153,484,o),
(253,484,cs),
(381,484,o),
(411,375,o),
(411,286,cs),
(411,130,o),
(336,16,o),
(221,16,cs)
);
}
);
width = 544;
},
{
anchors = (
{
name = bottom;
pos = (296,0);
},
{
name = center;
pos = (296,258);
},
{
name = top;
pos = (296,516);
},
{
name = topright;
pos = (572,516);
}
);
layerId = "EBFFFCD3-BAE4-48A5-9442-B72A90AD34A8";
shapes = (
{
closed = 1;
nodes = (
(315,-14,o),
(379,57,o),
(397,209,c),
(376,220,l),
(376,174,ls),
(376,62,o),
(409,-9,o),
(487,-9,cs),
(537,-9,o),
(576,20,o),
(576,61,cs),
(576,73,o),
(572,90,o),
(563,104,c),
(557,95,o),
(544,93,o),
(537,93,cs),
(515,93,o),
(503,110,o),
(503,145,cs),
(504,662,ls),
(504,707,o),
(469,733,o),
(425,733,cs),
(386,733,o),
(358,713,o),
(346,703,c),
(366,635,o),
(369,559,o),
(369,513,cs),
(369,472,l),
(350,510,o),
(309,531,o),
(248,531,cs),
(111,531,o),
(34,426,o),
(34,240,cs),
(34,92,o),
(85,-14,o),
(212,-14,cs)
);
},
{
closed = 1;
nodes = (
(199,60,o),
(181,120,o),
(181,243,cs),
(181,381,o),
(208,463,o),
(283,463,cs),
(355,463,o),
(366,396,o),
(366,324,cs),
(366,193,o),
(333,60,o),
(254,60,cs)
);
}
);
width = 592;
}
);
metricLeft = o;
unicode = 100;
},
{
color = 6;
glyphname = eth;
kernLeft = o;
layers = (
{
layerId = "60CFBDE8-BC08-4808-BF41-F011F3E03A54";
shapes = (
{
closed = 1;
nodes = (
(395,-12,o),
(444,117,o),
(444,284,cs),
(444,523,o),
(343,728,o),
(165,728,cs),
(154,728,o),
(140,711,o),
(145,698,c),
(148,698,o),
(159,699,o),
(170,699,cs),
(276,699,o),
(398,550,o),
(406,350,c),
(417,371,l),
(411,454,o),
(337,493,o),
(258,493,cs),
(124,493,o),
(53,380,o),
(53,234,cs),
(53,149,o),
(72,-12,o),
(242,-12,cs)
);
},
{
closed = 1;
nodes = (
(111,16,o),
(85,150,o),
(85,246,cs),
(85,379,o),
(151,465,o),
(258,465,cs),
(380,465,o),
(411,354,o),
(411,266,cs),
(411,132,o),
(362,16,o),
(241,16,cs)
);
},
{
closed = 1;
nodes = (
(216,574,o),
(219,566,o),
(227,560,c),
(429,667,l),
(429,677,o),
(426,685,o),
(418,689,c),
(216,582,l)
);
}
);
width = 497;
},
{
layerId = "EBFFFCD3-BAE4-48A5-9442-B72A90AD34A8";
shapes = (
{
closed = 1;
nodes = (
(433,-14,o),
(515,119,o),
(515,294,cs),
(515,536,o),
(413,734,o),
(232,734,cs),
(160,734,o),
(146,686,o),
(141,646,c),
(146,647,o),
(154,648,o),
(163,648,cs),
(243,648,o),
(367,561,o),
(372,446,c),
(393,425,l),
(377,466,o),
(331,506,o),
(247,506,cs),
(112,506,o),
(34,401,o),
(34,242,cs),
(34,93,o),
(86,-14,o),
(263,-14,cs)
);
},
{
closed = 1;
nodes = (
(201,60,o),
(181,120,o),
(181,247,cs),
(181,357,o),
(207,438,o),
(282,438,cs),
(350,438,o),
(366,370,o),
(366,277,cs),
(366,121,o),
(338,60,o),
(270,60,cs)
);
},
{
closed = 1;
nodes = (
(213,567,o),
(221,553,o),
(238,543,c),
(472,683,l),
(471,704,o),
(462,719,o),
(445,727,c),
(211,586,l)
);
}
);
width = 549;
}
);
unicode = 240;
},
{
color = 3;
glyphname = dcroat;
kernLeft = o;
kernRight = d;
layers = (
{
layerId = "60CFBDE8-BC08-4808-BF41-F011F3E03A54";
shapes = (
{
closed = 1;
nodes = (
(285,605,o),
(285,596,o),
(289,588,c),
(518,588,l),
(522,596,o),
(522,605,o),
(518,613,c),
(289,613,l)
);
},
{
ref = d;
}
);
width = 548;
},
{
layerId = "EBFFFCD3-BAE4-48A5-9442-B72A90AD34A8";
shapes = (
{
closed = 1;
nodes = (
(264,610,o),
(264,594,o),
(269,576,c),
(570,576,l),
(575,594,o),
(575,610,o),
(570,627,c),
(269,627,l)
);
},
{
ref = d;
}
);
width = 592;
}
);
unicode = 273;
},
{
color = 6;
glyphname = e;
kernLeft = o;
kernRight = e;
layers = (
{
anchors = (
{
name = bottom;
pos = (249,0);
},
{
name = ogonek;
pos = (365,17);
},
{
name = top;
pos = (268,500);
}
);
layerId = "60CFBDE8-BC08-4808-BF41-F011F3E03A54";
shapes = (
{
closed = 1;
nodes = (
(344,-12,o),
(410,15,o),
(435,72,cs),
(447,100,o),
(439,110,o),
(427,115,c),
(409,45,o),
(340,17,o),
(271,17,cs),
(176,17,o),
(85,71,o),
(85,247,cs),
(85,409,o),
(163,485,o),
(274,485,cs),
(338,485,o),
(407,460,o),
(407,375,cs),
(407,291,o),
(339,249,o),
(213,249,cs),
(170,249,o),
(105,254,o),
(67,262,c),
(67,237,l),
(104,231,o),
(144,224,o),
(201,224,cs),
(354,224,o),
(438,274,o),
(438,375,cs),
(438,463,o),
(375,512,o),
(276,512,cs),
(130,512,o),
(53,408,o),
(53,243,cs),
(53,73,o),
(134,-12,o),
(268,-12,cs)
);
}
);
width = 497;
},
{
anchors = (
{
name = bottom;
pos = (268,0);
},
{
name = ogonek;
pos = (365,3);
},
{
name = top;
pos = (272,516);
}
);
layerId = "EBFFFCD3-BAE4-48A5-9442-B72A90AD34A8";
shapes = (
{
closed = 1;
nodes = (
(384,-14,o),
(454,23,o),
(480,88,cs),
(495,125,o),
(485,140,o),
(471,146,c),
(449,104,o),
(402,71,o),
(328,71,cs),
(234,71,o),
(181,123,o),
(181,278,cs),
(181,407,o),
(219,485,o),
(285,485,cs),
(317,485,o),
(348,469,o),
(348,402,cs),
(348,284,o),
(259,275,o),
(200,276,cs),
(156,277,o),
(129,282,o),
(101,285,c),
(97,244,l),
(167,227,o),
(227,226,o),
(281,226,cs),
(408,226,o),
(496,280,o),
(496,379,cs),
(496,480,o),
(405,531,o),
(290,531,cs),
(124,531,o),
(34,428,o),
(34,260,cs),
(34,85,o),
(134,-14,o),
(289,-14,cs)
);
}
);
width = 527;
}
);
metricLeft = o;
unicode = 101;
},
{
color = 6;
glyphname = schwa;
kernRight = o;
layers = (
{
layerId = "60CFBDE8-BC08-4808-BF41-F011F3E03A54";
shapes = (
{
closed = 1;
nodes = (
(153,512,o),
(87,485,o),
(62,428,cs),
(50,400,o),
(58,390,o),
(70,385,c),
(88,455,o),
(157,483,o),
(226,483,cs),
(321,483,o),
(412,429,o),
(412,253,cs),
(412,91,o),
(334,15,o),
(223,15,cs),
(159,15,o),
(90,40,o),
(90,125,cs),
(90,209,o),
(158,251,o),
(284,251,cs),
(327,251,o),
(392,246,o),
(430,238,c),
(430,263,l),
(393,269,o),
(353,276,o),
(296,276,cs),
(143,276,o),
(59,226,o),
(59,125,cs),
(59,37,o),
(122,-12,o),
(221,-12,cs),
(367,-12,o),
(444,92,o),
(444,257,cs),
(444,427,o),
(363,512,o),
(229,512,cs)
);
}
);
width = 497;
},
{
layerId = "EBFFFCD3-BAE4-48A5-9442-B72A90AD34A8";
shapes = (
{
closed = 1;
nodes = (
(150,531,o),
(81,493,o),
(54,429,cs),
(39,392,o),
(50,377,o),
(63,370,c),
(85,412,o),
(132,445,o),
(207,445,cs),
(300,445,o),
(353,394,o),
(353,238,cs),
(353,109,o),
(316,31,o),
(249,31,cs),
(218,31,o),
(186,47,o),
(186,114,cs),
(186,233,o),
(275,241,o),
(335,240,cs),
(379,239,o),
(406,234,o),
(433,231,c),
(438,272,l),
(367,290,o),
(307,291,o),
(254,291,cs),
(126,291,o),
(39,237,o),
(39,137,cs),
(39,36,o),
(129,-14,o),
(245,-14,cs),
(410,-14,o),
(501,89,o),
(501,256,cs),
(501,432,o),
(401,531,o),
(245,531,cs)
);
}
);
width = 535;
}
);
metricRight = o;
unicode = 601;
},
{
color = 6;
glyphname = f;
layers = (
{
anchors = (
{
name = bottom;
pos = (190,0);
},
{
name = top;
pos = (190,500);
}
);
layerId = "60CFBDE8-BC08-4808-BF41-F011F3E03A54";
shapes = (
{
closed = 1;
nodes = (
(144,-8,o),
(149,-4,o),
(153,0,c),
(149,16,o),
(147,47,o),
(147,87,cs),
(148,574,ls),
(148,640,o),
(162,712,o),
(257,712,cs),
(305,712,o),
(343,696,o),
(343,648,cs),
(343,635,o),
(341,615,o),
(323,593,c),
(325,592,o),
(327,592,o),
(329,592,cs),
(344,592,o),
(372,613,o),
(372,656,cs),
(372,711,o),
(321,740,o),
(259,740,cs),
(135,740,o),
(117,643,o),
(117,577,cs),
(118,14,ls),
(118,0,o),
(124,-8,o),
(135,-8,cs)
);
},
{
closed = 1;
nodes = (
(49,473,o),
(83,474,o),
(96,474,cs),
(293,474,ls),
(299,474,o),
(303,480,o),
(304,488,cs),
(305,502,l),
(295,501,o),
(263,500,o),
(253,500,cs),
(48,500,ls),
(42,500,o),
(38,494,o),
(37,486,cs),
(36,472,l)
);
}
);
width = 372;
},
{
anchors = (
{
name = bottom;
pos = (204,0);
},
{
name = top;
pos = (204,516);
}
);
layerId = "EBFFFCD3-BAE4-48A5-9442-B72A90AD34A8";
shapes = (
{
closed = 1;
nodes = (
(193,-15,o),
(218,0,o),
(236,16,c),
(219,60,o),
(216,116,o),
(216,146,cs),
(216,507,ls),
(216,610,o),
(213,701,o),
(273,701,cs),
(299,701,o),
(310,689,o),
(310,661,cs),
(310,644,o),
(305,629,o),
(292,610,c),
(304,596,o),
(327,589,o),
(354,589,cs),
(397,589,o),
(430,616,o),
(430,655,cs),
(430,711,o),
(374,743,o),
(275,743,cs),
(125,743,o),
(79,651,o),
(79,532,cs),
(79,56,ls),
(79,12,o),
(113,-15,o),
(158,-15,cs)
);
},
{
closed = 1;
nodes = (
(24,453,o),
(58,455,o),
(71,455,cs),
(307,455,ls),
(326,455,o),
(341,466,o),
(342,488,cs),
(343,520,l),
(333,518,o),
(238,516,o),
(228,516,cs),
(48,516,ls),
(29,516,o),
(13,506,o),
(12,484,cs),
(11,451,l)
);
}
);
width = 406;
}
);
unicode = 102;
},
{
color = 6;
glyphname = g;
kernLeft = o;
kernRight = g;
layers = (
{
anchors = (
{
name = bottom;
pos = (265,0);
},
{
name = top;
pos = (265,500);
}
);
layerId = "60CFBDE8-BC08-4808-BF41-F011F3E03A54";
shapes = (
{
closed = 1;
nodes = (
(343,-240,o),
(442,-170,o),
(442,46,cs),
(442,446,l),
(395,504,o),
(313,512,o),
(266,512,cs),
(73,512,o),
(53,341,o),
(53,247,cs),
(53,70,o),
(117,-10,o),
(229,-10,cs),
(318,-10,o),
(385,41,o),
(411,125,c),
(411,102,o),
(411,81,o),
(411,62,cs),
(411,-126,o),
(352,-212,o),
(210,-212,cs),
(145,-212,o),
(85,-186,o),
(85,-113,cs),
(85,-89,o),
(92,-71,o),
(111,-60,c),
(107,-54,o),
(101,-51,o),
(92,-51,cs),
(74,-51,o),
(56,-76,o),
(56,-116,cs),
(56,-199,o),
(126,-240,o),
(208,-240,cs)
);
},
{
closed = 1;
nodes = (
(137,18,o),
(85,87,o),
(85,245,cs),
(85,332,o),
(104,484,o),
(257,484,cs),
(323,484,o),
(384,468,o),
(412,433,c),
(411,247,ls),
(411,163,o),
(373,18,o),
(231,18,cs)
);
}
);
width = 529;
},
{
anchors = (
{
name = bottom;
pos = (274,0);
},
{
name = top;
pos = (286,522);
}
);
layerId = "EBFFFCD3-BAE4-48A5-9442-B72A90AD34A8";
shapes = (
{
closed = 1;
nodes = (
(382,-224,o),
(495,-155,o),
(495,44,cs),
(495,465,l),
(446,506,o),
(367,531,o),
(280,531,cs),
(100,531,o),
(34,413,o),
(34,249,cs),
(34,68,o),
(107,2,o),
(212,2,cs),
(287,2,o),
(337,37,o),
(360,100,c),
(359,76,o),
(359,43,o),
(359,25,cs),
(359,-98,o),
(317,-183,o),
(233,-183,cs),
(184,-183,o),
(165,-154,o),
(165,-117,cs),
(165,-91,o),
(175,-66,o),
(195,-48,c),
(183,-33,o),
(161,-25,o),
(132,-25,cs),
(77,-25,o),
(38,-58,o),
(38,-109,cs),
(38,-192,o),
(128,-224,o),
(229,-224,cs)
);
},
{
closed = 1;
nodes = (
(197,65,o),
(180,109,o),
(180,235,cs),
(180,393,o),
(201,485,o),
(288,485,cs),
(315,485,o),
(342,477,o),
(359,464,c),
(358,249,ls),
(357,133,o),
(322,65,o),
(254,65,cs)
);
}
);
width = 547;
}
);
metricLeft = o;
unicode = 103;
},
{
color = 6;
glyphname = h;
kernLeft = h;
kernRight = n;
layers = (
{
anchors = (
{
name = bottom;
pos = (279,0);
},
{
name = center;
pos = (279,250);
},
{
name = top;
pos = (116,668);
}
);
layerId = "60CFBDE8-BC08-4808-BF41-F011F3E03A54";
shapes = (
{
closed = 1;
nodes = (
(124,-8,o),
(129,-4,o),
(133,0,c),
(127,24,o),
(127,59,o),
(127,247,cs),
(127,433,o),
(233,484,o),
(301,484,cs),
(396,484,o),
(434,422,o),
(434,298,cs),
(435,14,ls),
(435,0,o),
(441,-8,o),
(452,-8,cs),
(461,-8,o),
(466,-4,o),
(470,0,c),
(466,16,o),
(464,47,o),
(464,87,cs),
(463,297,ls),
(463,437,o),
(413,512,o),
(304,512,cs),
(210,512,o),
(122,439,o),
(114,319,c),
(127,327,l),
(128,640,ls),
(129,692,o),
(131,709,o),
(134,720,c),
(130,724,o),
(125,728,o),
(116,728,cs),
(104,728,o),
(97,720,o),
(97,706,c),
(98,14,ls),
(98,0,o),
(104,-8,o),
(115,-8,cs)
);
}
);
width = 554;
},
{
anchors = (
{
name = bottom;
pos = (286,0);
},
{
name = center;
pos = (286,258);
},
{
name = top;
pos = (151,694);
}
);
layerId = "EBFFFCD3-BAE4-48A5-9442-B72A90AD34A8";
shapes = (
{
closed = 1;
nodes = (
(183,-15,o),
(211,4,o),
(223,15,c),
(200,69,o),
(200,105,o),
(200,235,cs),
(200,390,o),
(242,468,o),
(303,468,cs),
(361,468,o),
(374,410,o),
(374,309,cs),
(374,56,ls),
(374,12,o),
(408,-15,o),
(453,-15,cs),
(488,-15,o),
(513,0,o),
(531,16,c),
(514,60,o),
(511,116,o),
(511,146,cs),
(511,331,ls),
(511,464,o),
(460,531,o),
(350,531,cs),
(244,531,o),
(191,460,o),
(176,340,c),
(199,371,l),
(199,458,ls),
(200,558,o),
(203,637,o),
(223,703,c),
(210,713,o),
(172,736,o),
(129,732,cs),
(92,729,o),
(64,707,o),
(65,662,c),
(65,63,ls),
(65,15,o),
(100,-15,o),
(145,-15,cs)
);
}
);
width = 571;
}
);
metricRight = n;
unicode = 104;
},
{
color = 3;
glyphname = hbar;
kernLeft = h;
kernRight = n;
layers = (
{
layerId = "60CFBDE8-BC08-4808-BF41-F011F3E03A54";
shapes = (
{
closed = 1;
nodes = (
(26,605,o),
(26,596,o),
(30,588,c),
(259,588,l),
(263,596,o),
(263,605,o),
(259,613,c),
(30,613,l)
);
},
{
ref = h;
}
);
width = 564;
},
{
layerId = "EBFFFCD3-BAE4-48A5-9442-B72A90AD34A8";
shapes = (
{
closed = 1;
nodes = (
(-7,599,o),
(-7,583,o),
(-3,566,c),
(309,566,l),
(314,583,o),
(314,599,o),
(309,616,c),
(-3,616,l)
);
},
{
ref = h;
}
);
width = 573;
}
);
unicode = 295;
},
{
color = 6;
glyphname = i;
kernLeft = i;
kernRight = i;
layers = (
{
anchors = (
{
name = bottom;
pos = (124,0);
}
);
layerId = "60CFBDE8-BC08-4808-BF41-F011F3E03A54";
shapes = (
{
closed = 1;
nodes = (
(138,626,o),
(154,642,o),
(154,660,cs),
(154,678,o),
(138,694,o),
(120,694,cs),
(102,694,o),
(86,678,o),
(86,660,cs),
(86,642,o),
(102,626,o),
(120,626,cs)
);
},
{
closed = 1;
nodes = (
(137,490,ls),
(137,504,o),
(131,512,o),
(120,512,cs),
(111,512,o),
(106,508,o),
(102,504,c),
(106,488,o),
(108,457,o),
(108,417,cs),
(110,14,ls),
(110,0,o),
(116,-8,o),
(127,-8,cs),
(136,-8,o),
(141,-4,o),
(145,0,c),
(141,16,o),
(139,47,o),
(139,87,cs)
);
}
);
width = 248;
},
{
anchors = (
{
name = bottom;
pos = (146,0);
}
);
layerId = "EBFFFCD3-BAE4-48A5-9442-B72A90AD34A8";
shapes = (
{
closed = 1;
nodes = (
(179,576,o),
(213,610,o),
(213,653,cs),
(213,697,o),
(179,731,o),
(136,731,cs),
(92,731,o),
(58,697,o),
(58,653,cs),
(58,610,o),
(92,576,o),
(136,576,cs)
);
},
{
closed = 1;
nodes = (
(208,461,ls),
(208,506,o),
(175,532,o),
(130,532,cs),
(92,532,o),
(65,512,o),
(53,502,c),
(70,457,o),
(73,409,o),
(73,371,cs),
(73,56,ls),
(73,12,o),
(107,-15,o),
(150,-15,cs),
(189,-15,o),
(217,5,o),
(229,16,c),
(211,60,o),
(209,108,o),
(209,146,cs)
);
}
);
width = 274;
}
);
unicode = 105;
},
{
color = 6;
glyphname = idotless;
kernLeft = i;
kernRight = i;
layers = (
{
anchors = (
{
name = bottom;
pos = (111,0);
},
{
name = ogonek;
pos = (125,-4);
},
{
name = top;
pos = (105,500);
}
);
layerId = "60CFBDE8-BC08-4808-BF41-F011F3E03A54";
shapes = (
{
closed = 1;
nodes = (
(121,490,ls),
(121,504,o),
(115,512,o),
(104,512,cs),
(95,512,o),
(90,508,o),
(86,504,c),
(90,488,o),
(92,457,o),
(92,417,cs),
(94,14,ls),
(94,0,o),
(100,-8,o),
(111,-8,cs),
(120,-8,o),
(125,-4,o),
(129,0,c),
(125,16,o),
(123,47,o),
(123,87,cs)
);
}
);
width = 223;
},
{
anchors = (
{
name = bottom;
pos = (151,0);
},
{
name = ogonek;
pos = (179,10);
},
{
name = top;
pos = (129,516);
}
);
layerId = "EBFFFCD3-BAE4-48A5-9442-B72A90AD34A8";
shapes = (
{
closed = 1;
nodes = (
(208,461,ls),
(208,506,o),
(175,532,o),
(130,532,cs),
(92,532,o),
(65,512,o),
(53,502,c),
(70,457,o),
(73,409,o),
(73,371,cs),
(73,56,ls),
(73,12,o),
(107,-15,o),
(150,-15,cs),
(189,-15,o),
(217,5,o),
(229,16,c),
(211,60,o),
(209,108,o),
(209,146,cs)
);
}
);
width = 274;
}
);
metricLeft = i;
metricRight = i;
unicode = 305;
},
{
color = 6;
glyphname = j;
kernLeft = j;
kernRight = j;
layers = (
{
layerId = "60CFBDE8-BC08-4808-BF41-F011F3E03A54";
shapes = (
{
closed = 1;
nodes = (
(136,-236,o),
(148,-145,o),
(148,-83,cs),
(147,490,ls),
(147,504,o),
(141,512,o),
(130,512,cs),
(121,512,o),
(116,508,o),
(112,504,c),
(116,488,o),
(118,455,o),
(118,417,cs),
(117,-80,ls),
(117,-160,o),
(101,-208,o),
(32,-208,cs),
(7,-208,o),
(-30,-202,o),
(-30,-154,cs),
(-30,-147,o),
(-30,-140,o),
(-28,-132,c),
(-29,-132,o),
(-30,-132,o),
(-31,-132,cs),
(-49,-132,o),
(-55,-150,o),
(-55,-164,cs),
(-55,-209,o),
(-24,-236,o),
(34,-236,cs)
);
},
{
closed = 1;
nodes = (
(148,626,o),
(164,642,o),
(164,660,cs),
(164,678,o),
(148,694,o),
(130,694,cs),
(112,694,o),
(96,678,o),
(96,660,cs),
(96,642,o),
(112,626,o),
(130,626,cs)
);
}
);
width = 254;
},
{
layerId = "EBFFFCD3-BAE4-48A5-9442-B72A90AD34A8";
shapes = (
{
closed = 1;
nodes = (
(157,-227,o),
(208,-134,o),
(208,-17,cs),
(208,460,ls),
(208,505,o),
(174,531,o),
(130,531,cs),
(99,531,o),
(72,518,o),
(53,501,c),
(70,456,o),
(73,400,o),
(73,370,cs),
(72,8,ls),
(72,-92,o),
(73,-185,o),
(26,-185,cs),
(9,-185,o),
(-5,-173,o),
(-5,-149,cs),
(-5,-135,o),
(1,-117,o),
(11,-102,c),
(0,-80,o),
(-14,-71,o),
(-39,-71,cs),
(-87,-71,o),
(-110,-104,o),
(-110,-139,cs),
(-110,-188,o),
(-70,-227,o),
(20,-227,cs)
);
},
{
closed = 1;
nodes = (
(176,587,o),
(209,620,o),
(209,662,cs),
(209,704,o),
(176,737,o),
(134,737,cs),
(92,737,o),
(59,704,o),
(59,662,cs),
(59,620,o),
(92,587,o),
(134,587,cs)
);
}
);
width = 268;
}
);
unicode = 106;
},
{
color = 6;
glyphname = jdotless;
layers = (
{
anchors = (
{
name = bottom;
pos = (130,0);
},
{
name = top;
pos = (130,500);
}
);
layerId = "60CFBDE8-BC08-4808-BF41-F011F3E03A54";
shapes = (
{
closed = 1;
nodes = (
(136,-236,o),
(148,-145,o),
(148,-83,cs),
(147,490,ls),
(147,504,o),
(141,512,o),
(130,512,cs),
(121,512,o),
(116,508,o),
(112,504,c),
(116,488,o),
(118,455,o),
(118,417,cs),
(117,-80,ls),
(117,-160,o),
(101,-208,o),
(32,-208,cs),
(7,-208,o),
(-30,-202,o),
(-30,-154,cs),
(-30,-147,o),
(-30,-140,o),
(-28,-132,c),
(-29,-132,o),
(-30,-132,o),
(-31,-132,cs),
(-49,-132,o),
(-55,-150,o),
(-55,-164,cs),
(-55,-209,o),
(-24,-236,o),
(34,-236,cs)
);
}
);
width = 238;
},
{
anchors = (
{
name = bottom;
pos = (132,0);
},
{
name = top;
pos = (132,516);
}
);
layerId = "EBFFFCD3-BAE4-48A5-9442-B72A90AD34A8";
shapes = (
{
closed = 1;
nodes = (
(157,-227,o),
(208,-134,o),
(208,-17,cs),
(208,460,ls),
(208,505,o),
(174,531,o),
(130,531,cs),
(99,531,o),
(72,518,o),
(53,501,c),
(70,456,o),
(73,400,o),
(73,370,cs),
(72,8,ls),
(72,-92,o),
(73,-185,o),
(26,-185,cs),
(9,-185,o),
(-5,-173,o),
(-5,-149,cs),
(-5,-135,o),
(1,-117,o),
(11,-102,c),
(0,-80,o),
(-14,-71,o),
(-39,-71,cs),
(-87,-71,o),
(-110,-104,o),
(-110,-139,cs),
(-110,-188,o),
(-70,-227,o),
(20,-227,cs)
);
}
);
width = 267;
}
);
metricLeft = j;
metricRight = j;
unicode = 567;
},
{
color = 6;
glyphname = k;
kernLeft = h;
kernRight = k;
layers = (
{
anchors = (
{
name = bottom;
pos = (269,0);
},
{
name = top;
pos = (269,500);
}
);
layerId = "60CFBDE8-BC08-4808-BF41-F011F3E03A54";
shapes = (
{
closed = 1;
nodes = (
(124,-8,o),
(129,-4,o),
(133,0,c),
(128,21,o),
(127,30,o),
(127,161,c),
(176,174,o),
(243,194,o),
(304,218,c),
(409,31,ls),
(420,11,o),
(439,-8,o),
(462,-8,cs),
(477,-8,o),
(502,1,o),
(502,22,cs),
(502,27,o),
(501,32,o),
(497,37,c),
(488,22,o),
(475,20,o),
(468,20,cs),
(453,20,o),
(444,28,o),
(433,47,cs),
(345,205,l),
(340,213,o),
(336,221,o),
(329,229,c),
(398,260,o),
(464,312,o),
(464,395,cs),
(464,472,o),
(415,512,o),
(342,512,cs),
(232,512,o),
(147,432,o),
(122,315,c),
(127,312,l),
(128,640,ls),
(128,675,o),
(131,711,o),
(134,720,c),
(130,724,o),
(125,728,o),
(116,728,cs),
(104,728,o),
(97,720,o),
(97,706,cs),
(98,14,ls),
(98,0,o),
(104,-8,o),
(115,-8,cs)
);
},
{
closed = 1;
nodes = (
(127,364,o),
(208,484,o),
(340,484,cs),
(394,484,o),
(434,458,o),
(434,394,cs),
(434,279,o),
(280,229,o),
(127,185,c)
);
}
);
width = 540;
},
{
anchors = (
{
name = bottom;
pos = (276,0);
},
{
name = top;
pos = (276,516);
}
);
layerId = "EBFFFCD3-BAE4-48A5-9442-B72A90AD34A8";
shapes = (
{
closed = 1;
nodes = (
(185,-15,o),
(208,2,o),
(224,15,c),
(202,65,o),
(201,94,o),
(201,201,c),
(222,204,o),
(242,209,o),
(268,216,c),
(330,66,ls),
(352,9,o),
(393,-15,o),
(438,-15,cs),
(495,-15,o),
(537,21,o),
(537,64,cs),
(537,79,o),
(532,95,o),
(519,109,c),
(509,102,o),
(499,100,o),
(491,100,cs),
(470,100,o),
(464,114,o),
(447,143,cs),
(421,187,l),
(402,218,o),
(384,240,o),
(359,245,c),
(432,280,o),
(503,337,o),
(503,420,cs),
(503,479,o),
(468,531,o),
(376,531,cs),
(279,531,o),
(219,475,o),
(192,392,c),
(199,379,l),
(200,456,ls),
(204,542,o),
(198,583,o),
(221,703,c),
(210,713,o),
(183,733,o),
(143,733,cs),
(98,733,o),
(64,707,o),
(65,662,cs),
(65,63,ls),
(65,20,o),
(78,-15,o),
(141,-15,cs)
);
},
{
closed = 1;
nodes = (
(201,366,o),
(254,463,o),
(321,463,cs),
(345,463,o),
(363,450,o),
(363,411,cs),
(363,327,o),
(275,272,o),
(201,250,c)
);
}
);
width = 552;
}
);
metricLeft = h;
unicode = 107;
},
{
color = 6;
glyphname = kgreenlandic;
kernLeft = i;
layers = (
{
anchors = (
{
name = bottom;
pos = (285,0);
},
{
name = top;
pos = (285,500);
}
);
layerId = "60CFBDE8-BC08-4808-BF41-F011F3E03A54";
shapes = (
{
closed = 1;
nodes = (
(491,-8,o),
(518,1,o),
(518,23,cs),
(518,27,o),
(517,32,o),
(513,37,c),
(507,26,o),
(493,20,o),
(480,20,cs),
(465,20,o),
(451,28,o),
(442,61,cs),
(417,153,ls),
(399,217,o),
(368,255,o),
(279,261,c),
(273,252,l),
(391,274,o),
(445,356,o),
(445,440,cs),
(445,480,o),
(437,512,o),
(419,512,cs),
(412,512,o),
(403,509,o),
(399,500,c),
(406,490,o),
(413,464,o),
(413,433,cs),
(413,352,o),
(338,267,o),
(208,267,cs),
(182,267,o),
(144,267,o),
(117,267,c),
(118,241,l),
(218,241,ls),
(347,241,o),
(370,204,o),
(386,151,cs),
(416,45,ls),
(426,11,o),
(453,-8,o),
(476,-8,cs)
);
},
{
closed = 1;
nodes = (
(122,-8,o),
(127,-4,o),
(131,0,c),
(127,16,o),
(125,47,o),
(125,87,c),
(125,490,ls),
(125,504,o),
(119,512,o),
(108,512,cs),
(98,512,o),
(92,508,o),
(88,504,c),
(92,488,o),
(94,457,o),
(94,417,cs),
(94,14,ls),
(94,0,o),
(102,-8,o),
(113,-8,cs)
);
}
);
width = 563;
},
{
anchors = (
{
name = bottom;
pos = (295,0);
},
{
name = top;
pos = (295,516);
}
);
layerId = "EBFFFCD3-BAE4-48A5-9442-B72A90AD34A8";
shapes = (
{
closed = 1;
nodes = (
(541,-14,o),
(564,17,o),
(564,55,cs),
(564,67,o),
(562,80,o),
(556,94,c),
(549,89,o),
(542,86,o),
(532,87,cs),
(518,88,o),
(497,95,o),
(478,149,cs),
(467,183,ls),
(443,251,o),
(377,308,o),
(312,279,c),
(310,268,l),
(426,278,o),
(524,353,o),
(524,443,cs),
(524,514,o),
(460,531,o),
(426,531,cs),
(407,531,o),
(391,527,o),
(371,518,c),
(378,508,o),
(389,475,o),
(389,445,cs),
(389,386,o),
(346,319,o),
(249,295,cs),
(237,293,o),
(212,288,o),
(203,287,c),
(204,239,l),
(244,239,ls),
(308,239,o),
(334,186,o),
(346,144,cs),
(364,82,ls),
(379,29,o),
(420,-14,o),
(485,-14,cs)
);
},
{
closed = 1;
nodes = (
(197,-15,o),
(226,5,o),
(238,16,c),
(220,60,o),
(218,108,o),
(218,146,c),
(218,460,ls),
(218,505,o),
(184,531,o),
(138,531,cs),
(99,531,o),
(70,511,o),
(58,501,c),
(75,456,o),
(78,408,o),
(78,370,cs),
(78,56,ls),
(78,12,o),
(112,-15,o),
(158,-15,cs)
);
}
);
width = 596;
}
);
metricLeft = b;
unicode = 312;
},
{
color = 6;
glyphname = l;
kernLeft = h;
kernRight = l;
layers = (
{
anchors = (
{
name = bottom;
pos = (156,0);
},
{
name = center;
pos = (125,262);
},
{
name = top;
pos = (128,705);
},
{
name = topright;
pos = (191,688);
}
);
layerId = "60CFBDE8-BC08-4808-BF41-F011F3E03A54";
shapes = (
{
closed = 1;
nodes = (
(192,-10,o),
(218,2,o),
(218,24,cs),
(218,30,o),
(216,37,o),
(209,45,c),
(201,28,o),
(184,18,o),
(165,18,cs),
(138,18,o),
(124,38,o),
(124,71,cs),
(125,524,ls),
(125,644,o),
(125,705,o),
(131,720,c),
(127,724,o),
(122,728,o),
(113,728,cs),
(101,728,o),
(94,720,o),
(94,706,cs),
(94,73,ls),
(94,19,o),
(122,-10,o),
(164,-10,cs)
);
}
);
width = 250;
},
{
anchors = (
{
name = bottom;
pos = (173,0);
},
{
name = center;
pos = (146,260);
},
{
name = top;
pos = (147,710);
},
{
name = topright;
pos = (266,550);
}
);
layerId = "EBFFFCD3-BAE4-48A5-9442-B72A90AD34A8";
shapes = (
{
closed = 1;
nodes = (
(237,-10,o),
(279,20,o),
(279,62,cs),
(279,74,o),
(275,91,o),
(265,105,c),
(259,95,o),
(245,92,o),
(236,92,cs),
(213,92,o),
(201,110,o),
(201,145,cs),
(201,508,ls),
(201,591,o),
(204,639,o),
(221,703,c),
(210,713,o),
(183,733,o),
(143,733,cs),
(98,733,o),
(64,707,o),
(64,662,cs),
(64,133,ls),
(64,45,o),
(107,-10,o),
(188,-10,cs)
);
}
);
width = 293;
}
);
unicode = 108;
},
{
color = 3;
glyphname = lslash;
kernLeft = h;
kernRight = l;
layers = (
{
layerId = "60CFBDE8-BC08-4808-BF41-F011F3E03A54";
shapes = (
{
closed = 1;
nodes = (
(35,164,l),
(208,405,l),
(188,420,l),
(15,178,l)
);
},
{
ref = l;
}
);
width = 251;
},
{
layerId = "EBFFFCD3-BAE4-48A5-9442-B72A90AD34A8";
shapes = (
{
closed = 1;
nodes = (
(14,141,l),
(311,532,l),
(270,561,l),
(-28,170,l)
);
},
{
ref = l;
}
);
width = 293;
}
);
unicode = 322;
},
{
color = 6;
glyphname = m;
kernLeft = n;
kernRight = n;
layers = (
{
anchors = (
{
name = bottom;
pos = (455,0);
},
{
name = top;
pos = (438,500);
}
);
layerId = "60CFBDE8-BC08-4808-BF41-F011F3E03A54";
shapes = (
{
closed = 1;
nodes = (
(782,297,ls),
(782,437,o),
(737,512,o),
(630,512,cs),
(544,512,o),
(469,445,o),
(455,338,c),
(466,335,l),
(460,448,o),
(413,512,o),
(314,512,cs),
(234,512,o),
(160,447,o),
(141,339,c),
(150,330,l),
(150,427,ls),
(150,481,o),
(122,510,o),
(80,510,cs),
(60,510,o),
(36,498,o),
(36,476,cs),
(36,470,o),
(38,463,o),
(45,455,c),
(51,472,o),
(64,482,o),
(79,482,cs),
(106,482,o),
(120,462,o),
(120,429,cs),
(121,14,ls),
(121,0,o),
(127,-8,o),
(138,-8,cs),
(147,-8,o),
(152,-4,o),
(156,0,c),
(150,23,o),
(150,57,o),
(150,237,cs),
(150,431,o),
(247,484,o),
(311,484,cs),
(404,484,o),
(437,422,o),
(437,298,cs),
(438,14,ls),
(438,0,o),
(444,-8,o),
(455,-8,cs),
(464,-8,o),
(469,-4,o),
(473,0,c),
(469,16,o),
(467,47,o),
(467,87,cs),
(466,267,ls),
(471,437,o),
(565,484,o),
(627,484,cs),
(720,484,o),
(753,422,o),
(753,298,cs),
(754,14,ls),
(754,0,o),
(760,-8,o),
(771,-8,cs),
(780,-8,o),
(785,-4,o),
(789,0,c),
(785,16,o),
(783,47,o),
(783,87,cs)
);
}
);
width = 873;
},
{
anchors = (
{
name = bottom;
pos = (462,0);
},
{
name = top;
pos = (436,516);
}
);
layerId = "EBFFFCD3-BAE4-48A5-9442-B72A90AD34A8";
shapes = (
{
closed = 1;
nodes = (
(810,331,ls),
(810,463,o),
(760,531,o),
(658,531,cs),
(566,531,o),
(512,471,o),
(493,383,c),
(508,379,l),
(496,479,o),
(452,531,o),
(360,531,cs),
(262,531,o),
(213,470,o),
(193,379,c),
(202,356,l),
(202,388,ls),
(202,485,o),
(163,531,o),
(98,531,cs),
(46,531,o),
(15,500,o),
(15,458,cs),
(15,443,o),
(19,429,o),
(28,415,c),
(34,425,o),
(47,429,o),
(55,429,cs),
(73,429,o),
(83,413,o),
(83,376,cs),
(84,63,ls),
(84,15,o),
(118,-15,o),
(163,-15,cs),
(206,-15,o),
(230,4,o),
(242,15,c),
(219,69,o),
(219,105,o),
(219,233,cs),
(219,391,o),
(258,468,o),
(313,468,cs),
(368,468,o),
(379,410,o),
(379,309,cs),
(379,56,ls),
(379,12,o),
(412,-15,o),
(455,-15,cs),
(491,-15,o),
(514,0,o),
(532,16,c),
(515,60,o),
(512,116,o),
(512,146,cs),
(512,238,ls),
(513,391,o),
(560,468,o),
(613,468,cs),
(669,468,o),
(672,393,o),
(672,309,cs),
(672,56,ls),
(672,12,o),
(706,-15,o),
(751,-15,cs),
(787,-15,o),
(812,0,o),
(830,16,c),
(813,60,o),
(810,116,o),
(810,146,cs)
);
}
);
width = 870;
}
);
metricLeft = n;
metricRight = n;
unicode = 109;
},
{
color = 6;
glyphname = n;
kernLeft = n;
kernRight = n;
layers = (
{
anchors = (
{
name = bottom;
pos = (283,0);
},
{
name = top;
pos = (283,500);
}
);
layerId = "60CFBDE8-BC08-4808-BF41-F011F3E03A54";
shapes = (
{
closed = 1;
nodes = (
(130,-8,o),
(135,-4,o),
(139,0,c),
(133,24,o),
(133,59,o),
(133,247,cs),
(133,433,o),
(239,484,o),
(307,484,cs),
(402,484,o),
(440,422,o),
(441,298,cs),
(441,14,ls),
(441,0,o),
(448,-8,o),
(460,-8,cs),
(469,-8,o),
(474,-4,o),
(478,0,c),
(474,16,o),
(472,47,o),
(471,87,cs),
(471,297,ls),
(471,437,o),
(420,512,o),
(310,512,cs),
(216,512,o),
(128,439,o),
(120,319,c),
(133,327,l),
(133,431,ls),
(133,483,o),
(117,510,o),
(76,510,cs),
(52,510,o),
(36,501,o),
(36,486,cs),
(36,479,o),
(39,472,o),
(46,464,c),
(53,480,o),
(65,482,o),
(73,482,cs),
(94,482,o),
(102,469,o),
(103,432,cs),
(103,14,ls),
(103,0,o),
(109,-8,o),
(121,-8,cs)
);
}
);
width = 562;
},
{
anchors = (
{
name = bottom;
pos = (312,0);
},
{
name = top;
pos = (312,516);
}
);
layerId = "EBFFFCD3-BAE4-48A5-9442-B72A90AD34A8";
shapes = (
{
closed = 1;
nodes = (
(198,-15,o),
(227,4,o),
(239,15,c),
(216,69,o),
(216,105,o),
(216,235,cs),
(216,387,o),
(258,463,o),
(319,463,cs),
(377,463,o),
(389,406,o),
(390,309,cs),
(390,56,ls),
(390,12,o),
(424,-15,o),
(469,-15,cs),
(503,-15,o),
(529,-1,o),
(548,16,c),
(530,60,o),
(528,116,o),
(527,146,cs),
(527,331,ls),
(527,464,o),
(476,531,o),
(366,531,cs),
(254,531,o),
(199,460,o),
(183,340,c),
(200,371,l),
(200,401,ls),
(200,489,o),
(159,531,o),
(97,531,cs),
(44,531,o),
(15,501,o),
(15,460,cs),
(15,444,o),
(19,431,o),
(28,417,c),
(34,427,o),
(47,429,o),
(54,429,cs),
(71,429,o),
(79,414,o),
(80,376,cs),
(80,63,ls),
(80,15,o),
(114,-15,o),
(161,-15,cs)
);
}
);
width = 588;
}
);
unicode = 110;
},
{
color = 6;
glyphname = o;
kernLeft = o;
kernRight = o;
layers = (
{
anchors = (
{
name = bottom;
pos = (267,0);
},
{
name = center;
pos = (267,250);
},
{
name = ogonek;
pos = (481,10);
},
{
name = top;
pos = (267,500);
},
{
name = topright;
pos = (372,490);
}
);
layerId = "60CFBDE8-BC08-4808-BF41-F011F3E03A54";
shapes = (
{
closed = 1;
nodes = (
(402,-12,o),
(481,85,o),
(481,250,cs),
(481,415,o),
(402,512,o),
(267,512,cs),
(132,512,o),
(53,415,o),
(53,250,cs),
(53,85,o),
(132,-12,o),
(267,-12,cs)
);
},
{
closed = 1;
nodes = (
(153,16,o),
(85,103,o),
(85,250,cs),
(85,397,o),
(153,484,o),
(267,484,cs),
(381,484,o),
(449,397,o),
(449,250,cs),
(449,103,o),
(381,16,o),
(267,16,cs)
);
}
);
width = 534;
},
{
anchors = (
{
name = bottom;
pos = (281,0);
},
{
name = center;
pos = (281,258);
},
{
name = ogonek;
pos = (506,10);
},
{
name = top;
pos = (281,516);
},
{
name = topright;
pos = (406,502);
}
);
layerId = "EBFFFCD3-BAE4-48A5-9442-B72A90AD34A8";
shapes = (
{
closed = 1;
nodes = (
(437,-14,o),
(528,87,o),
(528,258,cs),
(528,430,o),
(437,531,o),
(281,531,cs),
(125,531,o),
(34,430,o),
(34,258,cs),
(34,87,o),
(125,-14,o),
(281,-14,cs)
);
},
{
closed = 1;
nodes = (
(212,32,o),
(181,108,o),
(181,258,cs),
(181,409,o),
(212,485,o),
(281,485,cs),
(349,485,o),
(380,409,o),
(380,258,cs),
(380,108,o),
(349,32,o),
(281,32,cs)
);
}
);
width = 562;
}
);
unicode = 111;
},
{
color = 6;
glyphname = ohorn;
kernLeft = o;
kernRight = o;
layers = (
{
anchors = (
{
name = bottom;
pos = (268,0);
},
{
name = center;
pos = (267,250);
},
{
name = ogonek;
pos = (481,10);
},
{
name = top;
pos = (267,500);
},
{
name = topright;
pos = (371,490);
}
);
layerId = "60CFBDE8-BC08-4808-BF41-F011F3E03A54";
shapes = (
{
closed = 1;
nodes = (
(402,-12,o),
(481,85,o),
(481,250,cs),
(481,415,o),
(402,512,o),
(267,512,cs),
(132,512,o),
(53,415,o),
(53,250,cs),
(53,85,o),
(132,-12,o),
(267,-12,cs)
);
},
{
closed = 1;
nodes = (
(153,16,o),
(85,103,o),
(85,250,cs),
(85,397,o),
(153,484,o),
(267,484,cs),
(381,484,o),
(449,397,o),
(449,250,cs),
(449,103,o),
(381,16,o),
(267,16,cs)
);
},
{
closed = 1;
nodes = (
(404,485,o),
(433,510,o),
(433,553,cs),
(433,570,o),
(427,595,o),
(410,613,c),
(397,608,o),
(385,599,o),
(377,592,c),
(393,573,o),
(395,556,o),
(395,547,cs),
(395,522,o),
(380,506,o),
(344,493,c),
(353,470,l)
);
}
);
width = 534;
},
{
anchors = (
{
name = bottom;
pos = (284,0);
},
{
name = center;
pos = (281,258);
},
{
name = ogonek;
pos = (506,10);
},
{
name = top;
pos = (280,516);
},
{
name = topright;
pos = (411,502);
}
);
layerId = "EBFFFCD3-BAE4-48A5-9442-B72A90AD34A8";
shapes = (
{
closed = 1;
nodes = (
(437,-14,o),
(528,87,o),
(528,258,cs),
(528,430,o),
(437,531,o),
(281,531,cs),
(125,531,o),
(34,430,o),
(34,258,cs),
(34,87,o),
(125,-14,o),
(281,-14,cs)
);
},
{
closed = 1;
nodes = (
(212,32,o),
(181,108,o),
(181,258,cs),
(181,409,o),
(212,485,o),
(281,485,cs),
(349,485,o),
(380,409,o),
(380,258,cs),
(380,108,o),
(349,32,o),
(281,32,cs)
);
},
{
closed = 1;
nodes = (
(462,494,o),
(527,536,o),
(527,591,cs),
(527,625,o),
(511,661,o),
(499,674,c),
(474,671,o),
(425,649,o),
(407,636,c),
(418,624,o),
(430,601,o),
(430,578,cs),
(430,553,o),
(417,528,o),
(372,512,c),
(389,469,l)
);
}
);
width = 562;
}
);
unicode = 417;
},
{
color = 6;
glyphname = oslash;
kernLeft = o;
kernRight = o;
layers = (
{
anchors = (
{
name = bottom;
pos = (267,0);
},
{
name = center;
pos = (267,250);
},
{
name = ogonek;
pos = (481,10);
},
{
name = top;
pos = (267,500);
},
{
name = topright;
pos = (372,490);
}
);
layerId = "60CFBDE8-BC08-4808-BF41-F011F3E03A54";
shapes = (
{
closed = 1;
nodes = (
(427,507,o),
(419,512,o),
(409,512,c),
(388,477,l),
(355,500,o),
(315,512,o),
(267,512,cs),
(132,512,o),
(53,415,o),
(53,250,cs),
(53,155,o),
(79,83,o),
(127,38,c),
(106,3,l),
(111,-5,o),
(117,-8,o),
(127,-9,c),
(146,23,l),
(179,0,o),
(219,-12,o),
(267,-12,cs),
(402,-12,o),
(481,85,o),
(481,250,cs),
(481,344,o),
(455,416,o),
(408,461,c),
(431,499,l)
);
},
{
closed = 1;
nodes = (
(85,397,o),
(153,484,o),
(267,484,cs),
(309,484,o),
(344,472,o),
(372,451,c),
(143,66,l),
(106,106,o),
(85,169,o),
(85,250,cs)
);
},
{
closed = 1;
nodes = (
(226,16,o),
(190,28,o),
(162,49,c),
(392,433,l),
(429,393,o),
(449,330,o),
(449,250,cs),
(449,103,o),
(381,16,o),
(267,16,cs)
);
}
);
width = 534;
},
{
anchors = (
{
name = bottom;
pos = (281,0);
},
{
name = center;
pos = (281,258);
},
{
name = ogonek;
pos = (506,10);
},
{
name = top;
pos = (281,516);
},
{
name = topright;
pos = (406,502);
}
);
layerId = "EBFFFCD3-BAE4-48A5-9442-B72A90AD34A8";
shapes = (
{
closed = 1;
nodes = (
(461,519,o),
(446,528,o),
(427,528,c),
(410,501,l),
(374,521,o),
(331,531,o),
(281,531,cs),
(125,531,o),
(34,430,o),
(34,258,cs),
(34,161,o),
(63,87,o),
(116,41,c),
(91,1,l),
(99,-16,o),
(114,-24,o),
(135,-25,c),
(159,12,l),
(193,-5,o),
(234,-14,o),
(281,-14,cs),
(437,-14,o),
(528,87,o),
(528,258,cs),
(528,352,o),
(501,425,o),
(451,471,c),
(471,503,l)
);
},
{
closed = 1;
nodes = (
(181,409,o),
(212,485,o),
(281,485,cs),
(317,485,o),
(343,464,o),
(359,421,c),
(188,153,l),
(183,183,o),
(181,218,o),
(181,258,cs)
);
},
{
closed = 1;
nodes = (
(247,32,o),
(222,50,o),
(206,87,c),
(375,352,l),
(378,325,o),
(380,293,o),
(380,258,cs),
(380,108,o),
(349,32,o),
(281,32,cs)
);
}
);
width = 562;
}
);
unicode = 248;
},
{
color = 6;
glyphname = oe;
kernLeft = o;
kernRight = e;
layers = (
{
anchors = (
{
name = top;
pos = (464,500);
}
);
layerId = "60CFBDE8-BC08-4808-BF41-F011F3E03A54";
shapes = (
{
closed = 1;
nodes = (
(368,-12,o),
(439,43,o),
(467,141,c),
(461,141,l),
(488,39,o),
(561,-12,o),
(664,-12,cs),
(740,-12,o),
(806,15,o),
(831,72,cs),
(843,100,o),
(835,110,o),
(823,115,c),
(805,45,o),
(736,17,o),
(667,17,cs),
(574,17,o),
(486,68,o),
(481,234,c),
(513,229,o),
(549,224,o),
(597,224,cs),
(750,224,o),
(834,274,o),
(834,375,cs),
(834,463,o),
(771,512,o),
(672,512,cs),
(563,512,o),
(491,453,o),
(463,354,c),
(469,353,l),
(442,454,o),
(370,512,o),
(267,512,cs),
(132,512,o),
(53,415,o),
(53,250,cs),
(53,85,o),
(132,-12,o),
(267,-12,cs)
);
},
{
closed = 1;
nodes = (
(153,16,o),
(85,103,o),
(85,250,cs),
(85,397,o),
(153,484,o),
(267,484,cs),
(381,484,o),
(449,397,o),
(449,250,cs),
(449,103,o),
(381,16,o),
(267,16,cs)
);
},
{
closed = 1;
nodes = (
(485,413,o),
(562,485,o),
(670,485,cs),
(734,485,o),
(803,460,o),
(803,375,cs),
(803,291,o),
(735,249,o),
(609,249,cs),
(572,249,o),
(519,253,o),
(481,259,c)
);
}
);
width = 893;
},
{
anchors = (
{
name = top;
pos = (457,516);
}
);
layerId = "EBFFFCD3-BAE4-48A5-9442-B72A90AD34A8";
shapes = (
{
closed = 1;
nodes = (
(364,-14,o),
(432,24,o),
(466,82,c),
(449,82,l),
(479,24,o),
(553,-14,o),
(636,-14,cs),
(731,-14,o),
(800,23,o),
(827,88,cs),
(842,125,o),
(832,140,o),
(818,146,c),
(796,104,o),
(749,71,o),
(674,71,cs),
(592,71,o),
(539,112,o),
(529,230,c),
(564,227,o),
(596,226,o),
(627,226,cs),
(755,226,o),
(842,280,o),
(842,379,cs),
(842,480,o),
(752,531,o),
(637,531,cs),
(550,531,o),
(476,490,o),
(447,435,c),
(464,434,l),
(432,492,o),
(362,531,o),
(281,531,cs),
(125,531,o),
(34,430,o),
(34,258,cs),
(34,87,o),
(125,-14,o),
(281,-14,cs)
);
},
{
closed = 1;
nodes = (
(212,32,o),
(181,108,o),
(181,258,cs),
(181,409,o),
(212,485,o),
(281,485,cs),
(349,485,o),
(380,409,o),
(380,258,cs),
(380,108,o),
(349,32,o),
(281,32,cs)
);
},
{
closed = 1;
nodes = (
(525,397,o),
(567,485,o),
(633,485,cs),
(664,485,o),
(696,469,o),
(696,402,cs),
(696,312,o),
(633,276,o),
(562,276,cs),
(551,276,o),
(542,277,o),
(529,278,c)
);
}
);
width = 873;
}
);
metricLeft = o;
metricRight = e;
unicode = 339;
},
{
color = 6;
glyphname = p;
kernLeft = n;
kernRight = o;
layers = (
{
anchors = (
{
name = bottom;
pos = (270,0);
},
{
name = top;
pos = (270,500);
}
);
layerId = "60CFBDE8-BC08-4808-BF41-F011F3E03A54";
shapes = (
{
closed = 1;
nodes = (
(189,512,o),
(127,388,o),
(110,271,c),
(133,300,l),
(133,431,ls),
(133,483,o),
(117,510,o),
(76,510,cs),
(52,510,o),
(36,501,o),
(36,486,cs),
(36,479,o),
(39,472,o),
(46,464,c),
(53,480,o),
(65,482,o),
(73,482,cs),
(95,482,o),
(103,469,o),
(103,432,cs),
(102,-206,ls),
(102,-220,o),
(109,-228,o),
(121,-228,cs),
(130,-228,o),
(135,-224,o),
(139,-220,c),
(136,-206,o),
(133,-146,o),
(133,-106,cs),
(133,86,l),
(155,24,o),
(209,-12,o),
(285,-12,cs),
(420,-12,o),
(491,100,o),
(491,278,cs),
(491,356,o),
(477,512,o),
(325,512,cs)
);
},
{
closed = 1;
nodes = (
(447,484,o),
(459,350,o),
(459,276,cs),
(459,99,o),
(391,16,o),
(282,16,cs),
(157,16,o),
(133,125,o),
(133,214,cs),
(133,370,o),
(208,484,o),
(323,484,cs)
);
}
);
width = 544;
},
{
anchors = (
{
name = bottom;
pos = (292,0);
},
{
name = top;
pos = (292,516);
}
);
layerId = "EBFFFCD3-BAE4-48A5-9442-B72A90AD34A8";
shapes = (
{
closed = 1;
nodes = (
(268,531,o),
(204,460,o),
(186,307,c),
(207,297,l),
(207,343,ls),
(207,455,o),
(174,526,o),
(98,526,cs),
(49,526,o),
(15,497,o),
(15,456,cs),
(15,444,o),
(19,427,o),
(28,413,c),
(34,422,o),
(47,424,o),
(54,424,cs),
(72,424,o),
(80,408,o),
(80,372,cs),
(79,-150,ls),
(79,-194,o),
(114,-220,o),
(158,-220,cs),
(197,-220,o),
(225,-201,o),
(237,-190,c),
(218,-124,o),
(215,-41,o),
(215,4,cs),
(215,44,l),
(234,6,o),
(276,-14,o),
(334,-14,cs),
(466,-14,o),
(551,86,o),
(551,277,cs),
(551,416,o),
(504,531,o),
(371,531,cs)
);
},
{
closed = 1;
nodes = (
(389,458,o),
(404,390,o),
(404,278,cs),
(404,137,o),
(375,56,o),
(299,56,cs),
(239,56,o),
(217,104,o),
(217,207,cs),
(217,325,o),
(250,458,o),
(329,458,cs)
);
}
);
width = 585;
}
);
metricLeft = n;
metricRight = o;
unicode = 112;
},
{
color = 6;
glyphname = thorn;
kernLeft = h;
kernRight = o;
layers = (
{
anchors = (
{
name = bottom;
pos = (291,0);
},
{
name = top;
pos = (291,500);
}
);
layerId = "60CFBDE8-BC08-4808-BF41-F011F3E03A54";
shapes = (
{
closed = 1;
nodes = (
(125,-228,o),
(130,-224,o),
(134,-220,c),
(131,-206,o),
(128,-146,o),
(128,-106,cs),
(128,86,l),
(150,26,o),
(204,-9,o),
(280,-9,cs),
(415,-9,o),
(486,102,o),
(486,278,cs),
(486,356,o),
(472,512,o),
(320,512,cs),
(184,512,o),
(122,388,o),
(105,271,c),
(128,300,l),
(128,640,ls),
(129,692,o),
(131,709,o),
(134,720,c),
(130,724,o),
(125,728,o),
(116,728,cs),
(104,728,o),
(97,720,o),
(97,706,cs),
(97,-206,ls),
(97,-220,o),
(104,-228,o),
(116,-228,cs)
);
},
{
closed = 1;
nodes = (
(152,19,o),
(128,126,o),
(128,214,cs),
(128,370,o),
(203,484,o),
(318,484,cs),
(442,484,o),
(454,350,o),
(454,276,cs),
(454,101,o),
(386,19,o),
(277,19,cs)
);
}
);
width = 539;
},
{
anchors = (
{
name = bottom;
pos = (284,0);
},
{
name = top;
pos = (284,516);
}
);
layerId = "EBFFFCD3-BAE4-48A5-9442-B72A90AD34A8";
shapes = (
{
closed = 1;
nodes = (
(183,-220,o),
(211,-201,o),
(223,-190,c),
(204,-124,o),
(201,-41,o),
(201,4,cs),
(201,44,l),
(220,6,o),
(262,-14,o),
(320,-14,cs),
(452,-14,o),
(536,86,o),
(536,277,cs),
(536,416,o),
(489,531,o),
(356,531,cs),
(254,531,o),
(190,460,o),
(172,307,c),
(196,297,l),
(196,458,ls),
(196,558,o),
(200,637,o),
(220,703,c),
(207,713,o),
(169,736,o),
(126,732,cs),
(89,729,o),
(65,707,o),
(65,662,cs),
(65,-150,ls),
(65,-194,o),
(99,-220,o),
(144,-220,cs)
);
},
{
closed = 1;
nodes = (
(224,56,o),
(202,104,o),
(202,207,cs),
(202,325,o),
(235,458,o),
(314,458,cs),
(374,458,o),
(389,390,o),
(389,278,cs),
(389,137,o),
(360,56,o),
(284,56,cs)
);
}
);
width = 570;
}
);
metricLeft = h;
metricRight = p;
unicode = 254;
},
{
color = 6;
glyphname = q;
kernLeft = o;
kernRight = g;
layers = (
{
anchors = (
{
name = bottom;
pos = (227,284);
},
{
name = top;
pos = (227,-216);
}
);
layerId = "60CFBDE8-BC08-4808-BF41-F011F3E03A54";
shapes = (
{
closed = 1;
nodes = (
(435,-228,o),
(442,-220,o),
(442,-206,cs),
(442,444,l),
(409,484,o),
(341,512,o),
(257,512,cs),
(92,512,o),
(53,334,o),
(53,237,cs),
(53,68,o),
(113,-13,o),
(226,-13,cs),
(315,-13,o),
(386,54,o),
(411,139,c),
(411,-84,ls),
(411,-160,o),
(409,-204,o),
(405,-220,c),
(409,-224,o),
(414,-228,o),
(423,-228,cs)
);
},
{
closed = 1;
nodes = (
(137,15,o),
(85,79,o),
(85,234,cs),
(85,298,o),
(101,484,o),
(259,484,cs),
(326,484,o),
(390,457,o),
(412,433,c),
(412,274,ls),
(412,196,o),
(368,15,o),
(229,15,cs)
);
}
);
width = 532;
},
{
anchors = (
{
name = bottom;
pos = (268,50);
},
{
name = top;
pos = (268,390);
}
);
layerId = "EBFFFCD3-BAE4-48A5-9442-B72A90AD34A8";
shapes = (
{
closed = 1;
nodes = (
(467,-219,o),
(497,-191,o),
(497,-149,cs),
(497,465,l),
(452,502,o),
(368,531,o),
(276,531,cs),
(102,531,o),
(34,412,o),
(34,242,cs),
(34,57,o),
(106,-15,o),
(209,-15,cs),
(283,-15,o),
(337,23,o),
(359,86,c),
(359,43,ls),
(359,-17,o),
(363,-112,o),
(337,-189,c),
(354,-204,o),
(378,-221,o),
(416,-220,cs)
);
},
{
closed = 1;
nodes = (
(197,57,o),
(182,123,o),
(181,239,cs),
(180,389,o),
(201,476,o),
(283,476,cs),
(314,476,o),
(342,466,o),
(360,455,c),
(360,267,ls),
(360,166,o),
(321,57,o),
(247,57,cs)
);
}
);
width = 550;
}
);
metricLeft = o;
unicode = 113;
},
{
color = 6;
glyphname = r;
kernLeft = n;
kernRight = r;
layers = (
{
anchors = (
{
name = bottom;
pos = (119,0);
},
{
name = top;
pos = (186,500);
}
);
layerId = "60CFBDE8-BC08-4808-BF41-F011F3E03A54";
shapes = (
{
closed = 1;
nodes = (
(129,-8,o),
(135,-4,o),
(139,0,c),
(133,24,o),
(134,59,o),
(134,247,cs),
(134,433,o),
(207,484,o),
(266,484,cs),
(311,484,o),
(339,464,o),
(339,414,cs),
(339,396,o),
(337,377,o),
(319,355,c),
(321,354,o),
(325,353,o),
(331,354,cs),
(347,357,o),
(368,380,o),
(368,418,cs),
(368,480,o),
(326,512,o),
(266,512,cs),
(186,512,o),
(128,443,o),
(120,319,c),
(132,327,l),
(132,427,ls),
(132,482,o),
(116,510,o),
(76,510,cs),
(52,510,o),
(36,501,o),
(36,486,cs),
(36,479,o),
(39,472,o),
(46,464,c),
(53,480,o),
(65,482,o),
(73,482,cs),
(94,482,o),
(103,469,o),
(103,432,cs),
(103,14,ls),
(103,0,o),
(109,-8,o),
(120,-8,cs)
);
}
);
width = 413;
},
{
anchors = (
{
name = bottom;
pos = (159,0);
},
{
name = top;
pos = (217,516);
}
);
layerId = "EBFFFCD3-BAE4-48A5-9442-B72A90AD34A8";
shapes = (
{
closed = 1;
nodes = (
(199,-10,o),
(227,8,o),
(239,19,c),
(216,73,o),
(216,109,o),
(216,235,cs),
(216,391,o),
(244,468,o),
(291,468,cs),
(319,468,o),
(332,449,o),
(332,416,cs),
(332,389,o),
(328,373,o),
(314,347,c),
(326,333,o),
(349,325,o),
(377,325,cs),
(425,326,o),
(461,364,o),
(461,416,cs),
(461,488,o),
(407,531,o),
(331,531,cs),
(253,531,o),
(207,481,o),
(188,376,c),
(200,366,l),
(200,392,ls),
(203,486,o),
(161,531,o),
(97,531,cs),
(44,531,o),
(15,501,o),
(15,460,cs),
(15,444,o),
(19,431,o),
(28,417,c),
(34,427,o),
(47,429,o),
(54,429,cs),
(71,429,o),
(80,414,o),
(80,376,cs),
(80,67,ls),
(80,17,o),
(118,-11,o),
(160,-11,cs)
);
}
);
width = 473;
}
);
metricLeft = n;
unicode = 114;
},
{
color = 6;
glyphname = s;
kernLeft = s;
kernRight = s;
layers = (
{
anchors = (
{
name = bottom;
pos = (230,0);
},
{
name = top;
pos = (230,500);
}
);
layerId = "60CFBDE8-BC08-4808-BF41-F011F3E03A54";
shapes = (
{
closed = 1;
nodes = (
(378,-12,o),
(414,58,o),
(414,113,cs),
(414,205,o),
(319,231,o),
(237,269,cs),
(166,302,o),
(101,327,o),
(101,403,cs),
(101,465,o),
(163,485,o),
(229,485,cs),
(314,485,o),
(366,460,o),
(366,404,cs),
(366,396,o),
(365,387,o),
(361,378,c),
(370,375,o),
(378,375,o),
(384,379,cs),
(394,385,o),
(397,395,o),
(397,410,cs),
(397,473,o),
(341,513,o),
(231,513,cs),
(144,513,o),
(69,482,o),
(69,400,cs),
(69,308,o),
(143,280,o),
(221,242,cs),
(299,204,o),
(382,186,o),
(382,111,cs),
(382,50,o),
(317,16,o),
(224,16,cs),
(137,16,o),
(76,49,o),
(76,124,cs),
(76,138,o),
(78,146,o),
(82,156,c),
(56,159,o),
(45,145,o),
(45,114,cs),
(45,47,o),
(94,-12,o),
(227,-12,cs)
);
}
);
width = 460;
},
{
anchors = (
{
name = bottom;
pos = (238,0);
},
{
name = top;
pos = (238,517);
}
);
layerId = "EBFFFCD3-BAE4-48A5-9442-B72A90AD34A8";
shapes = (
{
closed = 1;
nodes = (
(391,-14,o),
(454,68,o),
(454,149,cs),
(454,241,o),
(366,283,o),
(289,320,cs),
(226,351,o),
(168,378,o),
(168,431,cs),
(168,469,o),
(203,485,o),
(241,485,cs),
(282,485,o),
(309,464,o),
(320,434,cs),
(329,417,o),
(330,393,o),
(329,374,c),
(340,372,o),
(350,371,o),
(364,372,cs),
(413,373,o),
(430,404,o),
(430,435,cs),
(430,500,o),
(353,532,o),
(246,532,cs),
(139,532,o),
(45,489,o),
(45,384,cs),
(45,275,o),
(133,234,o),
(210,198,cs),
(270,169,o),
(326,146,o),
(326,95,cs),
(326,53,o),
(288,35,o),
(240,35,cs),
(171,35,o),
(139,78,o),
(132,118,cs),
(127,136,o),
(126,153,o),
(130,172,c),
(52,185,o),
(29,138,o),
(29,102,cs),
(29,34,o),
(91,-14,o),
(221,-14,cs)
);
}
);
width = 477;
}
);
unicode = 115;
},
{
color = 6;
glyphname = germandbls;
layers = (
{
anchors = (
{
name = bottom;
pos = (269,0);
},
{
name = top;
pos = (269,500);
}
);
layerId = "60CFBDE8-BC08-4808-BF41-F011F3E03A54";
shapes = (
{
closed = 1;
nodes = (
(122,-8,o),
(129,-2,o),
(131,0,c),
(126,26,o),
(125,45,o),
(126,446,cs),
(126,593,o),
(161,700,o),
(295,700,cs),
(368,700,o),
(424,668,o),
(424,590,cs),
(424,464,o),
(278,468,o),
(278,367,cs),
(278,318,o),
(312,283,o),
(398,239,cs),
(449,213,o),
(511,185,o),
(511,116,cs),
(511,49,o),
(454,16,o),
(379,16,cs),
(316,16,o),
(258,39,o),
(258,114,cs),
(258,128,o),
(260,146,o),
(264,156,c),
(258,157,o),
(254,158,o),
(246,156,cs),
(226,151,o),
(224,133,o),
(224,118,cs),
(224,47,o),
(267,-12,o),
(381,-12,cs),
(506,-12,o),
(543,58,o),
(543,118,cs),
(543,198,o),
(479,233,o),
(416,267,cs),
(355,300,o),
(310,325,o),
(310,371,cs),
(310,453,o),
(456,447,o),
(456,593,cs),
(456,688,o),
(395,728,o),
(300,728,cs),
(169,728,o),
(97,651,o),
(97,456,cs),
(97,14,ls),
(97,-1,o),
(98,-8,o),
(110,-8,cs)
);
}
);
width = 589;
},
{
anchors = (
{
name = bottom;
pos = (295,0);
},
{
name = top;
pos = (295,516);
}
);
layerId = "EBFFFCD3-BAE4-48A5-9442-B72A90AD34A8";
shapes = (
{
closed = 1;
nodes = (
(180,-11,o),
(214,10,o),
(225,19,c),
(199,79,o),
(201,86,o),
(201,429,cs),
(201,553,o),
(201,688,o),
(328,688,cs),
(404,688,o),
(437,638,o),
(437,593,cs),
(437,498,o),
(281,475,o),
(281,344,cs),
(281,269,o),
(332,242,o),
(384,211,cs),
(419,190,o),
(452,168,o),
(452,118,cs),
(452,79,o),
(430,47,o),
(387,47,cs),
(345,47,o),
(322,78,o),
(322,123,cs),
(322,134,o),
(323,146,o),
(325,157,c),
(319,158,o),
(313,159,o),
(305,158,cs),
(258,158,o),
(252,114,o),
(252,92,cs),
(252,31,o),
(298,-12,o),
(400,-12,cs),
(538,-12,o),
(594,66,o),
(594,149,cs),
(594,224,o),
(548,262,o),
(502,293,cs),
(458,323,o),
(415,344,o),
(415,381,cs),
(415,438,o),
(518,475,o),
(518,584,cs),
(518,667,o),
(458,733,o),
(325,733,cs),
(158,733,o),
(63,628,o),
(65,399,cs),
(66,67,ls),
(66,17,o),
(104,-11,o),
(144,-11,cs)
);
}
);
width = 617;
}
);
metricLeft = h;
metricRight = s;
unicode = 223;
},
{
color = 6;
glyphname = t;
kernLeft = t;
kernRight = t;
layers = (
{
anchors = (
{
name = bottom;
pos = (183,0);
},
{
name = center;
pos = (167,250);
},
{
name = top;
pos = (124,566);
},
{
name = topright;
pos = (305,500);
}
);
layerId = "60CFBDE8-BC08-4808-BF41-F011F3E03A54";
shapes = (
{
closed = 1;
nodes = (
(223,-12,o),
(254,0,o),
(254,22,cs),
(254,28,o),
(252,35,o),
(245,43,c),
(237,26,o),
(214,16,o),
(191,16,cs),
(157,16,o),
(140,38,o),
(140,71,cs),
(141,428,ls),
(141,548,o),
(141,609,o),
(147,624,c),
(143,628,o),
(138,632,o),
(129,632,cs),
(117,632,o),
(110,624,o),
(110,610,cs),
(110,71,ls),
(110,17,o),
(142,-12,o),
(190,-12,cs)
);
},
{
closed = 1;
nodes = (
(49,473,o),
(83,474,o),
(96,474,cs),
(258,474,ls),
(264,474,o),
(268,480,o),
(269,488,cs),
(270,502,l),
(260,501,o),
(228,500,o),
(218,500,cs),
(48,500,ls),
(42,500,o),
(38,494,o),
(37,486,cs),
(36,472,l)
);
}
);
width = 325;
},
{
anchors = (
{
name = bottom;
pos = (196,0);
},
{
name = center;
pos = (179,258);
},
{
name = top;
pos = (161,600);
},
{
name = topright;
pos = (335,516);
}
);
layerId = "EBFFFCD3-BAE4-48A5-9442-B72A90AD34A8";
shapes = (
{
closed = 1;
nodes = (
(271,-10,o),
(313,20,o),
(313,62,cs),
(313,74,o),
(309,91,o),
(299,105,c),
(294,95,o),
(273,92,o),
(260,92,cs),
(230,92,o),
(215,110,o),
(215,145,cs),
(215,426,ls),
(215,508,o),
(218,556,o),
(235,620,c),
(224,630,o),
(197,650,o),
(157,650,cs),
(112,650,o),
(78,624,o),
(78,580,cs),
(78,133,ls),
(78,45,o),
(122,-10,o),
(203,-10,cs)
);
},
{
closed = 1;
nodes = (
(16,453,o),
(50,455,o),
(63,455,cs),
(301,455,ls),
(320,455,o),
(335,466,o),
(336,488,cs),
(337,520,l),
(327,518,o),
(224,516,o),
(214,516,cs),
(40,516,ls),
(21,516,o),
(5,506,o),
(4,484,cs),
(3,451,l)
);
}
);
width = 355;
}
);
unicode = 116;
},
{
color = 6;
glyphname = u;
kernLeft = u;
kernRight = d;
layers = (
{
anchors = (
{
name = bottom;
pos = (286,0);
},
{
name = ogonek;
pos = (492,8);
},
{
name = top;
pos = (265,500);
},
{
name = topright;
pos = (447,490);
}
);
layerId = "60CFBDE8-BC08-4808-BF41-F011F3E03A54";
shapes = (
{
closed = 1;
nodes = (
(421,512,o),
(416,508,o),
(412,504,c),
(418,480,o),
(418,445,o),
(418,257,cs),
(418,68,o),
(314,16,o),
(248,16,cs),
(156,16,o),
(119,59,o),
(119,206,cs),
(118,490,ls),
(118,504,o),
(112,512,o),
(101,512,cs),
(92,512,o),
(87,508,o),
(83,504,c),
(87,488,o),
(89,457,o),
(89,417,cs),
(90,207,ls),
(91,44,o),
(139,-12,o),
(245,-12,cs),
(337,-12,o),
(423,63,o),
(431,185,c),
(418,177,l),
(418,73,ls),
(418,21,o),
(434,-6,o),
(475,-6,cs),
(499,-6,o),
(515,3,o),
(515,18,cs),
(515,25,o),
(512,32,o),
(505,40,c),
(498,24,o),
(486,22,o),
(478,22,cs),
(456,22,o),
(448,35,o),
(448,72,cs),
(447,490,ls),
(447,504,o),
(441,512,o),
(430,512,cs)
);
}
);
width = 551;
},
{
anchors = (
{
name = bottom;
pos = (294,0);
},
{
name = ogonek;
pos = (476,-21);
},
{
name = top;
pos = (273,516);
},
{
name = topright;
pos = (488,501);
}
);
layerId = "EBFFFCD3-BAE4-48A5-9442-B72A90AD34A8";
shapes = (
{
closed = 1;
nodes = (
(387,531,o),
(359,512,o),
(347,502,c),
(370,447,o),
(370,411,o),
(370,282,cs),
(370,126,o),
(330,48,o),
(270,48,cs),
(215,48,o),
(203,103,o),
(203,208,cs),
(203,460,ls),
(203,505,o),
(169,531,o),
(124,531,cs),
(88,531,o),
(63,516,o),
(45,501,c),
(62,456,o),
(65,400,o),
(65,370,cs),
(65,186,ls),
(65,40,o),
(116,-15,o),
(223,-15,cs),
(333,-15,o),
(387,56,o),
(403,176,c),
(386,146,l),
(386,115,ls),
(386,28,o),
(426,-14,o),
(489,-14,cs),
(542,-14,o),
(571,15,o),
(571,57,cs),
(571,72,o),
(567,85,o),
(558,99,c),
(551,90,o),
(539,88,o),
(532,88,cs),
(515,88,o),
(506,102,o),
(506,140,cs),
(505,453,ls),
(505,502,o),
(470,531,o),
(426,531,cs)
);
}
);
width = 584;
}
);
unicode = 117;
},
{
color = 6;
glyphname = uhorn;
kernLeft = u;
kernRight = d;
layers = (
{
anchors = (
{
name = bottom;
pos = (249,0);
},
{
name = ogonek;
pos = (492,8);
},
{
name = top;
pos = (276,500);
},
{
name = topright;
pos = (446,490);
}
);
layerId = "60CFBDE8-BC08-4808-BF41-F011F3E03A54";
shapes = (
{
closed = 1;
nodes = (
(421,512,o),
(416,508,o),
(412,504,c),
(418,480,o),
(418,445,o),
(418,257,cs),
(418,68,o),
(314,16,o),
(248,16,cs),
(156,16,o),
(120,59,o),
(119,206,cs),
(118,490,ls),
(118,504,o),
(112,512,o),
(101,512,cs),
(92,512,o),
(87,508,o),
(83,504,c),
(87,488,o),
(89,457,o),
(89,417,cs),
(90,207,ls),
(91,44,o),
(139,-12,o),
(245,-12,cs),
(337,-12,o),
(423,63,o),
(431,185,c),
(418,177,l),
(418,73,ls),
(418,21,o),
(434,-6,o),
(475,-6,cs),
(499,-6,o),
(515,3,o),
(515,18,cs),
(515,25,o),
(512,32,o),
(505,40,c),
(498,24,o),
(486,22,o),
(478,22,cs),
(456,22,o),
(448,35,o),
(448,72,cs),
(447,490,ls),
(447,504,o),
(441,512,o),
(430,512,cs)
);
},
{
closed = 1;
nodes = (
(479,485,o),
(508,510,o),
(508,553,cs),
(508,570,o),
(502,595,o),
(485,613,c),
(472,608,o),
(460,599,o),
(452,592,c),
(468,573,o),
(470,556,o),
(470,547,cs),
(470,522,o),
(455,506,o),
(419,493,c),
(428,470,l)
);
}
);
width = 551;
},
{
anchors = (
{
name = bottom;
pos = (291,0);
},
{
name = ogonek;
pos = (476,-21);
},
{
name = top;
pos = (271,516);
},
{
name = topright;
pos = (493,501);
}
);
layerId = "EBFFFCD3-BAE4-48A5-9442-B72A90AD34A8";
shapes = (
{
closed = 1;
nodes = (
(387,531,o),
(359,512,o),
(347,502,c),
(370,447,o),
(370,411,o),
(370,282,cs),
(370,126,o),
(330,48,o),
(270,48,cs),
(215,48,o),
(203,103,o),
(203,208,cs),
(203,460,ls),
(203,505,o),
(169,531,o),
(124,531,cs),
(88,531,o),
(63,516,o),
(45,501,c),
(62,456,o),
(65,400,o),
(65,370,cs),
(65,186,ls),
(65,40,o),
(116,-15,o),
(223,-15,cs),
(333,-15,o),
(387,56,o),
(403,176,c),
(386,146,l),
(386,115,ls),
(386,28,o),
(426,-14,o),
(489,-14,cs),
(542,-14,o),
(571,15,o),
(571,57,cs),
(571,72,o),
(567,85,o),
(558,99,c),
(551,90,o),
(539,88,o),
(532,88,cs),
(515,88,o),
(506,102,o),
(506,140,cs),
(505,453,ls),
(505,502,o),
(470,531,o),
(426,531,cs)
);
},
{
closed = 1;
nodes = (
(544,493,o),
(609,535,o),
(609,590,cs),
(609,624,o),
(593,660,o),
(581,673,c),
(556,670,o),
(507,648,o),
(489,635,c),
(500,623,o),
(512,600,o),
(512,577,cs),
(512,552,o),
(499,527,o),
(454,511,c),
(471,468,l)
);
}
);
width = 584;
}
);
unicode = 432;
},
{
color = 6;
glyphname = v;
layers = (
{
anchors = (
{
name = bottom;
pos = (230,0);
},
{
name = top;
pos = (230,500);
}
);
layerId = "60CFBDE8-BC08-4808-BF41-F011F3E03A54";
shapes = (
{
closed = 1;
nodes = (
(242,-8,o),
(249,-6,o),
(257,0,c),
(439,458,ls),
(442,465,o),
(445,475,o),
(445,482,cs),
(446,493,o),
(437,500,o),
(424,500,cs),
(419,500,o),
(415,500,o),
(410,498,c),
(412,494,o),
(412,488,o),
(412,484,cs),
(412,478,o),
(409,468,o),
(407,463,cs),
(231,6,l),
(241,6,l),
(55,486,ls),
(52,495,o),
(44,500,o),
(35,500,cs),
(28,500,o),
(22,498,o),
(15,491,c),
(20,485,o),
(28,469,o),
(31,461,cs),
(210,9,ls),
(214,-2,o),
(223,-8,o),
(235,-8,cs)
);
}
);
width = 464;
},
{
anchors = (
{
name = bottom;
pos = (257,0);
},
{
name = top;
pos = (257,516);
}
);
layerId = "EBFFFCD3-BAE4-48A5-9442-B72A90AD34A8";
shapes = (
{
closed = 1;
nodes = (
(276,-15,o),
(306,-8,o),
(337,5,c),
(486,401,ls),
(497,427,o),
(500,454,o),
(500,472,cs),
(500,513,o),
(478,530,o),
(425,530,cs),
(392,530,o),
(373,523,o),
(354,515,c),
(360,508,o),
(363,498,o),
(363,482,cs),
(363,466,o),
(360,452,o),
(357,436,cs),
(262,41,l),
(277,39,l),
(167,476,ls),
(159,512,o),
(128,530,o),
(86,530,cs),
(43,530,o),
(20,513,o),
(8,499,c),
(25,481,o),
(34,450,o),
(40,434,cs),
(173,30,ls),
(184,-4,o),
(213,-15,o),
(245,-15,cs)
);
}
);
width = 514;
}
);
unicode = 118;
},
{
color = 6;
glyphname = w;
kernLeft = w;
kernRight = w;
layers = (
{
anchors = (
{
name = bottom;
pos = (365,0);
},
{
name = top;
pos = (365,500);
}
);
layerId = "60CFBDE8-BC08-4808-BF41-F011F3E03A54";
shapes = (
{
closed = 1;
nodes = (
(216,-8,o),
(225,-6,o),
(233,0,c),
(370,461,l),
(503,9,ls),
(506,-2,o),
(518,-8,o),
(530,-8,cs),
(537,-8,o),
(543,-6,o),
(551,0,c),
(703,458,l),
(706,465,o),
(709,475,o),
(709,482,c),
(710,493,o),
(701,500,o),
(688,500,cs),
(683,500,o),
(679,500,o),
(674,498,c),
(676,494,o),
(676,488,o),
(676,484,cs),
(676,478,o),
(673,468,o),
(671,463,c),
(528,19,l),
(385,500,l),
(380,503,o),
(376,504,o),
(370,504,cs),
(361,504,o),
(351,501,o),
(346,498,c),
(348,494,o),
(348,488,o),
(348,484,cs),
(348,478,o),
(345,467,o),
(344,463,cs),
(211,19,l),
(60,486,ls),
(57,495,o),
(49,500,o),
(40,500,cs),
(33,500,o),
(27,498,o),
(20,491,c),
(25,485,o),
(33,469,o),
(36,461,c),
(185,9,ls),
(189,-2,o),
(197,-8,o),
(209,-8,cs)
);
}
);
width = 733;
},
{
anchors = (
{
name = bottom;
pos = (418,0);
},
{
name = top;
pos = (418,516);
}
);
layerId = "EBFFFCD3-BAE4-48A5-9442-B72A90AD34A8";
shapes = (
{
closed = 1;
nodes = (
(269,-15,o),
(302,-8,o),
(335,5,c),
(419,395,l),
(504,30,ls),
(512,-4,o),
(545,-15,o),
(576,-15,cs),
(607,-15,o),
(637,-8,o),
(669,5,c),
(804,401,l),
(814,427,o),
(818,454,o),
(818,472,c),
(818,513,o),
(796,530,o),
(743,530,cs),
(710,530,o),
(691,523,o),
(672,515,c),
(677,508,o),
(681,498,o),
(681,482,cs),
(681,466,o),
(678,452,o),
(675,436,c),
(600,78,l),
(512,479,l),
(502,519,o),
(459,530,o),
(419,530,cs),
(395,529,o),
(359,527,o),
(330,515,c),
(336,508,o),
(339,498,o),
(339,482,cs),
(339,466,o),
(337,451,o),
(334,436,cs),
(260,78,l),
(171,476,ls),
(163,512,o),
(132,530,o),
(90,530,cs),
(47,530,o),
(24,513,o),
(12,499,c),
(29,481,o),
(38,450,o),
(44,434,c),
(164,30,ls),
(175,-4,o),
(204,-15,o),
(236,-15,cs)
);
}
);
width = 836;
}
);
unicode = 119;
},
{
color = 6;
glyphname = x;
layers = (
{
anchors = (
{
name = bottom;
pos = (241,0);
},
{
name = top;
pos = (241,500);
}
);
layerId = "60CFBDE8-BC08-4808-BF41-F011F3E03A54";
shapes = (
{
closed = 1;
nodes = (
(452,-13,o),
(470,6,o),
(470,24,cs),
(470,37,o),
(462,47,o),
(447,48,c),
(451,35,o),
(444,16,o),
(421,16,cs),
(398,16,o),
(385,34,o),
(371,58,cs),
(250,267,l),
(143,455,ls),
(127,483,o),
(104,512,o),
(66,512,cs),
(36,512,o),
(17,493,o),
(17,474,cs),
(17,462,o),
(25,452,o),
(40,451,c),
(37,467,o),
(44,483,o),
(67,483,cs),
(87,483,o),
(99,470,o),
(116,441,cs),
(224,253,l),
(344,44,ls),
(361,14,o),
(383,-13,o),
(421,-13,cs)
);
},
{
closed = 1;
nodes = (
(58,-12,o),
(64,-8,o),
(69,-1,cs),
(250,256,l),
(233,280,l),
(84,73,ls),
(56,34,o),
(41,15,o),
(33,8,c),
(35,-7,o),
(43,-12,o),
(51,-12,cs)
);
},
{
closed = 1;
nodes = (
(384,426,ls),
(407,457,o),
(423,481,o),
(436,492,c),
(433,506,o),
(427,512,o),
(418,512,cs),
(411,512,o),
(405,508,o),
(400,501,cs),
(235,273,l),
(252,251,l)
);
}
);
width = 483;
},
{
anchors = (
{
name = bottom;
pos = (261,0);
},
{
name = top;
pos = (261,516);
}
);
layerId = "EBFFFCD3-BAE4-48A5-9442-B72A90AD34A8";
shapes = (
{
closed = 1;
nodes = (
(479,-15,o),
(516,28,o),
(516,70,cs),
(516,102,o),
(494,124,o),
(473,134,c),
(469,120,o),
(454,107,o),
(444,107,cs),
(433,107,o),
(416,118,o),
(403,141,cs),
(310,301,l),
(253,409,ls),
(206,499,o),
(187,531,o),
(124,531,cs),
(51,531,o),
(19,487,o),
(19,446,cs),
(19,414,o),
(38,393,o),
(61,382,c),
(65,396,o),
(79,409,o),
(93,409,cs),
(105,409,o),
(117,398,o),
(131,374,cs),
(214,232,l),
(282,107,ls),
(323,29,o),
(349,-15,o),
(414,-15,cs)
);
},
{
closed = 1;
nodes = (
(133,-14,o),
(154,4,o),
(166,26,cs),
(270,211,l),
(219,281,l),
(131,151,ls),
(106,112,o),
(75,82,o),
(21,69,c),
(26,7,o),
(60,-14,o),
(98,-14,cs)
);
},
{
closed = 1;
nodes = (
(396,363,ls),
(422,400,o),
(451,433,o),
(506,447,c),
(500,506,o),
(474,531,o),
(427,531,cs),
(388,531,o),
(368,512,o),
(356,489,cs),
(256,310,l),
(309,242,l)
);
}
);
width = 522;
}
);
unicode = 120;
},
{
color = 6;
glyphname = y;
kernLeft = u;
kernRight = g;
layers = (
{
anchors = (
{
name = bottom;
pos = (256,-212);
},
{
name = top;
pos = (276,500);
}
);
layerId = "60CFBDE8-BC08-4808-BF41-F011F3E03A54";
shapes = (
{
closed = 1;
nodes = (
(358,-240,o),
(449,-170,o),
(449,46,c),
(447,490,ls),
(447,504,o),
(441,512,o),
(430,512,cs),
(421,512,o),
(416,508,o),
(412,504,c),
(418,481,o),
(418,447,o),
(418,267,cs),
(418,71,o),
(319,18,o),
(237,18,cs),
(155,18,o),
(119,70,o),
(119,206,cs),
(118,490,ls),
(118,504,o),
(112,512,o),
(101,512,cs),
(92,512,o),
(87,508,o),
(83,504,c),
(87,488,o),
(89,460,o),
(89,417,cs),
(90,207,ls),
(91,46,o),
(143,-10,o),
(236,-10,cs),
(346,-10,o),
(422,71,o),
(431,195,c),
(418,187,l),
(418,145,o),
(418,104,o),
(418,62,c),
(418,-129,o),
(365,-212,o),
(233,-212,cs),
(183,-212,o),
(112,-195,o),
(112,-123,cs),
(112,-114,o),
(113,-90,o),
(132,-80,c),
(128,-74,o),
(121,-71,o),
(114,-71,cs),
(94,-71,o),
(83,-99,o),
(83,-130,cs),
(83,-209,o),
(163,-240,o),
(235,-240,cs)
);
}
);
width = 536;
},
{
anchors = (
{
name = bottom;
pos = (269,-214);
},
{
name = top;
pos = (281,516);
}
);
layerId = "EBFFFCD3-BAE4-48A5-9442-B72A90AD34A8";
shapes = (
{
closed = 1;
nodes = (
(396,-224,o),
(506,-153,o),
(506,53,c),
(505,453,ls),
(505,502,o),
(470,531,o),
(426,531,cs),
(387,531,o),
(359,512,o),
(347,502,c),
(370,447,o),
(370,412,o),
(370,283,cs),
(370,134,o),
(330,57,o),
(268,57,cs),
(215,57,o),
(203,113,o),
(203,216,cs),
(203,460,ls),
(203,505,o),
(169,531,o),
(124,531,cs),
(88,531,o),
(63,516,o),
(45,501,c),
(62,456,o),
(65,401,o),
(65,370,cs),
(65,194,ls),
(65,48,o),
(117,-7,o),
(222,-7,cs),
(334,-7,o),
(386,66,o),
(403,186,c),
(395,160,l),
(388,126,o),
(378,58,o),
(378,32,c),
(378,-96,o),
(333,-183,o),
(248,-183,cs),
(202,-183,o),
(180,-155,o),
(180,-119,cs),
(180,-102,o),
(189,-82,o),
(209,-68,c),
(197,-53,o),
(175,-45,o),
(147,-45,cs),
(91,-45,o),
(53,-75,o),
(53,-119,cs),
(53,-202,o),
(145,-224,o),
(245,-224,cs)
);
}
);
width = 558;
}
);
metricRight = g;
unicode = 121;
},
{
color = 6;
glyphname = z;
kernLeft = z;
kernRight = z;
layers = (
{
anchors = (
{
name = bottom;
pos = (239,0);
},
{
name = top;
pos = (239,500);
}
);
layerId = "60CFBDE8-BC08-4808-BF41-F011F3E03A54";
shapes = (
{
closed = 1;
nodes = (
(79,0,o),
(116,0,o),
(146,0,cs),
(333,0,ls),
(397,0,o),
(439,38,o),
(439,94,cs),
(439,120,o),
(430,164,o),
(395,164,cs),
(390,164,o),
(384,162,o),
(377,158,c),
(395,148,o),
(409,124,o),
(409,97,cs),
(409,62,o),
(388,27,o),
(322,27,cs),
(65,27,l),
(70,17,l),
(398,448,ls),
(411,466,o),
(413,481,o),
(413,497,c),
(403,504,l),
(387,500,o),
(359,500,o),
(308,500,cs),
(144,500,ls),
(80,500,o),
(44,463,o),
(44,420,cs),
(44,391,o),
(60,358,o),
(90,358,cs),
(96,358,o),
(102,361,o),
(105,366,c),
(88,378,o),
(74,394,o),
(74,418,cs),
(74,445,o),
(93,472,o),
(146,472,cs),
(395,472,l),
(390,482,l),
(55,40,ls),
(47,29,o),
(41,16,o),
(41,7,c),
(49,-4,l)
);
}
);
width = 476;
},
{
anchors = (
{
name = bottom;
pos = (253,0);
},
{
name = top;
pos = (253,518);
}
);
layerId = "EBFFFCD3-BAE4-48A5-9442-B72A90AD34A8";
shapes = (
{
closed = 1;
nodes = (
(74,0,o),
(110,1,o),
(138,0,cs),
(353,-6,ls),
(446,-8,o),
(496,34,o),
(496,87,cs),
(496,113,o),
(479,155,o),
(436,176,cs),
(426,180,o),
(416,183,o),
(403,186,c),
(404,173,o),
(401,158,o),
(390,146,cs),
(377,130,o),
(355,118,o),
(324,116,cs),
(130,106,l),
(153,79,l),
(437,404,ls),
(463,434,o),
(466,456,o),
(466,493,c),
(453,528,l),
(426,518,o),
(391,517,o),
(362,518,cs),
(176,525,ls),
(66,529,o),
(23,486,o),
(23,432,cs),
(23,409,o),
(41,370,o),
(82,350,cs),
(92,344,o),
(104,341,o),
(116,339,c),
(114,354,o),
(121,370,o),
(135,383,cs),
(148,395,o),
(169,406,o),
(194,409,cs),
(383,428,l),
(361,442,l),
(60,107,ls),
(34,80,o),
(30,57,o),
(30,18,c),
(46,-11,l)
);
}
);
width = 506;
}
);
unicode = 122;
},
{
color = 6;
glyphname = a.ss01;
kernLeft = o;
kernRight = d;
layers = (
{
anchors = (
{
name = bottom;
pos = (274,0);
},
{
name = top;
pos = (274,500);
}
);
layerId = "60CFBDE8-BC08-4808-BF41-F011F3E03A54";
shapes = (
{
closed = 1;
nodes = (
(355,-12,o),
(417,112,o),
(434,229,c),
(411,200,l),
(411,73,ls),
(411,20,o),
(430,-7,o),
(468,-7,cs),
(492,-7,o),
(508,2,o),
(508,17,cs),
(508,24,o),
(505,31,o),
(498,39,c),
(491,23,o),
(479,21,o),
(471,21,cs),
(453,21,o),
(441,34,o),
(441,71,cs),
(442,488,ls),
(442,499,o),
(438,510,o),
(422,510,cs),
(415,510,o),
(413,508,o),
(409,504,c),
(412,494,o),
(413,447,o),
(411,418,c),
(389,478,o),
(334,509,o),
(261,509,cs),
(123,509,o),
(53,398,o),
(53,222,cs),
(53,144,o),
(67,-12,o),
(219,-12,cs)
);
},
{
closed = 1;
nodes = (
(97,16,o),
(85,150,o),
(85,225,cs),
(85,401,o),
(151,481,o),
(259,481,cs),
(387,481,o),
(411,368,o),
(411,282,cs),
(411,131,o),
(336,16,o),
(221,16,cs)
);
}
);
width = 544;
},
{
anchors = (
{
name = bottom;
pos = (294,0);
},
{
name = top;
pos = (294,516);
}
);
layerId = "EBFFFCD3-BAE4-48A5-9442-B72A90AD34A8";
shapes = (
{
closed = 1;
nodes = (
(315,-14,o),
(379,57,o),
(397,209,c),
(376,220,l),
(376,174,ls),
(376,62,o),
(409,-9,o),
(487,-9,cs),
(537,-9,o),
(576,20,o),
(576,61,cs),
(576,73,o),
(572,90,o),
(563,104,c),
(557,95,o),
(544,93,o),
(537,93,cs),
(515,93,o),
(503,110,o),
(503,145,cs),
(504,460,ls),
(504,504,o),
(471,531,o),
(422,531,cs),
(406,531,o),
(390,528,o),
(378,517,c),
(376,501,o),
(373,487,o),
(369,473,c),
(350,510,o),
(309,530,o),
(249,530,cs),
(111,530,o),
(34,426,o),
(34,240,cs),
(34,92,o),
(85,-14,o),
(212,-14,cs)
);
},
{
closed = 1;
nodes = (
(199,60,o),
(181,120,o),
(181,243,cs),
(181,381,o),
(207,462,o),
(284,462,cs),
(356,462,o),
(366,394,o),
(366,323,cs),
(366,193,o),
(333,60,o),
(254,60,cs)
);
}
);
width = 592;
}
);
metricLeft = d;
metricRight = d;
},
{
color = 6;
glyphname = fi;
kernLeft = f;
kernRight = i;
layers = (
{
anchors = (
{
name = caret_1;
pos = (314,0);
}
);
layerId = "60CFBDE8-BC08-4808-BF41-F011F3E03A54";
shapes = (
{
closed = 1;
nodes = (
(144,-8,o),
(149,-4,o),
(153,0,c),
(149,16,o),
(147,48,o),
(147,87,cs),
(148,534,ls),
(148,641,o),
(176,712,o),
(308,712,cs),
(375,712,o),
(443,694,o),
(443,636,cs),
(443,626,o),
(441,605,o),
(423,583,c),
(425,582,o),
(427,582,o),
(429,582,cs),
(444,582,o),
(472,605,o),
(472,643,cs),
(472,708,o),
(393,740,o),
(306,740,cs),
(136,740,o),
(117,619,o),
(117,537,cs),
(118,14,ls),
(118,0,o),
(124,-8,o),
(135,-8,cs)
);
},
{
closed = 1;
nodes = (
(49,473,o),
(83,474,o),
(96,474,cs),
(293,474,ls),
(299,474,o),
(303,480,o),
(304,488,cs),
(305,502,l),
(295,501,o),
(263,500,o),
(253,500,cs),
(48,500,ls),
(42,500,o),
(38,494,o),
(37,486,cs),
(36,472,l)
);
},
{
closed = 1;
nodes = (
(469,490,ls),
(469,504,o),
(463,512,o),
(452,512,cs),
(443,512,o),
(438,508,o),
(434,504,c),
(438,488,o),
(440,460,o),
(440,417,cs),
(442,14,ls),
(442,0,o),
(448,-8,o),
(459,-8,cs),
(468,-8,o),
(473,-4,o),
(477,0,c),
(473,16,o),
(471,44,o),
(471,87,cs)
);
}
);
width = 571;
},
{
anchors = (
{
name = caret_1;
pos = (324,0);
}
);
layerId = "EBFFFCD3-BAE4-48A5-9442-B72A90AD34A8";
shapes = (
{
closed = 1;
nodes = (
(193,-15,o),
(218,0,o),
(236,16,c),
(219,60,o),
(216,116,o),
(216,146,cs),
(216,499,ls),
(216,611,o),
(210,701,o),
(315,701,cs),
(354,701,o),
(393,689,o),
(393,659,cs),
(393,642,o),
(391,625,o),
(375,609,c),
(388,594,o),
(410,587,o),
(438,587,cs),
(485,587,o),
(522,615,o),
(522,653,cs),
(522,710,o),
(447,743,o),
(316,743,cs),
(133,743,o),
(79,647,o),
(79,525,cs),
(79,56,ls),
(79,12,o),
(113,-15,o),
(158,-15,cs)
);
},
{
closed = 1;
nodes = (
(24,453,o),
(58,455,o),
(71,455,cs),
(282,455,ls),
(301,455,o),
(317,466,o),
(318,488,cs),
(319,520,l),
(309,518,o),
(236,516,o),
(228,516,cs),
(48,516,ls),
(29,516,o),
(13,506,o),
(12,484,cs),
(11,451,l)
);
},
{
closed = 1;
nodes = (
(525,461,ls),
(525,506,o),
(492,532,o),
(447,532,cs),
(409,532,o),
(382,512,o),
(370,502,c),
(387,457,o),
(390,410,o),
(390,371,cs),
(390,56,ls),
(390,12,o),
(424,-15,o),
(467,-15,cs),
(506,-15,o),
(534,5,o),
(546,16,c),
(528,60,o),
(526,107,o),
(526,146,cs)
);
}
);
width = 591;
}
);
metricLeft = f;
metricRight = i;
unicode = 64257;
},
{
color = 6;
glyphname = fl;
kernLeft = f;
kernRight = l;
layers = (
{
anchors = (
{
name = caret_1;
pos = (330,0);
}
);
layerId = "60CFBDE8-BC08-4808-BF41-F011F3E03A54";
shapes = (
{
closed = 1;
nodes = (
(144,-8,o),
(149,-4,o),
(153,0,c),
(149,16,o),
(147,48,o),
(147,87,cs),
(148,574,ls),
(148,650,o),
(170,712,o),
(292,712,cs),
(378,712,o),
(442,681,o),
(442,578,cs),
(442,73,ls),
(442,19,o),
(470,-10,o),
(512,-10,cs),
(540,-10,o),
(566,2,o),
(566,24,cs),
(566,30,o),
(564,37,o),
(557,45,c),
(549,28,o),
(532,18,o),
(513,18,cs),
(486,18,o),
(472,38,o),
(472,71,cs),
(472,586,ls),
(472,678,o),
(410,740,o),
(289,740,cs),
(146,740,o),
(117,653,o),
(117,577,cs),
(118,14,ls),
(118,0,o),
(124,-8,o),
(135,-8,cs)
);
},
{
closed = 1;
nodes = (
(49,473,o),
(83,474,o),
(96,474,cs),
(293,474,ls),
(299,474,o),
(303,480,o),
(304,488,cs),
(305,502,l),
(295,501,o),
(263,500,o),
(253,500,cs),
(48,500,ls),
(42,500,o),
(38,494,o),
(37,486,cs),
(36,472,l)
);
}
);
width = 598;
},
{
anchors = (
{
name = caret_1;
pos = (344,0);
}
);
layerId = "EBFFFCD3-BAE4-48A5-9442-B72A90AD34A8";
shapes = (
{
closed = 1;
nodes = (
(193,-15,o),
(218,0,o),
(236,16,c),
(219,60,o),
(216,116,o),
(216,146,cs),
(216,507,ls),
(216,612,o),
(210,701,o),
(309,701,cs),
(370,701,o),
(404,670,o),
(404,590,cs),
(404,133,ls),
(404,45,o),
(447,-10,o),
(527,-10,cs),
(577,-10,o),
(619,20,o),
(619,62,cs),
(619,74,o),
(615,91,o),
(605,105,c),
(599,95,o),
(585,92,o),
(576,92,cs),
(553,92,o),
(541,110,o),
(541,145,cs),
(541,596,ls),
(541,688,o),
(461,743,o),
(309,743,cs),
(134,743,o),
(79,653,o),
(79,532,cs),
(79,56,ls),
(79,12,o),
(113,-15,o),
(158,-15,cs)
);
},
{
closed = 1;
nodes = (
(24,453,o),
(58,455,o),
(71,455,cs),
(274,455,ls),
(293,455,o),
(308,466,o),
(309,488,cs),
(310,520,l),
(300,518,o),
(236,516,o),
(228,516,cs),
(48,516,ls),
(29,516,o),
(13,506,o),
(12,484,cs),
(11,451,l)
);
}
);
width = 633;
}
);
metricLeft = f;
metricRight = l;
unicode = 64258;
},
{
color = 6;
glyphname = nmod;
layers = (
{
layerId = "60CFBDE8-BC08-4808-BF41-F011F3E03A54";
shapes = (
{
closed = 1;
nodes = (
(91,350,o),
(95,352,o),
(98,355,c),
(92,371,o),
(92,395,o),
(94,521,cs),
(94,644,o),
(164,677,o),
(208,677,cs),
(271,677,o),
(296,637,o),
(296,555,cs),
(296,365,ls),
(296,355,o),
(302,350,o),
(311,350,cs),
(317,350,o),
(320,352,o),
(323,355,c),
(320,366,o),
(318,387,o),
(318,413,cs),
(318,554,ls),
(318,648,o),
(284,698,o),
(210,698,cs),
(147,698,o),
(88,649,o),
(83,569,c),
(92,574,l),
(92,644,ls),
(92,679,o),
(81,697,o),
(54,697,cs),
(38,697,o),
(27,691,o),
(27,681,cs),
(27,676,o),
(29,671,o),
(34,666,c),
(38,677,o),
(46,678,o),
(52,678,cs),
(66,678,o),
(72,669,o),
(72,645,cs),
(72,365,ls),
(72,355,o),
(76,350,o),
(84,350,cs)
);
}
);
width = 384;
},
{
layerId = "EBFFFCD3-BAE4-48A5-9442-B72A90AD34A8";
shapes = (
{
closed = 1;
nodes = (
(147,350,o),
(169,364,o),
(177,373,c),
(159,415,o),
(159,439,o),
(159,510,cs),
(159,602,o),
(187,656,o),
(230,656,cs),
(270,656,o),
(277,621,o),
(277,563,cs),
(277,405,ls),
(277,371,o),
(302,350,o),
(338,350,cs),
(362,350,o),
(382,360,o),
(397,374,c),
(384,409,o),
(381,450,o),
(381,467,cs),
(381,582,ls),
(381,668,o),
(344,710,o),
(265,710,cs),
(185,710,o),
(147,663,o),
(135,585,c),
(148,587,l),
(148,615,ls),
(148,679,o),
(118,709,o),
(72,709,cs),
(32,709,o),
(11,686,o),
(11,654,cs),
(11,641,o),
(14,631,o),
(20,622,c),
(25,627,o),
(34,628,o),
(38,628,cs),
(51,628,o),
(57,618,o),
(57,593,cs),
(58,411,ls),
(58,373,o),
(84,350,o),
(118,350,cs)
);
}
);
width = 424;
}
);
unicode = 8319;
},
{
color = 6;
glyphname = ordfeminine;
layers = (
{
layerId = "60CFBDE8-BC08-4808-BF41-F011F3E03A54";
shapes = (
{
closed = 1;
nodes = (
(332,348,o),
(349,356,o),
(349,371,cs),
(349,375,o),
(348,380,o),
(343,385,c),
(338,375,o),
(326,369,o),
(318,369,cs),
(303,369,o),
(294,379,o),
(294,403,cs),
(294,555,ls),
(294,648,o),
(253,698,o),
(165,698,cs),
(96,698,o),
(51,673,o),
(51,620,cs),
(51,594,o),
(66,564,o),
(86,564,cs),
(90,564,o),
(98,566,o),
(104,575,c),
(82,580,o),
(72,604,o),
(72,621,cs),
(72,667,o),
(123,677,o),
(161,677,cs),
(239,677,o),
(272,637,o),
(272,555,cs),
(272,539,l),
(230,542,o),
(181,539,o),
(142,529,cs),
(71,511,o),
(37,471,o),
(37,423,cs),
(37,381,o),
(62,347,o),
(116,347,cs),
(182,347,o),
(250,397,o),
(281,485,c),
(272,493,l),
(272,404,ls),
(272,371,o),
(285,348,o),
(317,348,cs)
);
},
{
closed = 1;
nodes = (
(76,367,o),
(60,395,o),
(60,425,cs),
(60,466,o),
(90,495,o),
(143,511,cs),
(177,521,o),
(236,525,o),
(272,523,c),
(270,447,o),
(188,367,o),
(120,367,cs)
);
}
);
width = 358;
},
{
layerId = "EBFFFCD3-BAE4-48A5-9442-B72A90AD34A8";
shapes = (
{
closed = 1;
nodes = (
(380,355,o),
(405,379,o),
(405,409,cs),
(405,418,o),
(403,431,o),
(395,441,c),
(392,437,o),
(382,436,o),
(378,436,cs),
(362,436,o),
(354,447,o),
(354,470,cs),
(354,568,ls),
(354,673,o),
(307,710,o),
(198,710,cs),
(103,710,o),
(42,680,o),
(42,627,cs),
(42,591,o),
(70,565,o),
(118,565,cs),
(139,565,o),
(160,571,o),
(172,582,c),
(153,594,o),
(149,614,o),
(149,631,cs),
(149,662,o),
(166,676,o),
(192,676,cs),
(234,676,o),
(248,642,o),
(248,576,cs),
(248,559,l),
(221,557,o),
(189,554,o),
(151,545,cs),
(94,531,o),
(25,500,o),
(25,431,cs),
(25,379,o),
(66,354,o),
(120,354,cs),
(207,354,o),
(259,419,o),
(271,487,c),
(270,508,l),
(263,481,ls),
(219,405,o),
(285,355,o),
(335,355,cs)
);
},
{
closed = 1;
nodes = (
(148,422,o),
(138,441,o),
(138,460,cs),
(138,482,o),
(153,501,o),
(174,512,cs),
(196,524,o),
(223,525,o),
(250,526,c),
(251,466,o),
(208,430,o),
(174,425,cs)
);
}
);
width = 409;
}
);
unicode = 170;
},
{
color = 6;
glyphname = ordmasculine;
layers = (
{
layerId = "60CFBDE8-BC08-4808-BF41-F011F3E03A54";
shapes = (
{
closed = 1;
nodes = (
(269,347,o),
(322,412,o),
(322,523,cs),
(322,633,o),
(269,698,o),
(179,698,cs),
(88,698,o),
(36,633,o),
(36,523,cs),
(36,412,o),
(88,347,o),
(179,347,cs)
);
},
{
closed = 1;
nodes = (
(104,368,o),
(59,425,o),
(59,523,cs),
(59,620,o),
(104,677,o),
(179,677,cs),
(254,677,o),
(299,620,o),
(299,523,cs),
(299,425,o),
(254,368,o),
(179,368,cs)
);
}
);
width = 358;
},
{
layerId = "EBFFFCD3-BAE4-48A5-9442-B72A90AD34A8";
shapes = (
{
closed = 1;
nodes = (
(314,350,o),
(380,417,o),
(380,530,cs),
(380,643,o),
(314,710,o),
(202,710,cs),
(89,710,o),
(24,643,o),
(24,530,cs),
(24,417,o),
(89,350,o),
(202,350,cs)
);
},
{
closed = 1;
nodes = (
(155,384,o),
(136,432,o),
(136,530,cs),
(136,628,o),
(155,675,o),
(203,675,cs),
(248,675,o),
(269,628,o),
(269,530,cs),
(269,432,o),
(248,384,o),
(203,384,cs)
);
}
);
width = 405;
}
);
unicode = 186;
},
{
color = 6;
glyphname = Alpha;
kernLeft = Alpha;
kernRight = Alpha;
layers = (
{
anchors = (
{
name = bottom;
pos = (287,0);
},
{
name = ogonek;
pos = (521,-4);
},
{
name = top;
pos = (280,688);
},
{
name = topleft;
pos = (187,688);
}
);
layerId = "60CFBDE8-BC08-4808-BF41-F011F3E03A54";
shapes = (
{
closed = 1;
nodes = (
(275,700,o),
(268,698,o),
(260,692,c),
(33,34,ls),
(31,27,o),
(27,17,o),
(27,10,cs),
(26,-1,o),
(34,-8,o),
(45,-8,cs),
(51,-8,o),
(55,-8,o),
(61,-6,c),
(59,-2,o),
(59,4,o),
(59,8,cs),
(59,14,o),
(62,24,o),
(64,29,cs),
(287,686,l),
(275,686,l),
(508,6,ls),
(511,-3,o),
(520,-8,o),
(530,-8,cs),
(536,-8,o),
(541,-6,o),
(547,1,c),
(542,7,o),
(536,18,o),
(531,31,cs),
(307,683,ls),
(303,694,o),
(294,700,o),
(282,700,cs)
);
},
{
closed = 1;
nodes = (
(130,234,l),
(435,234,l),
(435,260,l),
(130,260,l)
);
}
);
width = 562;
},
{
anchors = (
{
name = bottom;
pos = (342,0);
},
{
name = ogonek;
pos = (571,-13);
},
{
name = top;
pos = (340,698);
},
{
name = topleft;
pos = (169,698);
}
);
layerId = "EBFFFCD3-BAE4-48A5-9442-B72A90AD34A8";
shapes = (
{
closed = 1;
nodes = (
(324,713,o),
(285,707,o),
(245,694,c),
(51,115,ls),
(42,87,o),
(37,61,o),
(37,44,cs),
(37,3,o),
(61,-14,o),
(115,-14,cs),
(150,-14,o),
(171,-7,o),
(191,1,c),
(184,8,o),
(180,18,o),
(180,34,cs),
(180,49,o),
(183,64,o),
(187,80,cs),
(331,657,l),
(317,660,l),
(479,40,ls),
(487,4,o),
(520,-14,o),
(563,-14,cs),
(609,-14,o),
(633,3,o),
(645,17,c),
(628,35,o),
(617,65,o),
(612,82,cs),
(438,668,ls),
(428,704,o),
(396,713,o),
(363,713,cs)
);
},
{
closed = 1;
nodes = (
(181,203,l),
(513,203,l),
(513,277,l),
(181,277,l)
);
}
);
width = 648;
}
);
metricLeft = A;
metricRight = A;
unicode = 913;
},
{
color = 6;
glyphname = Beta;
kernLeft = Eta;
kernRight = Beta;
layers = (
{
anchors = (
{
name = bottom;
pos = (275,0);
},
{
name = top;
pos = (275,688);
}
);
layerId = "60CFBDE8-BC08-4808-BF41-F011F3E03A54";
shapes = (
{
closed = 1;
nodes = (
(209,0,ls),
(385,0,o),
(484,31,o),
(484,178,cs),
(484,281,o),
(435,340,o),
(329,358,c),
(410,385,o),
(449,447,o),
(449,530,cs),
(449,651,o),
(369,700,o),
(205,700,cs),
(124,700,o),
(104,689,o),
(101,687,c),
(106,670,o),
(108,609,o),
(108,600,cs),
(108,22,l),
(109,8,o),
(115,0,o),
(127,0,cs)
);
},
{
closed = 1;
nodes = (
(138,672,l),
(148,675,o),
(168,676,o),
(195,676,cs),
(350,676,o),
(417,639,o),
(417,531,cs),
(417,415,o),
(335,370,o),
(254,370,cs),
(123,370,l),
(130,344,l),
(219,344,ls),
(363,344,o),
(452,308,o),
(452,180,cs),
(452,48,o),
(359,28,o),
(220,28,cs),
(138,28,l)
);
}
);
width = 549;
},
{
anchors = (
{
name = bottom;
pos = (301,0);
},
{
name = top;
pos = (301,698);
}
);
layerId = "EBFFFCD3-BAE4-48A5-9442-B72A90AD34A8";
shapes = (
{
closed = 1;
nodes = (
(276,0,ls),
(457,0,o),
(562,66,o),
(562,199,cs),
(562,303,o),
(495,364,o),
(400,377,c),
(480,398,o),
(528,462,o),
(528,544,cs),
(528,665,o),
(424,712,o),
(251,712,cs),
(165,712,o),
(105,701,o),
(63,681,c),
(80,636,o),
(83,583,o),
(83,551,cs),
(83,71,l),
(83,26,o),
(117,0,o),
(163,0,cs)
);
},
{
closed = 1;
nodes = (
(223,664,l),
(232,664,o),
(242,664,o),
(253,664,cs),
(349,664,o),
(380,610,o),
(380,532,cs),
(380,451,o),
(349,393,o),
(269,395,cs),
(200,395,l),
(207,347,l),
(272,347,ls),
(351,347,o),
(410,317,o),
(410,196,cs),
(410,113,o),
(373,48,o),
(270,48,cs),
(223,48,l)
);
}
);
width = 603;
}
);
metricLeft = B;
metricRight = B;
unicode = 914;
},
{
color = 6;
glyphname = Gamma;
kernLeft = Eta;
kernRight = Gamma;
layers = (
{
anchors = (
{
name = topleft;
pos = (40,688);
}
);
layerId = "60CFBDE8-BC08-4808-BF41-F011F3E03A54";
shapes = (
{
closed = 1;
nodes = (
(135,-8,o),
(140,-4,o),
(144,0,c),
(140,16,o),
(138,47,o),
(138,87,c),
(136,662,l),
(241,662,o),
(345,662,o),
(450,662,c),
(460,668,o),
(467,688,o),
(451,688,cs),
(119,688,ls),
(110,688,o),
(105,685,o),
(101,680,c),
(105,664,o),
(107,640,o),
(107,600,cs),
(109,14,ls),
(109,0,o),
(115,-8,o),
(126,-8,cs)
);
}
);
width = 490;
},
{
anchors = (
{
name = topleft;
pos = (20,700);
}
);
layerId = "EBFFFCD3-BAE4-48A5-9442-B72A90AD34A8";
shapes = (
{
closed = 1;
nodes = (
(202,-14,o),
(231,6,o),
(243,17,c),
(225,61,o),
(223,108,o),
(223,146,c),
(222,630,l),
(328,627,o),
(414,606,o),
(483,574,c),
(520,591,o),
(536,698,o),
(498,698,cs),
(190,698,ls),
(127,698,o),
(98,691,o),
(63,661,c),
(80,616,o),
(83,570,o),
(83,531,cs),
(83,57,ls),
(83,13,o),
(117,-14,o),
(163,-14,cs)
);
}
);
width = 544;
}
);
metricLeft = H;
unicode = 915;
},
{
color = 6;
glyphname = Delta;
kernLeft = Alpha;
kernRight = Alpha;
layers = (
{
layerId = "60CFBDE8-BC08-4808-BF41-F011F3E03A54";
shapes = (
{
closed = 1;
nodes = (
(550,0,ls),
(557,0,o),
(563,2,o),
(570,9,c),
(565,15,o),
(558,26,o),
(554,39,c),
(318,679,ls),
(314,690,o),
(305,696,o),
(293,696,cs),
(286,696,o),
(279,694,o),
(271,688,c),
(28,26,l),
(24,13,o),
(32,0,o),
(46,0,cs)
);
},
{
closed = 1;
nodes = (
(296,674,l),
(288,674,l),
(530,13,l),
(539,26,l),
(48,26,l),
(57,13,l)
);
}
);
width = 585;
},
{
layerId = "EBFFFCD3-BAE4-48A5-9442-B72A90AD34A8";
shapes = (
{
closed = 1;
nodes = (
(551,0,ls),
(598,0,o),
(621,17,o),
(633,31,c),
(616,49,o),
(605,79,o),
(600,96,cs),
(429,668,ls),
(418,704,o),
(387,713,o),
(354,713,cs),
(315,713,o),
(276,707,o),
(236,694,c),
(48,133,ls),
(20,51,o),
(50,-1,o),
(124,-1,cs)
);
},
{
closed = 1;
nodes = (
(322,657,l),
(308,660,l),
(470,40,l),
(525,84,l),
(121,84,l),
(161,31,l)
);
}
);
width = 636;
}
);
metricLeft = A;
metricRight = A;
unicode = 916;
},
{
color = 6;
glyphname = Epsilon;
kernLeft = Eta;
kernRight = Epsilon;
layers = (
{
anchors = (
{
name = bottom;
pos = (262,0);
},
{
name = ogonek;
pos = (378,2);
},
{
name = top;
pos = (276,688);
},
{
name = topleft;
pos = (57,688);
}
);
layerId = "60CFBDE8-BC08-4808-BF41-F011F3E03A54";
shapes = (
{
closed = 1;
nodes = (
(443,0,l),
(455,0,o),
(453,22,o),
(443,26,c),
(341,26,o),
(240,25,o),
(138,25,c),
(136,662,l),
(238,662,o),
(328,662,o),
(430,662,c),
(441,665,o),
(447,688,o),
(433,688,c),
(119,688,ls),
(110,688,o),
(105,685,o),
(101,680,c),
(105,664,o),
(107,640,o),
(107,600,cs),
(109,22,ls),
(109,8,o),
(115,0,o),
(126,0,cs)
);
},
{
closed = 1;
nodes = (
(411,354,l),
(414,363,o),
(414,371,o),
(411,380,c),
(131,380,l),
(131,354,l)
);
}
);
width = 523;
},
{
anchors = (
{
name = bottom;
pos = (278,0);
},
{
name = ogonek;
pos = (423,-10);
},
{
name = top;
pos = (280,698);
},
{
name = topleft;
pos = (32,700);
}
);
layerId = "EBFFFCD3-BAE4-48A5-9442-B72A90AD34A8";
shapes = (
{
closed = 1;
nodes = (
(481,0,l),
(526,0,o),
(524,103,o),
(489,125,c),
(436,98,o),
(311,69,o),
(223,66,c),
(222,632,l),
(309,629,o),
(395,608,o),
(464,576,c),
(501,593,o),
(517,698,o),
(479,698,c),
(190,698,ls),
(127,698,o),
(98,693,o),
(63,663,c),
(80,618,o),
(83,572,o),
(83,533,cs),
(83,71,ls),
(83,26,o),
(117,0,o),
(163,0,cs)
);
},
{
closed = 1;
nodes = (
(434,324,l),
(439,345,o),
(441,373,o),
(434,398,c),
(197,398,l),
(197,324,l)
);
}
);
width = 554;
}
);
metricLeft = E;
metricRight = E;
unicode = 917;
},
{
color = 6;
glyphname = Zeta;
kernLeft = Zeta;
kernRight = Zeta;
layers = (
{
anchors = (
{
name = bottom;
pos = (283,0);
},
{
name = top;
pos = (283,688);
}
);
layerId = "60CFBDE8-BC08-4808-BF41-F011F3E03A54";
shapes = (
{
closed = 1;
nodes = (
(103,0,o),
(147,0,o),
(187,0,cs),
(394,0,ls),
(482,0,o),
(520,44,o),
(520,97,cs),
(520,131,o),
(502,189,o),
(463,189,cs),
(455,189,o),
(453,186,o),
(444,181,c),
(468,167,o),
(491,136,o),
(490,95,cs),
(489,58,o),
(466,26,o),
(383,26,cs),
(78,26,l),
(78,13,l),
(477,633,ls),
(485,646,o),
(492,663,o),
(492,685,c),
(475,694,l),
(453,689,o),
(416,689,o),
(347,689,cs),
(173,689,ls),
(100,689,o),
(59,649,o),
(59,603,cs),
(59,564,o),
(82,519,o),
(116,519,cs),
(126,519,o),
(133,523,o),
(136,529,c),
(104,548,o),
(87,568,o),
(87,602,cs),
(87,635,o),
(111,663,o),
(176,663,cs),
(475,663,l),
(463,665,l),
(71,53,ls),
(61,38,o),
(52,21,o),
(52,9,c),
(63,-5,l)
);
}
);
width = 553;
},
{
anchors = (
{
name = bottom;
pos = (299,0);
},
{
name = top;
pos = (299,698);
}
);
layerId = "EBFFFCD3-BAE4-48A5-9442-B72A90AD34A8";
shapes = (
{
closed = 1;
nodes = (
(98,5,o),
(116,6,o),
(153,5,cs),
(417,-2,ls),
(524,-4,o),
(574,43,o),
(574,109,cs),
(574,156,o),
(548,190,o),
(508,206,cs),
(500,210,o),
(493,214,o),
(475,217,c),
(479,200,o),
(478,181,o),
(465,162,cs),
(454,144,o),
(426,125,o),
(381,122,cs),
(119,103,l),
(137,67,l),
(516,557,ls),
(545,593,o),
(551,619,o),
(551,664,c),
(534,705,l),
(501,694,o),
(458,693,o),
(419,694,cs),
(216,701,ls),
(92,705,o),
(40,653,o),
(40,587,cs),
(40,554,o),
(56,526,o),
(79,511,cs),
(96,498,o),
(119,489,o),
(142,485,c),
(136,503,o),
(138,519,o),
(150,542,cs),
(163,565,o),
(196,575,o),
(228,577,cs),
(465,596,l),
(453,635,l),
(78,135,ls),
(49,100,o),
(44,72,o),
(44,26,c),
(62,-7,l)
);
}
);
width = 597;
}
);
metricLeft = Z;
metricRight = Z;
unicode = 918;
},
{
color = 6;
glyphname = Eta;
kernLeft = Eta;
kernRight = Eta;
layers = (
{
anchors = (
{
name = bottom;
pos = (331,0);
},
{
name = center;
pos = (331,344);
},
{
name = top;
pos = (331,688);
},
{
name = topleft;
pos = (57,687);
}
);
layerId = "60CFBDE8-BC08-4808-BF41-F011F3E03A54";
shapes = (
{
closed = 1;
nodes = (
(138,673,ls),
(138,687,o),
(130,695,o),
(119,695,cs),
(110,695,o),
(105,691,o),
(101,687,c),
(105,671,o),
(107,640,o),
(107,600,cs),
(109,14,ls),
(109,0,o),
(115,-8,o),
(126,-8,cs),
(135,-8,o),
(140,-4,o),
(144,0,c),
(140,16,o),
(138,47,o),
(138,87,cs)
);
},
{
closed = 1;
nodes = (
(555,673,ls),
(555,687,o),
(547,695,o),
(536,695,cs),
(527,695,o),
(522,691,o),
(518,687,c),
(522,671,o),
(524,640,o),
(524,600,cs),
(526,14,ls),
(526,0,o),
(532,-8,o),
(543,-8,cs),
(552,-8,o),
(557,-4,o),
(561,0,c),
(557,16,o),
(555,47,o),
(555,87,cs)
);
},
{
closed = 1;
nodes = (
(130,354,l),
(541,354,l),
(541,380,l),
(130,380,l)
);
}
);
width = 662;
},
{
anchors = (
{
name = bottom;
pos = (351,0);
},
{
name = center;
pos = (351,349);
},
{
name = top;
pos = (351,698);
},
{
name = topleft;
pos = (32,700);
}
);
layerId = "EBFFFCD3-BAE4-48A5-9442-B72A90AD34A8";
shapes = (
{
closed = 1;
nodes = (
(223,641,ls),
(223,685,o),
(188,711,o),
(143,711,cs),
(104,711,o),
(75,692,o),
(63,681,c),
(80,636,o),
(83,589,o),
(83,551,cs),
(83,56,ls),
(83,12,o),
(117,-15,o),
(163,-15,cs),
(202,-15,o),
(231,5,o),
(243,16,c),
(225,60,o),
(223,108,o),
(223,146,cs)
);
},
{
closed = 1;
nodes = (
(618,641,ls),
(618,685,o),
(583,711,o),
(538,711,cs),
(499,711,o),
(470,692,o),
(458,681,c),
(475,636,o),
(478,589,o),
(478,551,cs),
(478,56,ls),
(478,12,o),
(512,-15,o),
(558,-15,cs),
(597,-15,o),
(626,5,o),
(638,16,c),
(620,60,o),
(618,108,o),
(618,146,cs)
);
},
{
closed = 1;
nodes = (
(169,327,l),
(520,327,l),
(520,401,l),
(169,401,l)
);
}
);
width = 701;
}
);
metricLeft = H;
metricRight = H;
unicode = 919;
},
{
color = 6;
glyphname = Theta;
kernLeft = Omicron;
kernRight = Omicron;
layers = (
{
anchors = (
{
name = _top;
pos = (315,688);
},
{
name = center;
pos = (319,344);
},
{
name = ogonek;
pos = (566,10);
},
{
name = top;
pos = (319,688);
},
{
name = topleft;
pos = (30,688);
},
{
name = topright;
pos = (513,623);
}
);
layerId = "60CFBDE8-BC08-4808-BF41-F011F3E03A54";
shapes = (
{
closed = 1;
nodes = (
(439,331,l),
(444,339,o),
(446,349,o),
(439,358,c),
(199,358,l),
(192,349,o),
(192,340,o),
(199,331,c)
);
},
{
closed = 1;
nodes = (
(476,-12,o),
(568,100,o),
(568,344,cs),
(568,588,o),
(476,700,o),
(319,700,cs),
(162,700,o),
(70,588,o),
(70,344,cs),
(70,100,o),
(162,-12,o),
(319,-12,cs)
);
},
{
closed = 1;
nodes = (
(183,16,o),
(102,118,o),
(102,344,cs),
(102,570,o),
(183,672,o),
(319,672,cs),
(455,672,o),
(536,570,o),
(536,344,cs),
(536,118,o),
(455,16,o),
(319,16,cs)
);
}
);
width = 638;
},
{
anchors = (
{
name = _top;
pos = (333,698);
},
{
name = center;
pos = (333,349);
},
{
name = ogonek;
pos = (598,10);
},
{
name = top;
pos = (333,698);
},
{
name = topleft;
pos = (22,698);
},
{
name = topright;
pos = (511,653);
}
);
layerId = "EBFFFCD3-BAE4-48A5-9442-B72A90AD34A8";
shapes = (
{
closed = 1;
nodes = (
(411,319,l),
(415,340,o),
(416,368,o),
(411,393,c),
(247,393,l),
(242,369,o),
(242,345,o),
(247,319,c)
);
},
{
closed = 1;
nodes = (
(521,-14,o),
(619,108,o),
(619,349,cs),
(619,590,o),
(521,712,o),
(333,712,cs),
(145,712,o),
(47,590,o),
(47,349,cs),
(47,108,o),
(145,-14,o),
(333,-14,cs)
);
},
{
closed = 1;
nodes = (
(241,33,o),
(201,128,o),
(201,349,cs),
(201,570,o),
(241,665,o),
(333,665,cs),
(426,665,o),
(465,570,o),
(465,349,cs),
(465,128,o),
(426,33,o),
(333,33,cs)
);
}
);
width = 666;
}
);
metricLeft = O;
metricRight = O;
unicode = 920;
},
{
color = 6;
glyphname = Iota;
kernLeft = Eta;
kernRight = Eta;
layers = (
{
anchors = (
{
name = bottom;
pos = (123,0);
},
{
name = ogonek;
pos = (124,-1);
},
{
name = top;
pos = (119,688);
},
{
name = topleft;
pos = (57,688);
}
);
layerId = "60CFBDE8-BC08-4808-BF41-F011F3E03A54";
shapes = (
{
closed = 1;
nodes = (
(135,-8,o),
(140,-4,o),
(144,0,c),
(140,16,o),
(138,47,o),
(138,87,cs),
(138,673,ls),
(138,687,o),
(130,695,o),
(119,695,cs),
(110,695,o),
(105,691,o),
(101,687,c),
(105,671,o),
(107,640,o),
(107,600,cs),
(109,14,ls),
(109,0,o),
(115,-8,o),
(126,-8,cs)
);
}
);
width = 245;
},
{
anchors = (
{
name = bottom;
pos = (167,0);
},
{
name = ogonek;
pos = (173,-8);
},
{
name = top;
pos = (139,698);
},
{
name = topleft;
pos = (33,698);
}
);
layerId = "EBFFFCD3-BAE4-48A5-9442-B72A90AD34A8";
shapes = (
{
closed = 1;
nodes = (
(202,-15,o),
(231,5,o),
(243,16,c),
(225,60,o),
(223,108,o),
(223,146,cs),
(223,641,ls),
(223,685,o),
(188,711,o),
(143,711,cs),
(104,711,o),
(75,692,o),
(63,681,c),
(80,636,o),
(83,589,o),
(83,551,cs),
(83,56,ls),
(83,12,o),
(117,-15,o),
(163,-15,cs)
);
}
);
width = 306;
}
);
unicode = 921;
},
{
color = 6;
glyphname = Kappa;
kernLeft = Eta;
kernRight = Kappa;
layers = (
{
anchors = (
{
name = bottom;
pos = (281,0);
},
{
name = top;
pos = (281,688);
}
);
layerId = "60CFBDE8-BC08-4808-BF41-F011F3E03A54";
shapes = (
{
closed = 1;
nodes = (
(509,-8,o),
(536,1,o),
(536,22,cs),
(536,27,o),
(535,32,o),
(531,37,c),
(522,22,o),
(505,20,o),
(498,20,cs),
(483,20,o),
(470,29,o),
(460,61,cs),
(410,223,ls),
(388,292,o),
(347,345,o),
(247,355,c),
(241,344,l),
(394,387,o),
(452,516,o),
(452,621,cs),
(452,677,o),
(437,699,o),
(422,699,cs),
(415,699,o),
(408,694,o),
(402,687,c),
(409,676,o),
(420,655,o),
(420,614,cs),
(420,503,o),
(332,361,o),
(171,361,cs),
(159,361,o),
(142,361,o),
(130,361,c),
(131,335,l),
(171,335,ls),
(331,335,o),
(355,283,o),
(379,221,cs),
(434,45,ls),
(444,12,o),
(471,-8,o),
(494,-8,cs)
);
},
{
closed = 1;
nodes = (
(135,-8,o),
(140,-4,o),
(144,0,c),
(140,16,o),
(138,47,o),
(138,87,c),
(136,673,l),
(136,687,o),
(130,695,o),
(119,695,cs),
(110,695,o),
(105,691,o),
(101,687,c),
(105,671,o),
(107,640,o),
(107,600,cs),
(109,14,ls),
(109,0,o),
(115,-8,o),
(126,-8,cs)
);
}
);
width = 554;
},
{
anchors = (
{
name = bottom;
pos = (335,0);
},
{
name = top;
pos = (312,698);
}
);
layerId = "EBFFFCD3-BAE4-48A5-9442-B72A90AD34A8";
shapes = (
{
closed = 1;
nodes = (
(571,-20,o),
(605,14,o),
(605,56,cs),
(605,67,o),
(602,80,o),
(597,94,c),
(588,88,o),
(581,86,o),
(573,87,cs),
(550,89,o),
(539,105,o),
(515,156,cs),
(471,258,ls),
(445,317,o),
(404,349,o),
(309,353,c),
(307,342,l),
(475,397,o),
(544,509,o),
(544,605,cs),
(544,691,o),
(490,706,o),
(448,706,cs),
(426,706,o),
(411,702,o),
(391,694,c),
(398,683,o),
(409,655,o),
(409,614,cs),
(409,531,o),
(357,405,o),
(245,370,cs),
(234,366,o),
(221,363,o),
(208,361,c),
(209,313,l),
(238,313,ls),
(308,313,o),
(333,257,o),
(348,214,cs),
(375,132,ls),
(399,64,o),
(430,-20,o),
(516,-20,cs)
);
},
{
closed = 1;
nodes = (
(202,-15,o),
(231,5,o),
(243,16,c),
(225,60,o),
(223,108,o),
(223,146,c),
(222,641,l),
(222,685,o),
(188,711,o),
(143,711,cs),
(104,711,o),
(75,692,o),
(63,681,c),
(80,636,o),
(83,589,o),
(83,551,cs),
(83,56,ls),
(83,12,o),
(117,-15,o),
(163,-15,cs)
);
}
);
width = 621;
}
);
metricLeft = H;
unicode = 922;
},
{
color = 6;
glyphname = Lambda;
kernLeft = Alpha;
kernRight = Alpha;
layers = (
{
layerId = "60CFBDE8-BC08-4808-BF41-F011F3E03A54";
shapes = (
{
closed = 1;
nodes = (
(48,-12,o),
(52,-12,o),
(57,-10,c),
(55,-6,o),
(55,0,o),
(55,4,cs),
(55,10,o),
(58,20,o),
(60,25,cs),
(298,682,l),
(284,682,l),
(532,2,ls),
(535,-7,o),
(543,-12,o),
(552,-12,cs),
(559,-12,o),
(565,-10,o),
(572,-3,c),
(567,3,o),
(561,14,o),
(556,27,cs),
(317,679,ls),
(313,690,o),
(304,696,o),
(292,696,cs),
(285,696,o),
(278,694,o),
(270,688,c),
(28,30,l),
(25,23,o),
(22,13,o),
(22,6,cs),
(22,-5,o),
(30,-12,o),
(43,-12,cs)
);
}
);
width = 582;
},
{
layerId = "EBFFFCD3-BAE4-48A5-9442-B72A90AD34A8";
shapes = (
{
closed = 1;
nodes = (
(145,-14,o),
(165,-8,o),
(185,0,c),
(179,7,o),
(175,17,o),
(175,34,cs),
(175,49,o),
(178,64,o),
(182,79,cs),
(349,691,l),
(310,691,l),
(492,39,ls),
(502,3,o),
(531,-14,o),
(581,-14,cs),
(627,-14,o),
(651,2,o),
(664,16,c),
(647,34,o),
(637,64,o),
(631,81,cs),
(435,675,ls),
(426,702,o),
(398,713,o),
(349,713,cs),
(326,713,o),
(293,708,o),
(256,694,c),
(46,114,ls),
(36,86,o),
(32,61,o),
(32,43,cs),
(32,3,o),
(55,-14,o),
(110,-14,cs)
);
}
);
width = 662;
}
);
metricLeft = "=A-10";
metricRight = "=A-10";
unicode = 923;
},
{
color = 6;
glyphname = Mu;
kernLeft = Eta;
kernRight = Eta;
layers = (
{
anchors = (
{
name = bottom;
pos = (425,0);
},
{
name = top;
pos = (425,688);
}
);
layerId = "60CFBDE8-BC08-4808-BF41-F011F3E03A54";
shapes = (
{
closed = 1;
nodes = (
(741,673,l),
(741,687,o),
(735,695,o),
(724,695,cs),
(719,695,o),
(713,694,o),
(709,691,c),
(615,515,o),
(520,332,o),
(426,156,c),
(434,161,l),
(334,336,o),
(232,511,o),
(132,686,c),
(129,692,o),
(124,695,o),
(117,695,cs),
(109,695,o),
(105,691,o),
(101,687,c),
(105,671,o),
(107,640,o),
(107,600,cs),
(109,14,ls),
(109,0,o),
(114,-8,o),
(124,-8,cs),
(133,-8,o),
(138,-4,o),
(142,0,c),
(138,16,o),
(136,47,o),
(136,87,c),
(134,635,l),
(130,629,l),
(225,466,o),
(320,299,o),
(415,136,c),
(425,129,o),
(436,129,o),
(446,136,c),
(718,645,l),
(712,647,l),
(714,14,ls),
(714,0,o),
(720,-8,o),
(731,-8,cs),
(740,-8,o),
(745,-4,o),
(749,0,c),
(745,16,o),
(743,47,o),
(743,87,cs)
);
}
);
width = 850;
},
{
anchors = (
{
name = bottom;
pos = (415,0);
},
{
name = top;
pos = (415,698);
}
);
layerId = "EBFFFCD3-BAE4-48A5-9442-B72A90AD34A8";
shapes = (
{
closed = 1;
nodes = (
(757,683,l),
(752,697,o),
(712,711,o),
(670,711,cs),
(651,711,o),
(615,710,o),
(581,698,c),
(537,554,o),
(456,319,o),
(404,168,c),
(425,165,l),
(362,330,o),
(298,508,o),
(233,686,c),
(216,703,o),
(195,711,o),
(160,711,cs),
(105,711,o),
(75,705,o),
(63,694,c),
(69,653,o),
(70,614,o),
(70,554,cs),
(70,40,ls),
(70,7,o),
(82,-15,o),
(116,-15,cs),
(134,-15,o),
(153,-9,o),
(165,2,c),
(148,47,o),
(145,108,o),
(145,145,c),
(144,573,l),
(127,601,l),
(180,425,o),
(259,220,o),
(328,73,c),
(367,58,o),
(405,61,o),
(456,78,c),
(642,601,l),
(621,552,l),
(622,56,ls),
(622,12,o),
(654,-15,o),
(697,-15,cs),
(736,-15,o),
(765,5,o),
(777,16,c),
(760,60,o),
(757,108,o),
(757,146,cs)
);
}
);
width = 840;
}
);
metricLeft = H;
metricRight = H;
unicode = 924;
},
{
color = 6;
glyphname = Nu;
kernLeft = Eta;
kernRight = Eta;
layers = (
{
anchors = (
{
name = bottom;
pos = (334,0);
},
{
name = top;
pos = (332,688);
}
);
layerId = "60CFBDE8-BC08-4808-BF41-F011F3E03A54";
shapes = (
{
closed = 1;
nodes = (
(132,-8,o),
(138,0,o),
(138,14,cs),
(136,629,l),
(243,460,o),
(473,90,o),
(542,-5,c),
(548,-7,o),
(561,-6,o),
(566,0,c),
(564,16,o),
(564,47,o),
(564,87,cs),
(562,673,ls),
(562,687,o),
(556,695,o),
(545,695,cs),
(536,695,o),
(531,691,o),
(527,687,c),
(531,671,o),
(533,640,o),
(533,600,cs),
(535,53,l),
(423,221,o),
(228,547,o),
(133,688,c),
(130,691,o),
(113,696,o),
(101,687,c),
(105,671,o),
(107,630,o),
(107,590,cs),
(109,87,ls),
(109,47,o),
(107,16,o),
(103,0,c),
(107,-4,o),
(112,-8,o),
(121,-8,cs)
);
}
);
width = 650;
},
{
anchors = (
{
name = bottom;
pos = (352,0);
},
{
name = top;
pos = (352,698);
}
);
layerId = "EBFFFCD3-BAE4-48A5-9442-B72A90AD34A8";
shapes = (
{
closed = 1;
nodes = (
(154,-15,o),
(193,17,o),
(189,65,cs),
(159,497,l),
(208,401,o),
(296,267,o),
(532,-8,c),
(555,-20,o),
(612,-13,o),
(626,3,c),
(620,44,o),
(619,83,o),
(619,143,cs),
(620,564,ls),
(620,596,o),
(621,653,o),
(636,695,cs),
(620,706,o),
(598,711,o),
(579,710,c),
(531,707,o),
(508,671,o),
(513,619,cs),
(549,179,l),
(504,284,o),
(293,533,o),
(172,704,c),
(160,716,o),
(91,712,o),
(76,694,c),
(81,653,o),
(83,612,o),
(83,552,cs),
(83,146,ls),
(83,109,o),
(80,48,o),
(63,3,c),
(79,-8,o),
(100,-15,o),
(120,-15,cs)
);
}
);
width = 676;
}
);
metricLeft = H;
metricRight = h;
unicode = 925;
},
{
color = 6;
glyphname = Xi;
kernLeft = Xi;
kernRight = Epsilon;
layers = (
{
layerId = "60CFBDE8-BC08-4808-BF41-F011F3E03A54";
shapes = (
{
closed = 1;
nodes = (
(90,655,o),
(174,662,o),
(277,662,cs),
(338,662,o),
(399,662,o),
(460,662,c),
(471,665,o),
(477,688,o),
(463,688,cs),
(61,688,ls),
(47,688,o),
(55,668,o),
(61,662,c)
);
},
{
closed = 1;
nodes = (
(460,0,ls),
(477,0,o),
(471,23,o),
(460,26,c),
(433,26,o),
(346,26,o),
(259,26,cs),
(194,26,o),
(129,26,o),
(64,26,c),
(53,23,o),
(47,0,o),
(64,0,cs)
);
},
{
closed = 1;
nodes = (
(411,354,l),
(414,363,o),
(414,371,o),
(411,380,c),
(131,380,l),
(127,371,o),
(127,363,o),
(131,354,c)
);
}
);
width = 523;
},
{
layerId = "EBFFFCD3-BAE4-48A5-9442-B72A90AD34A8";
shapes = (
{
closed = 1;
nodes = (
(131,588,o),
(205,613,o),
(281,613,cs),
(357,613,o),
(430,587,o),
(490,563,c),
(530,582,o),
(547,700,o),
(506,700,cs),
(55,700,ls),
(14,700,o),
(31,582,o),
(71,563,c)
);
},
{
closed = 1;
nodes = (
(510,0,ls),
(547,0,o),
(531,118,o),
(495,137,c),
(439,113,o),
(372,87,o),
(281,87,cs),
(203,87,o),
(122,111,o),
(66,137,c),
(30,118,o),
(14,0,o),
(51,0,cs)
);
},
{
closed = 1;
nodes = (
(448,315,l),
(456,338,o),
(458,369,o),
(448,397,c),
(117,397,l),
(106,370,o),
(106,344,o),
(117,315,c)
);
}
);
width = 561;
}
);
unicode = 926;
},
{
color = 6;
glyphname = Omicron;
kernLeft = Omicron;
kernRight = Omicron;
layers = (
{
anchors = (
{
name = bottom;
pos = (319,0);
},
{
name = center;
pos = (319,344);
},
{
name = ogonek;
pos = (566,10);
},
{
name = top;
pos = (319,688);
},
{
name = topleft;
pos = (97,688);
},
{
name = topright;
pos = (513,623);
}
);
layerId = "60CFBDE8-BC08-4808-BF41-F011F3E03A54";
shapes = (
{
closed = 1;
nodes = (
(476,-12,o),
(568,100,o),
(568,344,cs),
(568,588,o),
(476,700,o),
(319,700,cs),
(162,700,o),
(70,588,o),
(70,344,cs),
(70,100,o),
(162,-12,o),
(319,-12,cs)
);
},
{
closed = 1;
nodes = (
(183,16,o),
(102,118,o),
(102,344,cs),
(102,570,o),
(183,672,o),
(319,672,cs),
(455,672,o),
(536,570,o),
(536,344,cs),
(536,118,o),
(455,16,o),
(319,16,cs)
);
}
);
width = 638;
},
{
anchors = (
{
name = bottom;
pos = (333,0);
},
{
name = center;
pos = (333,349);
},
{
name = ogonek;
pos = (598,10);
},
{
name = top;
pos = (333,698);
},
{
name = topleft;
pos = (71,700);
},
{
name = topright;
pos = (511,653);
}
);
layerId = "EBFFFCD3-BAE4-48A5-9442-B72A90AD34A8";
shapes = (
{
closed = 1;
nodes = (
(521,-14,o),
(619,108,o),
(619,349,cs),
(619,590,o),
(521,712,o),
(333,712,cs),
(145,712,o),
(47,590,o),
(47,349,cs),
(47,108,o),
(145,-14,o),
(333,-14,cs)
);
},
{
closed = 1;
nodes = (
(241,33,o),
(201,128,o),
(201,349,cs),
(201,570,o),
(241,665,o),
(333,665,cs),
(426,665,o),
(465,570,o),
(465,349,cs),
(465,128,o),
(426,33,o),
(333,33,cs)
);
}
);
width = 666;
}
);
metricLeft = O;
metricRight = O;
unicode = 927;
},
{
color = 6;
glyphname = Pi;
kernLeft = Eta;
kernRight = Eta;
layers = (
{
anchors = (
{
name = topleft;
pos = (40,688);
}
);
layerId = "60CFBDE8-BC08-4808-BF41-F011F3E03A54";
shapes = (
{
closed = 1;
nodes = (
(135,-12,o),
(140,-8,o),
(144,-4,c),
(140,12,o),
(138,43,o),
(138,83,cs),
(138,662,l),
(514,662,l),
(514,10,ls),
(514,-4,o),
(520,-12,o),
(531,-12,cs),
(540,-12,o),
(545,-8,o),
(549,-4,c),
(545,12,o),
(543,43,o),
(543,83,cs),
(545,600,ls),
(545,640,o),
(547,671,o),
(551,687,c),
(539,688,o),
(526,688,o),
(518,688,cs),
(134,688,ls),
(126,688,o),
(113,688,o),
(101,687,c),
(105,671,o),
(107,640,o),
(107,600,cs),
(109,10,ls),
(109,-4,o),
(115,-12,o),
(126,-12,cs)
);
}
);
width = 652;
},
{
anchors = (
{
name = topleft;
pos = (31,700);
}
);
layerId = "EBFFFCD3-BAE4-48A5-9442-B72A90AD34A8";
shapes = (
{
closed = 1;
nodes = (
(202,-15,o),
(231,5,o),
(243,16,c),
(225,60,o),
(223,108,o),
(223,146,cs),
(223,627,l),
(469,627,l),
(469,56,ls),
(469,12,o),
(503,-15,o),
(549,-15,cs),
(588,-15,o),
(617,5,o),
(629,16,c),
(611,60,o),
(609,108,o),
(609,146,cs),
(609,551,ls),
(609,589,o),
(612,636,o),
(629,681,c),
(596,700,o),
(546,700,o),
(505,700,cs),
(187,700,ls),
(146,700,o),
(96,700,o),
(63,681,c),
(80,636,o),
(83,589,o),
(83,551,cs),
(83,56,ls),
(83,12,o),
(117,-15,o),
(163,-15,cs)
);
}
);
width = 692;
}
);
metricLeft = H;
metricRight = H;
unicode = 928;
},
{
color = 6;
glyphname = Rho;
kernLeft = Eta;
kernRight = Rho;
layers = (
{
anchors = (
{
name = bottom;
pos = (267,0);
},
{
name = top;
pos = (267,688);
},
{
name = topleft;
pos = (57,687);
}
);
layerId = "60CFBDE8-BC08-4808-BF41-F011F3E03A54";
shapes = (
{
closed = 1;
nodes = (
(136,-8,o),
(141,-4,o),
(145,0,c),
(140,17,o),
(138,78,o),
(138,87,cs),
(138,670,l),
(148,673,o),
(169,674,o),
(194,674,cs),
(367,674,o),
(442,624,o),
(442,498,cs),
(442,364,o),
(356,307,o),
(180,307,cs),
(141,307,o),
(129,307,o),
(116,309,c),
(123,283,l),
(137,282,o),
(150,282,o),
(169,282,cs),
(376,282,o),
(474,348,o),
(474,499,cs),
(474,632,o),
(397,700,o),
(203,700,cs),
(125,700,o),
(104,689,o),
(101,687,c),
(106,670,o),
(108,609,o),
(108,600,cs),
(108,14,ls),
(109,0,o),
(115,-8,o),
(127,-8,cs)
);
}
);
width = 535;
},
{
anchors = (
{
name = bottom;
pos = (293,0);
},
{
name = top;
pos = (293,698);
},
{
name = topleft;
pos = (33,698);
}
);
layerId = "EBFFFCD3-BAE4-48A5-9442-B72A90AD34A8";
shapes = (
{
closed = 1;
nodes = (
(202,-15,o),
(231,5,o),
(243,16,c),
(225,57,o),
(223,105,o),
(223,138,cs),
(223,663,l),
(231,664,o),
(241,664,o),
(252,664,cs),
(364,664,o),
(401,594,o),
(401,495,cs),
(401,391,o),
(362,317,o),
(239,317,cs),
(223,317,o),
(211,317,o),
(198,319,c),
(205,271,l),
(219,270,o),
(232,270,o),
(246,270,cs),
(443,270,o),
(554,355,o),
(554,505,cs),
(554,653,o),
(444,712,o),
(249,712,cs),
(166,712,o),
(105,701,o),
(63,681,c),
(80,636,o),
(83,583,o),
(83,551,cs),
(83,56,ls),
(83,12,o),
(117,-15,o),
(163,-15,cs)
);
}
);
width = 586;
}
);
metricLeft = H;
metricRight = P;
unicode = 929;
},
{
color = 6;
glyphname = Sigma;
kernLeft = Chi;
kernRight = Sigma;
layers = (
{
anchors = (
{
name = top;
pos = (240,698);
}
);
layerId = "60CFBDE8-BC08-4808-BF41-F011F3E03A54";
shapes = (
{
closed = 1;
nodes = (
(403,0,ls),
(415,0,o),
(413,22,o),
(403,26,c),
(298,26,o),
(184,25,o),
(79,25,c),
(86,13,l),
(294,362,l),
(295,339,l),
(78,673,l),
(77,662,l),
(181,662,o),
(286,662,o),
(390,662,c),
(401,665,o),
(407,688,o),
(393,688,cs),
(69,688,ls),
(59,688,o),
(48,673,o),
(51,663,c),
(266,332,l),
(261,362,l),
(61,25,l),
(59,15,o),
(67,0,o),
(76,0,cs)
);
}
);
width = 463;
},
{
anchors = (
{
name = top;
pos = (293,698);
}
);
layerId = "EBFFFCD3-BAE4-48A5-9442-B72A90AD34A8";
shapes = (
{
closed = 1;
nodes = (
(488,0,ls),
(538,0,o),
(539,109,o),
(502,126,c),
(409,92,o),
(265,51,o),
(100,96,c),
(119,40,l),
(388,387,l),
(388,374,l),
(162,653,l),
(162,632,l),
(271,629,o),
(390,611,o),
(477,578,c),
(514,595,o),
(530,698,o),
(492,698,cs),
(66,698,ls),
(45,698,o),
(10,648,o),
(10,625,c),
(263,323,l),
(261,370,l),
(26,65,l),
(29,33,o),
(47,12,o),
(76,-1,c)
);
}
);
width = 558;
}
);
unicode = 931;
},
{
color = 6;
glyphname = Tau;
kernLeft = Tau;
kernRight = Tau;
layers = (
{
anchors = (
{
name = bottom;
pos = (259,0);
},
{
name = center;
pos = (252,344);
},
{
name = top;
pos = (252,688);
}
);
layerId = "60CFBDE8-BC08-4808-BF41-F011F3E03A54";
shapes = (
{
closed = 1;
nodes = (
(265,-8,o),
(270,-4,o),
(274,0,c),
(270,16,o),
(268,46,o),
(268,87,cs),
(267,677,l),
(237,675,l),
(239,14,ls),
(239,0,o),
(245,-8,o),
(256,-8,cs)
);
},
{
closed = 1;
nodes = (
(103,662,o),
(176,662,o),
(248,662,cs),
(322,662,o),
(397,662,o),
(472,662,c),
(483,665,o),
(489,688,o),
(475,688,c),
(29,688,l),
(15,688,o),
(21,665,o),
(32,662,c)
);
}
);
width = 503;
},
{
anchors = (
{
name = bottom;
pos = (294,0);
},
{
name = center;
pos = (279,349);
},
{
name = top;
pos = (279,698);
}
);
layerId = "EBFFFCD3-BAE4-48A5-9442-B72A90AD34A8";
shapes = (
{
closed = 1;
nodes = (
(328,-15,o),
(357,5,o),
(369,16,c),
(351,60,o),
(349,108,o),
(349,146,cs),
(348,665,l),
(209,677,l),
(209,56,ls),
(209,12,o),
(243,-15,o),
(289,-15,cs)
);
},
{
closed = 1;
nodes = (
(110,608,o),
(202,651,o),
(279,651,cs),
(355,651,o),
(449,608,o),
(508,576,c),
(546,593,o),
(562,698,o),
(524,698,c),
(34,698,l),
(-4,698,o),
(12,593,o),
(49,576,c)
);
}
);
width = 557;
}
);
metricLeft = T;
metricRight = T;
unicode = 932;
},
{
color = 6;
glyphname = Upsilon;
kernLeft = Upsilon;
kernRight = Upsilon;
layers = (
{
anchors = (
{
name = top;
pos = (304,688);
},
{
name = topleft;
pos = (5,688);
}
);
layerId = "60CFBDE8-BC08-4808-BF41-F011F3E03A54";
shapes = (
{
closed = 1;
nodes = (
(314,-8,o),
(319,-4,o),
(323,0,c),
(319,16,o),
(315,45,o),
(315,82,cs),
(315,140,ls),
(315,229,o),
(377,370,o),
(397,415,cs),
(472,587,ls),
(493,635,o),
(506,665,o),
(536,665,cs),
(549,665,o),
(561,658,o),
(566,644,c),
(574,647,o),
(578,652,o),
(578,662,cs),
(578,676,o),
(561,695,o),
(533,695,cs),
(491,695,o),
(470,658,o),
(447,603,cs),
(371,423,ls),
(352,378,o),
(295,257,o),
(295,178,c),
(306,178,l),
(306,247,o),
(291,276,o),
(250,381,cs),
(162,603,ls),
(140,659,o),
(122,695,o),
(80,695,cs),
(52,695,o),
(35,676,o),
(35,662,cs),
(35,652,o),
(39,647,o),
(47,644,c),
(52,658,o),
(64,665,o),
(77,665,cs),
(107,665,o),
(119,631,o),
(137,587,cs),
(225,368,ls),
(268,260,o),
(287,199,o),
(287,140,cs),
(287,14,ls),
(287,0,o),
(294,-8,o),
(305,-8,cs)
);
}
);
width = 583;
},
{
anchors = (
{
name = top;
pos = (331,700);
},
{
name = topleft;
pos = (10,700);
}
);
layerId = "EBFFFCD3-BAE4-48A5-9442-B72A90AD34A8";
shapes = (
{
closed = 1;
nodes = (
(382,-15,o),
(411,5,o),
(423,16,c),
(405,60,o),
(403,108,o),
(403,146,cs),
(403,231,ls),
(403,283,o),
(446,366,o),
(466,405,cs),
(532,535,ls),
(547,565,o),
(572,603,o),
(608,603,cs),
(617,603,o),
(631,600,o),
(638,596,c),
(643,610,o),
(646,622,o),
(646,634,cs),
(646,675,o),
(618,707,o),
(566,707,cs),
(504,707,o),
(482,657,o),
(448,577,cs),
(384,425,ls),
(355,355,o),
(325,270,o),
(325,231,c),
(363,232,l),
(363,284,o),
(350,381,o),
(291,513,cs),
(258,588,ls),
(218,678,o),
(182,710,o),
(117,710,cs),
(64,710,o),
(23,678,o),
(23,634,cs),
(23,622,o),
(26,608,o),
(31,596,c),
(39,600,o),
(46,603,o),
(57,603,cs),
(86,603,o),
(110,570,o),
(138,517,cs),
(198,404,ls),
(234,336,o),
(263,268,o),
(263,222,cs),
(263,56,ls),
(263,12,o),
(297,-15,o),
(343,-15,cs)
);
}
);
width = 664;
}
);
unicode = 933;
},
{
color = 6;
glyphname = Phi;
kernLeft = Phi;
kernRight = Phi;
layers = (
{
anchors = (
{
name = bottom;
pos = (386,0);
},
{
name = ogonek;
pos = (387,-1);
},
{
name = top;
pos = (382,688);
},
{
name = topleft;
pos = (101,688);
}
);
layerId = "60CFBDE8-BC08-4808-BF41-F011F3E03A54";
shapes = (
{
closed = 1;
nodes = (
(594,109,o),
(721,189,o),
(721,354,cs),
(721,522,o),
(589,600,o),
(386,600,cs),
(174,600,o),
(50,517,o),
(50,354,cs),
(50,185,o),
(184,107,o),
(387,108,cs)
);
},
{
closed = 1;
nodes = (
(205,136,o),
(82,204,o),
(82,354,cs),
(82,504,o),
(205,572,o),
(384,572,cs),
(388,572,ls),
(567,572,o),
(689,503,o),
(689,354,cs),
(689,205,o),
(567,136,o),
(390,136,cs),
(385,136,ls)
);
},
{
closed = 1;
nodes = (
(398,-8,o),
(403,-4,o),
(407,0,c),
(403,16,o),
(401,47,o),
(401,87,cs),
(401,673,ls),
(401,687,o),
(393,695,o),
(382,695,cs),
(373,695,o),
(368,691,o),
(364,687,c),
(368,671,o),
(370,640,o),
(370,600,cs),
(372,14,ls),
(372,0,o),
(378,-8,o),
(389,-8,cs)
);
}
);
width = 771;
},
{
anchors = (
{
name = bottom;
pos = (438,-16);
},
{
name = ogonek;
pos = (443,-24);
},
{
name = top;
pos = (412,715);
},
{
name = topleft;
pos = (110,698);
}
);
layerId = "EBFFFCD3-BAE4-48A5-9442-B72A90AD34A8";
shapes = (
{
closed = 1;
nodes = (
(674,86,o),
(804,175,o),
(804,349,cs),
(804,523,o),
(674,612,o),
(424,612,cs),
(174,612,o),
(44,523,o),
(44,349,cs),
(44,175,o),
(174,86,o),
(424,86,cs)
);
},
{
closed = 1;
nodes = (
(295,137,o),
(205,201,o),
(205,349,cs),
(205,496,o),
(295,563,o),
(392,561,cs),
(462,560,ls),
(556,558,o),
(644,495,o),
(644,349,cs),
(644,205,o),
(557,137,o),
(459,137,cs),
(389,137,ls)
);
},
{
closed = 1;
nodes = (
(470,-32,o),
(497,-11,o),
(509,1,c),
(492,47,o),
(490,97,o),
(490,137,cs),
(490,655,ls),
(490,701,o),
(457,728,o),
(415,728,cs),
(379,728,o),
(352,708,o),
(341,697,c),
(357,650,o),
(359,600,o),
(359,561,cs),
(359,43,ls),
(359,-3,o),
(391,-32,o),
(434,-32,cs)
);
}
);
width = 848;
}
);
unicode = 934;
},
{
color = 6;
glyphname = Chi;
kernLeft = Chi;
kernRight = Chi;
layers = (
{
anchors = (
{
name = bottom;
pos = (287,0);
},
{
name = top;
pos = (287,688);
}
);
layerId = "60CFBDE8-BC08-4808-BF41-F011F3E03A54";
shapes = (
{
closed = 1;
nodes = (
(541,-7,o),
(560,12,o),
(560,31,cs),
(560,44,o),
(552,54,o),
(537,55,c),
(540,42,o),
(533,23,o),
(510,23,cs),
(488,23,o),
(474,42,o),
(461,65,cs),
(299,364,l),
(152,637,ls),
(138,663,o),
(113,695,o),
(75,695,cs),
(44,695,o),
(25,676,o),
(25,657,cs),
(25,644,o),
(33,634,o),
(48,633,c),
(45,649,o),
(52,665,o),
(75,665,cs),
(95,665,o),
(109,651,o),
(124,623,cs),
(272,349,l),
(432,51,ls),
(447,22,o),
(472,-7,o),
(510,-7,cs)
);
},
{
closed = 1;
nodes = (
(57,-5,o),
(63,-1,o),
(68,6,cs),
(302,354,l),
(284,379,l),
(82,81,ls),
(55,42,o),
(39,23,o),
(31,16,c),
(33,0,o),
(41,-5,o),
(50,-5,cs)
);
},
{
closed = 1;
nodes = (
(472,613,ls),
(493,645,o),
(512,668,o),
(525,679,c),
(522,694,o),
(516,700,o),
(506,700,cs),
(499,700,o),
(493,696,o),
(488,689,cs),
(284,370,l),
(301,348,l)
);
}
);
width = 574;
},
{
anchors = (
{
name = bottom;
pos = (320,0);
},
{
name = top;
pos = (320,698);
}
);
layerId = "EBFFFCD3-BAE4-48A5-9442-B72A90AD34A8";
shapes = (
{
closed = 1;
nodes = (
(581,-14,o),
(623,29,o),
(623,73,cs),
(623,102,o),
(604,125,o),
(583,135,c),
(580,121,o),
(566,108,o),
(554,108,cs),
(541,108,o),
(525,119,o),
(513,142,cs),
(362,422,l),
(279,587,ls),
(239,666,o),
(205,707,o),
(132,707,cs),
(56,707,o),
(29,664,o),
(29,622,cs),
(29,591,o),
(46,569,o),
(68,558,c),
(71,572,o),
(85,585,o),
(100,585,cs),
(114,585,o),
(125,574,o),
(138,551,cs),
(272,300,l),
(373,106,ls),
(412,32,o),
(443,-14,o),
(514,-14,cs)
);
},
{
closed = 1;
nodes = (
(131,-14,o),
(149,3,o),
(164,27,cs),
(341,316,l),
(283,372,l),
(127,153,ls),
(99,114,o),
(71,83,o),
(23,70,c),
(28,13,o),
(49,-14,o),
(95,-14,cs)
);
},
{
closed = 1;
nodes = (
(504,541,ls),
(530,578,o),
(559,610,o),
(608,623,c),
(602,682,o),
(580,707,o),
(535,707,cs),
(497,707,o),
(479,688,o),
(467,666,cs),
(305,382,l),
(350,327,l)
);
}
);
width = 640;
}
);
metricLeft = X;
metricRight = X;
unicode = 935;
},
{
color = 6;
glyphname = Psi;
kernLeft = Upsilon;
kernRight = Upsilon;
layers = (
{
anchors = (
{
name = bottom;
pos = (393,0);
},
{
name = ogonek;
pos = (394,-1);
},
{
name = top;
pos = (389,688);
},
{
name = topleft;
pos = (290,688);
}
);
layerId = "60CFBDE8-BC08-4808-BF41-F011F3E03A54";
shapes = (
{
closed = 1;
nodes = (
(542,211,o),
(685,265,o),
(685,474,cs),
(685,597,ls),
(685,664,o),
(708,672,o),
(726,672,cs),
(734,672,o),
(747,669,o),
(756,655,c),
(760,660,o),
(761,665,o),
(761,670,cs),
(761,691,o),
(741,700,o),
(721,700,cs),
(696,700,o),
(655,681,o),
(655,613,cs),
(655,476,ls),
(655,310,o),
(561,238,o),
(394,239,c),
(394,211,l)
);
},
{
closed = 1;
nodes = (
(392,239,l),
(225,239,o),
(131,311,o),
(131,476,cs),
(131,613,ls),
(131,681,o),
(90,700,o),
(65,700,cs),
(46,700,o),
(25,691,o),
(25,670,cs),
(25,665,o),
(26,660,o),
(30,655,c),
(39,668,o),
(51,672,o),
(60,672,cs),
(77,672,o),
(101,664,o),
(101,597,cs),
(101,474,ls),
(101,265,o),
(244,211,o),
(392,211,c)
);
},
{
closed = 1;
nodes = (
(405,-8,o),
(410,-4,o),
(414,0,c),
(410,16,o),
(408,47,o),
(408,87,cs),
(408,673,ls),
(408,687,o),
(400,695,o),
(389,695,cs),
(380,695,o),
(375,691,o),
(371,687,c),
(375,671,o),
(377,640,o),
(377,600,cs),
(379,14,ls),
(379,0,o),
(385,-8,o),
(396,-8,cs)
);
}
);
width = 777;
},
{
anchors = (
{
name = bottom;
pos = (465,0);
},
{
name = ogonek;
pos = (471,-8);
},
{
name = top;
pos = (437,698);
},
{
name = topleft;
pos = (318,698);
}
);
layerId = "EBFFFCD3-BAE4-48A5-9442-B72A90AD34A8";
shapes = (
{
closed = 1;
nodes = (
(686,197,o),
(792,273,o),
(797,433,cs),
(800,534,ls),
(802,587,o),
(817,603,o),
(840,603,cs),
(852,603,o),
(862,600,o),
(871,596,c),
(876,610,o),
(879,623,o),
(879,634,cs),
(879,676,o),
(845,710,o),
(783,710,cs),
(710,710,o),
(662,663,o),
(658,558,cs),
(654,444,ls),
(649,313,o),
(611,255,o),
(486,255,c),
(482,197,l)
);
},
{
closed = 1;
nodes = (
(416,255,l),
(291,255,o),
(253,313,o),
(248,444,cs),
(244,558,ls),
(240,663,o),
(192,710,o),
(119,710,cs),
(57,710,o),
(23,676,o),
(23,634,cs),
(23,623,o),
(26,610,o),
(31,596,c),
(40,600,o),
(50,603,o),
(62,603,cs),
(85,603,o),
(100,587,o),
(102,534,cs),
(105,433,ls),
(110,273,o),
(216,197,o),
(420,197,c)
);
},
{
closed = 1;
nodes = (
(500,-15,o),
(529,5,o),
(541,16,c),
(523,60,o),
(521,108,o),
(521,146,cs),
(521,641,ls),
(521,685,o),
(486,711,o),
(441,711,cs),
(402,711,o),
(373,692,o),
(361,681,c),
(378,636,o),
(381,589,o),
(381,551,cs),
(381,56,ls),
(381,12,o),
(415,-15,o),
(461,-15,cs)
);
}
);
width = 902;
}
);
unicode = 936;
},
{
color = 6;
glyphname = Omega;
kernLeft = Omega;
kernRight = Omega;
layers = (
{
anchors = (
{
name = bottom;
pos = (354,0);
},
{
name = topleft;
pos = (105,688);
}
);
layerId = "60CFBDE8-BC08-4808-BF41-F011F3E03A54";
shapes = (
{
closed = 1;
nodes = (
(209,87,o),
(117,211,o),
(117,374,cs),
(117,559,o),
(216,672,o),
(354,672,cs),
(492,672,o),
(591,560,o),
(591,374,cs),
(591,211,o),
(522,87,o),
(408,28,c),
(408,0,l),
(542,53,o),
(623,200,o),
(623,374,cs),
(623,577,o),
(513,700,o),
(354,700,cs),
(195,700,o),
(85,577,o),
(85,374,cs),
(85,199,o),
(189,53,o),
(300,0,c),
(300,28,l)
);
},
{
closed = 1;
nodes = (
(300,0,l),
(300,22,l),
(78,27,l),
(71,14,o),
(77,0,o),
(92,0,cs)
);
},
{
closed = 1;
nodes = (
(616,0,ls),
(631,0,o),
(637,14,o),
(630,27,c),
(408,22,l),
(408,0,l)
);
}
);
width = 708;
},
{
anchors = (
{
name = bottom;
pos = (370,0);
},
{
name = topleft;
pos = (90,698);
}
);
layerId = "EBFFFCD3-BAE4-48A5-9442-B72A90AD34A8";
shapes = (
{
closed = 1;
nodes = (
(259,126,o),
(217,260,o),
(217,395,cs),
(217,583,o),
(280,663,o),
(369,663,cs),
(458,663,o),
(521,583,o),
(521,395,cs),
(521,250,o),
(484,126,o),
(394,55,c),
(426,60,l),
(578,100,o),
(675,214,o),
(675,395,cs),
(675,606,o),
(552,710,o),
(369,710,cs),
(186,710,o),
(63,606,o),
(63,395,cs),
(63,214,o),
(163,100,o),
(312,60,c),
(344,55,l)
);
},
{
closed = 1;
nodes = (
(344,0,l),
(343,55,l),
(67,144,l),
(30,93,o),
(58,0,o),
(93,0,cs)
);
},
{
closed = 1;
nodes = (
(646,0,ls),
(681,0,o),
(709,93,o),
(672,144,c),
(395,55,l),
(395,0,l)
);
}
);
width = 739;
}
);
unicode = 937;
},
{
color = 6;
glyphname = KaiSymbol;
kernLeft = Eta;
kernRight = Kappa;
layers = (
{
anchors = (
{
name = bottom;
pos = (281,0);
},
{
name = top;
pos = (281,688);
}
);
layerId = "60CFBDE8-BC08-4808-BF41-F011F3E03A54";
shapes = (
{
closed = 1;
nodes = (
(417,-230,o),
(535,-125,o),
(536,22,cs),
(536,24,o),
(536,30,o),
(531,37,c),
(522,22,o),
(505,20,o),
(498,20,cs),
(483,20,o),
(470,29,o),
(460,61,cs),
(410,223,ls),
(390,287,o),
(353,338,o),
(267,352,c),
(401,402,o),
(452,522,o),
(452,621,cs),
(452,677,o),
(437,699,o),
(422,699,cs),
(415,699,o),
(408,694,o),
(402,687,c),
(409,676,o),
(420,655,o),
(420,614,cs),
(420,503,o),
(332,361,o),
(171,361,cs),
(157,361,o),
(144,361,o),
(130,361,c),
(131,335,l),
(171,335,ls),
(331,335,o),
(359,284,o),
(379,221,cs),
(434,45,ls),
(444,12,o),
(471,-8,o),
(494,-8,cs),
(499,-8,o),
(508,-7,o),
(512,-3,c),
(507,1,l),
(499,-114,o),
(387,-202,o),
(233,-202,cs),
(163,-202,o),
(88,-188,o),
(63,-113,c),
(52,-117,o),
(49,-125,o),
(49,-131,cs),
(49,-184,o),
(113,-230,o),
(231,-230,cs)
);
},
{
closed = 1;
nodes = (
(135,-8,o),
(140,-4,o),
(144,0,c),
(140,16,o),
(138,47,o),
(138,87,cs),
(136,673,l),
(136,687,o),
(130,695,o),
(119,695,cs),
(110,695,o),
(105,691,o),
(101,687,c),
(105,671,o),
(107,640,o),
(107,600,cs),
(109,14,ls),
(109,0,o),
(115,-8,o),
(126,-8,cs)
);
}
);
width = 554;
},
{
anchors = (
{
name = bottom;
pos = (335,0);
},
{
name = top;
pos = (312,698);
}
);
layerId = "EBFFFCD3-BAE4-48A5-9442-B72A90AD34A8";
shapes = (
{
closed = 1;
nodes = (
(420,-224,o),
(605,-105,o),
(605,56,cs),
(605,68,o),
(602,80,o),
(597,94,c),
(588,88,o),
(581,86,o),
(573,87,cs),
(550,89,o),
(537,104,o),
(515,156,cs),
(471,258,ls),
(448,312,o),
(411,343,o),
(333,351,c),
(482,409,o),
(544,514,o),
(544,605,cs),
(544,691,o),
(490,706,o),
(448,706,cs),
(426,706,o),
(411,702,o),
(391,694,c),
(398,683,o),
(409,655,o),
(409,614,cs),
(409,531,o),
(357,405,o),
(245,370,cs),
(234,366,o),
(221,363,o),
(208,361,c),
(209,313,l),
(238,313,ls),
(308,313,o),
(334,257,o),
(348,214,cs),
(375,132,ls),
(398,61,o),
(426,-6,o),
(483,-6,cs),
(489,-6,o),
(496,-5,o),
(503,-4,c),
(447,25,l),
(431,-78,o),
(339,-136,o),
(218,-136,cs),
(150,-136,o),
(88,-119,o),
(61,-62,c),
(50,-70,o),
(45,-83,o),
(45,-98,cs),
(45,-182,o),
(137,-224,o),
(236,-224,cs)
);
},
{
closed = 1;
nodes = (
(202,-15,o),
(231,5,o),
(243,16,c),
(225,60,o),
(223,108,o),
(223,146,c),
(222,641,l),
(222,685,o),
(188,711,o),
(143,711,cs),
(104,711,o),
(75,692,o),
(63,681,c),
(80,636,o),
(83,589,o),
(83,551,cs),
(83,56,ls),
(83,12,o),
(117,-15,o),
(163,-15,cs)
);
}
);
width = 621;
}
);
unicode = 975;
},
{
color = 6;
glyphname = alpha;
kernLeft = omicron;
kernRight = alpha;
layers = (
{
anchors = (
{
name = bottom;
pos = (267,0);
},
{
name = top;
pos = (278,500);
}
);
layerId = "60CFBDE8-BC08-4808-BF41-F011F3E03A54";
shapes = (
{
closed = 1;
nodes = (
(345,-12,o),
(405,86,o),
(428,185,c),
(421,193,l),
(421,44,o),
(454,-12,o),
(517,-12,cs),
(553,-12,o),
(573,8,o),
(573,25,cs),
(573,35,o),
(568,42,o),
(563,45,c),
(556,25,o),
(538,16,o),
(517,16,cs),
(460,16,o),
(448,104,o),
(446,253,c),
(492,474,ls),
(495,487,o),
(494,506,o),
(475,506,cs),
(470,506,o),
(465,504,o),
(462,502,c),
(465,486,o),
(463,478,o),
(459,457,cs),
(420,267,ls),
(405,193,o),
(367,17,o),
(230,17,cs),
(125,17,o),
(83,116,o),
(83,231,cs),
(83,341,o),
(136,483,o),
(270,483,cs),
(349,483,o),
(406,420,o),
(434,316,c),
(448,352,l),
(410,467,o),
(349,512,o),
(268,512,cs),
(138,512,o),
(53,385,o),
(53,231,cs),
(53,45,o),
(153,-12,o),
(227,-12,cs)
);
}
);
width = 583;
},
{
anchors = (
{
name = bottom;
pos = (299,0);
},
{
name = top;
pos = (272,520);
}
);
layerId = "EBFFFCD3-BAE4-48A5-9442-B72A90AD34A8";
shapes = (
{
closed = 1;
nodes = (
(319,-15,o),
(373,51,o),
(403,148,c),
(399,148,l),
(404,45,o),
(444,-15,o),
(511,-15,cs),
(567,-15,o),
(607,20,o),
(607,72,cs),
(607,90,o),
(603,103,o),
(595,116,c),
(579,103,o),
(564,96,o),
(540,96,cs),
(503,96,o),
(477,131,o),
(477,190,c),
(542,394,ls),
(568,475,o),
(515,527,o),
(448,527,cs),
(432,527,o),
(413,524,o),
(402,519,c),
(404,496,o),
(401,454,o),
(395,412,cs),
(383,324,ls),
(363,174,o),
(335,81,o),
(263,81,cs),
(203,81,o),
(167,151,o),
(167,252,cs),
(167,337,o),
(203,451,o),
(299,451,cs),
(357,451,o),
(396,403,o),
(398,352,c),
(415,417,l),
(400,466,o),
(346,531,o),
(262,531,cs),
(119,531,o),
(34,395,o),
(34,247,cs),
(34,74,o),
(133,-15,o),
(231,-15,cs)
);
}
);
width = 614;
}
);
metricLeft = o;
unicode = 945;
},
{
color = 6;
glyphname = beta;
kernLeft = beta;
kernRight = omicron;
layers = (
{
layerId = "60CFBDE8-BC08-4808-BF41-F011F3E03A54";
shapes = (
{
closed = 1;
nodes = (
(125,-230,o),
(132,-224,o),
(133,-221,c),
(126,-208,o),
(125,-177,o),
(125,-149,cs),
(125,499,ls),
(125,654,o),
(202,700,o),
(278,700,cs),
(372,700,o),
(406,629,o),
(406,568,cs),
(406,474,o),
(345,407,o),
(278,385,c),
(323,378,l),
(397,416,o),
(439,488,o),
(439,567,cs),
(439,669,o),
(366,728,o),
(277,728,cs),
(186,728,o),
(95,668,o),
(95,513,cs),
(95,-176,ls),
(95,-210,o),
(97,-230,o),
(117,-230,cs)
);
},
{
closed = 1;
nodes = (
(433,-12,o),
(491,95,o),
(491,191,cs),
(491,302,o),
(414,379,o),
(299,389,c),
(299,391,l),
(266,393,o),
(230,391,o),
(192,382,c),
(190,376,o),
(189,372,o),
(189,367,cs),
(189,353,o),
(200,347,o),
(220,347,cs),
(246,347,o),
(265,354,o),
(291,365,c),
(390,357,o),
(459,285,o),
(459,185,cs),
(459,87,o),
(386,13,o),
(291,13,cs),
(200,13,o),
(150,63,o),
(120,100,c),
(119,58,l),
(158,19,o),
(205,-12,o),
(293,-12,cs)
);
}
);
width = 544;
},
{
layerId = "EBFFFCD3-BAE4-48A5-9442-B72A90AD34A8";
shapes = (
{
closed = 1;
nodes = (
(167,-224,o),
(195,-208,o),
(204,-196,c),
(191,-159,o),
(190,-94,o),
(190,-33,cs),
(190,541,ls),
(190,633,o),
(225,685,o),
(275,685,cs),
(330,685,o),
(355,627,o),
(355,560,cs),
(355,481,o),
(334,427,o),
(310,396,c),
(361,386,l),
(438,430,o),
(493,502,o),
(493,571,cs),
(493,680,o),
(395,733,o),
(286,733,cs),
(178,733,o),
(64,675,o),
(64,469,cs),
(64,-79,ls),
(64,-164,o),
(68,-224,o),
(139,-224,cs)
);
},
{
closed = 1;
nodes = (
(469,-15,o),
(540,95,o),
(540,191,cs),
(540,297,o),
(469,385,o),
(338,399,c),
(324,402,l),
(273,406,o),
(239,398,o),
(225,393,c),
(222,385,o),
(221,375,o),
(221,367,cs),
(221,337,o),
(237,320,o),
(262,320,cs),
(286,320,o),
(314,335,o),
(333,354,c),
(386,319,o),
(402,258,o),
(402,197,cs),
(402,115,o),
(354,60,o),
(273,60,cs),
(222,60,o),
(185,79,o),
(159,95,c),
(145,60,l),
(176,16,o),
(243,-15,o),
(317,-15,cs)
);
}
);
width = 574;
}
);
metricRight = o;
unicode = 946;
},
{
color = 6;
glyphname = gamma;
kernLeft = nu;
kernRight = nu;
layers = (
{
layerId = "60CFBDE8-BC08-4808-BF41-F011F3E03A54";
shapes = (
{
closed = 1;
nodes = (
(311,45,ls),
(374,147,o),
(446,332,o),
(446,493,cs),
(446,499,o),
(444,512,o),
(428,512,cs),
(421,512,o),
(415,509,o),
(413,508,c),
(414,506,o),
(415,497,o),
(415,491,cs),
(415,320,o),
(345,150,o),
(262,16,c),
(280,-5,l),
(124,451,ls),
(109,494,o),
(82,512,o),
(55,512,cs),
(15,512,o),
(5,485,o),
(5,474,cs),
(5,464,o),
(11,457,o),
(16,455,c),
(21,468,o),
(32,483,o),
(53,483,cs),
(70,483,o),
(85,471,o),
(97,437,cs),
(260,-29,l),
(261,-36,l)
);
},
{
closed = 1;
nodes = (
(270,-225,o),
(276,-223,o),
(281,-218,c),
(272,-190,o),
(270,-85,o),
(279,4,c),
(255,2,l),
(246,-46,o),
(239,-138,o),
(239,-182,cs),
(239,-214,o),
(245,-225,o),
(263,-225,cs)
);
}
);
width = 506;
},
{
layerId = "EBFFFCD3-BAE4-48A5-9442-B72A90AD34A8";
shapes = (
{
closed = 1;
nodes = (
(372,64,ls),
(456,171,o),
(537,358,o),
(537,444,cs),
(537,495,o),
(507,527,o),
(458,527,cs),
(431,527,o),
(403,520,o),
(385,509,c),
(392,497,o),
(395,479,o),
(395,444,cs),
(395,332,o),
(335,121,o),
(266,50,c),
(293,49,l),
(231,358,ls),
(207,477,o),
(168,527,o),
(99,527,cs),
(50,527,o),
(10,491,o),
(10,447,cs),
(10,430,o),
(13,418,o),
(20,407,c),
(29,413,o),
(41,417,o),
(51,417,cs),
(75,417,o),
(91,399,o),
(108,352,cs),
(240,-20,l),
(303,-24,l)
);
},
{
closed = 1;
nodes = (
(288,-224,o),
(316,-212,o),
(327,-197,c),
(317,-149,o),
(315,-66,o),
(321,26,c),
(258,39,l),
(221,-5,o),
(194,-88,o),
(194,-156,cs),
(194,-207,o),
(212,-224,o),
(264,-224,cs)
);
}
);
width = 572;
}
);
unicode = 947;
},
{
color = 6;
glyphname = delta;
kernLeft = delta;
kernRight = delta;
layers = (
{
layerId = "60CFBDE8-BC08-4808-BF41-F011F3E03A54";
shapes = (
{
closed = 1;
nodes = (
(402,-12,o),
(481,84,o),
(481,247,cs),
(481,356,o),
(428,440,o),
(333,492,cs),
(236,545,ls),
(172,580,o),
(150,600,o),
(150,634,cs),
(150,676,o),
(191,700,o),
(258,700,cs),
(354,700,o),
(423,655,o),
(426,590,c),
(440,590,o),
(450,600,o),
(450,614,cs),
(450,677,o),
(363,728,o),
(259,728,cs),
(173,728,o),
(118,690,o),
(118,631,cs),
(118,589,o),
(151,556,o),
(218,521,cs),
(317,469,ls),
(404,423,o),
(449,349,o),
(449,247,cs),
(449,102,o),
(381,16,o),
(267,16,cs),
(153,16,o),
(85,102,o),
(85,243,cs),
(85,386,o),
(173,477,o),
(309,477,c),
(288,502,l),
(156,502,o),
(53,390,o),
(53,243,cs),
(53,84,o),
(132,-12,o),
(267,-12,cs)
);
}
);
width = 516;
},
{
layerId = "EBFFFCD3-BAE4-48A5-9442-B72A90AD34A8";
shapes = (
{
closed = 1;
nodes = (
(417,-15,o),
(507,84,o),
(507,241,cs),
(507,353,o),
(439,434,o),
(326,511,cs),
(220,583,ls),
(188,605,o),
(173,615,o),
(173,632,cs),
(173,648,o),
(187,655,o),
(217,655,cs),
(288,655,o),
(369,617,o),
(400,558,c),
(444,556,o),
(483,591,o),
(483,631,cs),
(483,690,o),
(397,733,o),
(278,733,cs),
(158,733,o),
(88,683,o),
(88,603,cs),
(88,545,o),
(131,491,o),
(217,442,cs),
(263,416,ls),
(335,375,o),
(372,320,o),
(372,228,cs),
(372,111,o),
(332,32,o),
(272,32,cs),
(211,32,o),
(170,114,o),
(170,236,cs),
(170,369,o),
(233,440,o),
(343,431,c),
(321,462,l),
(144,466,o),
(34,375,o),
(34,225,cs),
(34,77,o),
(125,-15,o),
(273,-15,cs)
);
}
);
width = 551;
}
);
metricLeft = o;
unicode = 948;
},
{
color = 6;
glyphname = epsilon;
kernLeft = epsilon;
kernRight = epsilon;
layers = (
{
anchors = (
{
name = top;
pos = (254,500);
}
);
layerId = "60CFBDE8-BC08-4808-BF41-F011F3E03A54";
shapes = (
{
closed = 1;
nodes = (
(380,-12,o),
(455,43,o),
(455,97,cs),
(455,103,o),
(452,111,o),
(441,115,c),
(415,32,o),
(330,16,o),
(249,16,cs),
(155,16,o),
(82,52,o),
(82,127,cs),
(82,186,o),
(136,234,o),
(226,243,c),
(224,260,l),
(158,268,o),
(102,307,o),
(102,374,cs),
(102,437,o),
(163,484,o),
(255,484,cs),
(342,484,o),
(391,453,o),
(391,419,cs),
(391,401,o),
(386,389,o),
(362,375,c),
(369,368,o),
(376,365,o),
(383,365,cs),
(403,365,o),
(421,388,o),
(421,419,cs),
(421,471,o),
(369,512,o),
(259,512,cs),
(147,512,o),
(70,452,o),
(70,371,cs),
(70,313,o),
(118,255,o),
(189,244,c),
(177,256,l),
(91,234,o),
(50,182,o),
(50,125,cs),
(50,41,o),
(125,-12,o),
(251,-12,cs)
);
},
{
closed = 1;
nodes = (
(330,233,o),
(339,246,o),
(339,257,cs),
(339,261,o),
(338,264,o),
(336,267,c),
(294,266,o),
(254,265,o),
(205,262,c),
(205,241,l),
(229,238,o),
(262,233,o),
(306,233,cs)
);
}
);
width = 470;
},
{
anchors = (
{
name = top;
pos = (257,520);
}
);
layerId = "EBFFFCD3-BAE4-48A5-9442-B72A90AD34A8";
shapes = (
{
closed = 1;
nodes = (
(381,-18,o),
(496,28,o),
(496,121,cs),
(496,136,o),
(491,149,o),
(480,157,c),
(453,100,o),
(391,70,o),
(315,70,cs),
(236,70,o),
(189,108,o),
(189,162,cs),
(189,200,o),
(217,238,o),
(246,251,c),
(248,279,l),
(210,300,o),
(192,344,o),
(192,377,cs),
(192,445,o),
(229,485,o),
(293,485,cs),
(328,485,o),
(357,468,o),
(357,437,cs),
(357,419,o),
(347,397,o),
(329,383,c),
(341,373,o),
(369,366,o),
(399,366,cs),
(451,366,o),
(486,393,o),
(486,434,cs),
(486,494,o),
(413,531,o),
(288,531,cs),
(146,531,o),
(52,471,o),
(52,376,cs),
(52,321,o),
(105,271,o),
(180,254,c),
(181,266,l),
(101,243,o),
(45,194,o),
(45,122,cs),
(45,36,o),
(132,-18,o),
(269,-18,cs)
);
},
{
closed = 1;
nodes = (
(357,222,o),
(382,247,o),
(382,276,cs),
(382,287,o),
(377,296,o),
(367,307,c),
(315,303,o),
(269,293,o),
(228,283,c),
(209,242,l),
(242,229,o),
(280,222,o),
(317,222,cs)
);
}
);
width = 516;
}
);
unicode = 949;
},
{
color = 6;
glyphname = zeta;
kernLeft = xi;
kernRight = zeta;
layers = (
{
layerId = "60CFBDE8-BC08-4808-BF41-F011F3E03A54";
shapes = (
{
closed = 1;
nodes = (
(364,-187,o),
(396,-155,o),
(396,-105,cs),
(396,-27,o),
(302,-5,o),
(273,6,cs),
(229,22,ls),
(200,32,o),
(112,57,o),
(112,191,cs),
(112,357,o),
(284,596,o),
(396,664,cs),
(434,687,l),
(433,698,o),
(426,711,o),
(408,711,cs),
(386,711,o),
(374,690,o),
(327,672,cs),
(292,658,o),
(254,652,o),
(221,652,cs),
(135,652,o),
(113,701,o),
(102,737,c),
(91,733,o),
(88,726,o),
(88,718,cs),
(88,672,o),
(138,623,o),
(218,623,cs),
(276,623,o),
(330,642,o),
(365,659,c),
(372,679,l),
(215,575,o),
(80,332,o),
(80,186,cs),
(80,35,o),
(192,5,o),
(217,-4,cs),
(266,-21,ls),
(307,-35,o),
(364,-51,o),
(364,-105,cs),
(364,-153,o),
(324,-173,o),
(310,-174,c),
(312,-183,o),
(321,-187,o),
(332,-187,cs)
);
}
);
width = 394;
},
{
layerId = "EBFFFCD3-BAE4-48A5-9442-B72A90AD34A8";
shapes = (
{
closed = 1;
nodes = (
(391,-188,o),
(430,-127,o),
(430,-75,cs),
(430,-24,o),
(398,10,o),
(331,32,cs),
(313,38,ls),
(221,69,o),
(184,122,o),
(184,215,cs),
(184,340,o),
(244,468,o),
(398,606,cs),
(460,661,l),
(460,695,o),
(443,713,o),
(410,713,cs),
(391,713,o),
(372,704,o),
(345,695,cs),
(320,686,o),
(289,678,o),
(247,678,cs),
(176,678,o),
(138,698,o),
(119,744,c),
(79,744,o),
(43,707,o),
(43,667,cs),
(43,611,o),
(85,577,o),
(155,577,cs),
(214,577,o),
(291,600,o),
(359,628,c),
(370,662,l),
(119,436,o),
(39,319,o),
(39,202,cs),
(39,103,o),
(99,36,o),
(218,0,cs),
(245,-8,ls),
(296,-23,o),
(309,-43,o),
(309,-81,cs),
(309,-115,o),
(286,-135,o),
(249,-154,c),
(266,-178,o),
(289,-188,o),
(318,-188,cs)
);
}
);
width = 449;
}
);
unicode = 950;
},
{
color = 6;
glyphname = eta;
kernLeft = eta;
kernRight = eta;
layers = (
{
anchors = (
{
name = bottom;
pos = (142,0);
},
{
name = top;
pos = (307,500);
}
);
layerId = "60CFBDE8-BC08-4808-BF41-F011F3E03A54";
shapes = (
{
closed = 1;
nodes = (
(486,-230,o),
(493,-224,o),
(494,-221,c),
(487,-208,o),
(486,-177,o),
(486,-149,cs),
(486,330,ls),
(486,468,o),
(436,512,o),
(353,512,cs),
(275,512,o),
(185,453,o),
(137,313,c),
(149,307,l),
(161,473,o),
(135,512,o),
(83,512,cs),
(62,512,o),
(36,501,o),
(36,480,cs),
(36,472,o),
(40,465,o),
(45,460,c),
(50,473,o),
(62,484,o),
(81,484,cs),
(132,484,o),
(122,391,o),
(122,260,cs),
(121,41,ls),
(121,8,o),
(123,-12,o),
(142,-12,cs),
(150,-12,o),
(155,-8,o),
(159,-3,c),
(155,6,o),
(151,23,o),
(151,56,cs),
(151,249,ls),
(151,316,o),
(229,484,o),
(353,484,cs),
(436,484,o),
(456,423,o),
(456,338,cs),
(456,-176,ls),
(456,-210,o),
(458,-230,o),
(478,-230,cs)
);
}
);
width = 569;
},
{
anchors = (
{
name = bottom;
pos = (173,0);
},
{
name = top;
pos = (331,520);
}
);
layerId = "EBFFFCD3-BAE4-48A5-9442-B72A90AD34A8";
shapes = (
{
closed = 1;
nodes = (
(507,-224,o),
(538,-208,o),
(550,-196,c),
(535,-154,o),
(536,-61,o),
(536,3,cs),
(536,305,ls),
(536,503,o),
(450,531,o),
(388,531,cs),
(311,531,o),
(242,479,o),
(201,353,c),
(219,348,l),
(219,483,o),
(162,528,o),
(101,528,cs),
(49,528,o),
(15,494,o),
(15,451,cs),
(15,436,o),
(20,417,o),
(27,407,c),
(37,413,o),
(49,417,o),
(65,417,cs),
(108,417,o),
(121,392,o),
(121,312,c),
(102,95,ls),
(96,24,o),
(125,-15,o),
(173,-15,cs),
(206,-15,o),
(231,0,o),
(248,13,c),
(238,43,o),
(235,75,o),
(235,126,cs),
(235,258,ls),
(235,339,o),
(274,428,o),
(351,428,cs),
(390,428,o),
(418,400,o),
(416,317,cs),
(405,-100,ls),
(403,-164,o),
(416,-224,o),
(477,-224,cs)
);
}
);
width = 590;
}
);
metricLeft = n;
unicode = 951;
},
{
color = 6;
glyphname = theta;
kernLeft = Omicron;
kernRight = Omicron;
layers = (
{
layerId = "60CFBDE8-BC08-4808-BF41-F011F3E03A54";
shapes = (
{
closed = 1;
nodes = (
(156,728,o),
(70,591,o),
(70,359,cs),
(70,126,o),
(151,-12,o),
(291,-12,cs),
(431,-12,o),
(512,126,o),
(512,359,cs),
(512,591,o),
(417,728,o),
(291,728,cs)
);
},
{
closed = 1;
nodes = (
(395,700,o),
(479,587,o),
(480,362,c),
(343,358,o),
(250,358,o),
(101,360,c),
(101,586,o),
(183,700,o),
(289,700,cs)
);
},
{
closed = 1;
nodes = (
(177,16,o),
(106,124,o),
(101,334,c),
(258,336,o),
(347,334,o),
(480,335,c),
(475,124,o),
(405,16,o),
(291,16,cs)
);
}
);
width = 572;
},
{
layerId = "EBFFFCD3-BAE4-48A5-9442-B72A90AD34A8";
shapes = (
{
closed = 1;
nodes = (
(154,733,o),
(50,594,o),
(50,359,cs),
(50,125,o),
(142,-14,o),
(301,-14,cs),
(460,-14,o),
(552,125,o),
(552,359,cs),
(552,594,o),
(450,733,o),
(307,733,cs)
);
},
{
closed = 1;
nodes = (
(379,683,o),
(407,587,o),
(410,395,c),
(333,385,o),
(273,384,o),
(191,390,c),
(194,585,o),
(223,683,o),
(301,683,cs)
);
},
{
closed = 1;
nodes = (
(230,36,o),
(195,132,o),
(191,322,c),
(277,328,o),
(335,326,o),
(410,324,c),
(406,133,o),
(372,36,o),
(301,36,cs)
);
}
);
width = 602;
}
);
unicode = 952;
},
{
color = 6;
glyphname = iota;
kernLeft = iota;
kernRight = iota;
layers = (
{
anchors = (
{
name = top;
pos = (118,500);
}
);
layerId = "60CFBDE8-BC08-4808-BF41-F011F3E03A54";
shapes = (
{
closed = 1;
nodes = (
(195,-12,o),
(221,0,o),
(221,22,cs),
(221,28,o),
(219,35,o),
(212,43,c),
(204,26,o),
(194,16,o),
(174,16,cs),
(151,16,o),
(136,32,o),
(136,69,cs),
(136,490,ls),
(136,504,o),
(130,512,o),
(118,512,cs),
(109,512,o),
(104,508,o),
(100,504,c),
(104,488,o),
(106,457,o),
(106,417,cs),
(106,71,ls),
(106,21,o),
(126,-12,o),
(173,-12,cs)
);
}
);
width = 271;
},
{
anchors = (
{
name = top;
pos = (129,527);
}
);
layerId = "EBFFFCD3-BAE4-48A5-9442-B72A90AD34A8";
shapes = (
{
closed = 1;
nodes = (
(237,-15,o),
(276,14,o),
(276,59,cs),
(276,74,o),
(272,96,o),
(264,106,c),
(253,99,o),
(239,96,o),
(228,96,cs),
(190,96,o),
(181,121,o),
(187,175,c),
(198,433,l),
(204,503,o),
(167,527,o),
(129,527,cs),
(101,527,o),
(80,522,o),
(50,499,c),
(58,471,o),
(63,442,o),
(63,385,cs),
(64,189,ls),
(64,67,o),
(104,-15,o),
(190,-15,cs)
);
}
);
width = 301;
}
);
unicode = 953;
},
{
color = 6;
glyphname = kappa;
kernLeft = iota;
kernRight = kappa;
layers = (
{
layerId = "60CFBDE8-BC08-4808-BF41-F011F3E03A54";
shapes = (
{
closed = 1;
nodes = (
(108,-8,o),
(113,-4,o),
(117,0,c),
(114,7,o),
(111,16,o),
(111,25,cs),
(111,67,o),
(132,103,o),
(160,140,cs),
(299,337,ls),
(353,409,o),
(399,477,o),
(431,477,cs),
(436,477,o),
(439,475,o),
(442,472,c),
(446,475,o),
(450,480,o),
(450,488,cs),
(450,496,o),
(445,506,o),
(429,506,cs),
(385,506,o),
(348,448,o),
(295,378,cs),
(141,161,ls),
(120,133,o),
(97,98,o),
(97,71,c),
(111,79,l),
(111,490,ls),
(111,504,o),
(105,512,o),
(93,512,cs),
(84,512,o),
(79,508,o),
(75,504,c),
(79,488,o),
(81,457,o),
(81,417,cs),
(81,14,ls),
(81,0,o),
(87,-8,o),
(99,-8,cs)
);
},
{
closed = 1;
nodes = (
(490,-8,o),
(505,13,o),
(505,29,cs),
(505,37,o),
(501,44,o),
(494,49,c),
(490,37,o),
(482,20,o),
(461,20,cs),
(440,20,o),
(423,45,o),
(403,80,cs),
(268,317,l),
(249,291,l),
(383,53,ls),
(409,7,o),
(432,-8,o),
(458,-8,cs)
);
}
);
width = 520;
},
{
layerId = "EBFFFCD3-BAE4-48A5-9442-B72A90AD34A8";
shapes = (
{
closed = 1;
nodes = (
(175,-15,o),
(198,0,o),
(215,13,c),
(210,33,o),
(207,46,o),
(207,71,cs),
(207,105,o),
(238,173,o),
(275,216,cs),
(353,308,l),
(396,354,o),
(451,405,o),
(496,405,cs),
(506,405,o),
(516,405,o),
(526,401,c),
(534,416,o),
(538,438,o),
(538,451,cs),
(538,500,o),
(496,527,o),
(457,527,cs),
(386,527,o),
(357,448,o),
(299,367,cs),
(232,273,ls),
(208,240,o),
(173,174,o),
(163,105,c),
(175,93,l),
(199,433,ls),
(204,503,o),
(168,527,o),
(128,527,cs),
(106,527,o),
(77,519,o),
(55,499,c),
(63,471,o),
(68,442,o),
(68,385,cs),
(68,95,ls),
(68,24,o),
(93,-15,o),
(144,-15,cs)
);
},
{
closed = 1;
nodes = (
(535,-15,o),
(563,31,o),
(563,65,cs),
(563,87,o),
(556,101,o),
(553,105,c),
(546,101,o),
(535,95,o),
(523,95,cs),
(487,95,o),
(452,116,o),
(405,194,cs),
(314,346,l),
(265,288,l),
(332,132,ls),
(366,53,o),
(402,-15,o),
(477,-15,cs)
);
}
);
width = 593;
}
);
unicode = 954;
},
{
color = 6;
glyphname = lambda;
kernLeft = lambda;
kernRight = lambda;
layers = (
{
layerId = "60CFBDE8-BC08-4808-BF41-F011F3E03A54";
shapes = (
{
closed = 1;
nodes = (
(513,-12,o),
(527,8,o),
(527,23,cs),
(527,31,o),
(523,38,o),
(518,43,c),
(513,31,o),
(501,16,o),
(483,16,cs),
(457,16,o),
(446,43,o),
(433,75,cs),
(216,626,ls),
(193,684,o),
(178,726,o),
(129,726,cs),
(99,726,o),
(73,710,o),
(73,689,cs),
(73,681,o),
(76,675,o),
(82,671,c),
(90,687,o),
(108,698,o),
(127,698,cs),
(153,698,o),
(166,675,o),
(188,619,cs),
(407,60,ls),
(430,1,o),
(451,-12,o),
(479,-12,cs)
);
},
{
closed = 1;
nodes = (
(66,-12,o),
(71,-11,o),
(73,-10,c),
(71,-7,o),
(71,-1,o),
(71,1,cs),
(71,43,o),
(208,361,o),
(255,477,c),
(235,506,l),
(175,360,o),
(40,39,o),
(40,7,cs),
(40,1,o),
(42,-12,o),
(59,-12,cs)
);
}
);
width = 507;
},
{
layerId = "EBFFFCD3-BAE4-48A5-9442-B72A90AD34A8";
shapes = (
{
closed = 1;
nodes = (
(540,-15,o),
(568,31,o),
(568,65,cs),
(568,87,o),
(561,101,o),
(558,105,c),
(551,101,o),
(540,95,o),
(528,95,cs),
(497,95,o),
(482,124,o),
(452,204,cs),
(342,498,ls),
(289,653,o),
(266,733,o),
(183,733,cs),
(133,733,o),
(87,698,o),
(87,639,cs),
(87,630,o),
(91,612,o),
(93,606,c),
(103,611,o),
(130,623,o),
(159,623,cs),
(212,623,o),
(237,581,o),
(273,448,cs),
(356,142,ls),
(377,66,o),
(401,-15,o),
(479,-15,cs)
);
},
{
closed = 1;
nodes = (
(152,-15,o),
(175,-5,o),
(189,6,c),
(182,16,o),
(181,29,o),
(181,45,c),
(180,127,o),
(287,365,o),
(314,474,c),
(264,504,l),
(212,417,o),
(39,135,o),
(39,57,cs),
(39,28,o),
(68,-15,o),
(125,-15,cs)
);
}
);
width = 551;
}
);
unicode = 955;
},
